<svg width="11" height="12" viewBox="0 0 11 12" fill="none" xmlns="http://www.w3.org/2000/svg">
<path opacity="0.4" d="M8.99514 7.95838C8.47232 7.95822 7.97025 8.16456 7.59661 8.53316L3.95436 6.46905C4.0292 6.15773 4.0292 5.8329 3.95436 5.52158L7.59546 3.45747C7.93562 3.79098 8.38245 3.99156 8.85594 4.02332C9.32943 4.05507 9.79868 3.91591 10.1797 3.63076C10.5607 3.34561 10.8285 2.93309 10.9353 2.46704C11.0421 2.00099 10.9808 1.51184 10.7625 1.08718C10.5441 0.66251 10.1829 0.330047 9.74354 0.149308C9.30418 -0.0314311 8.81534 -0.0486453 8.36454 0.100747C7.91374 0.25014 7.53041 0.556384 7.28318 0.964655C7.03594 1.37293 6.94095 1.85657 7.0152 2.32899L3.28818 4.44218C2.99543 4.19633 2.63924 4.03967 2.26133 3.99053C1.88342 3.9414 1.49945 4.00183 1.15439 4.16476C0.809337 4.32768 0.517488 4.58634 0.313037 4.91045C0.108586 5.23455 0 5.61067 0 5.99474C0 6.37881 0.108586 6.75492 0.313037 7.07903C0.517488 7.40313 0.809337 7.66179 1.15439 7.82471C1.49945 7.98764 1.88342 8.04807 2.26133 7.99894C2.63924 7.94981 2.99543 7.79314 3.28818 7.54729L7.0152 9.66164C6.95077 10.0698 7.01203 10.488 7.19073 10.86C7.36943 11.2319 7.65697 11.5397 8.01459 11.7418C8.37221 11.9439 8.78272 12.0307 9.19076 11.9904C9.59881 11.95 9.98479 11.7846 10.2967 11.5163C10.6085 11.248 10.8313 10.8898 10.9349 10.4899C11.0385 10.0901 11.018 9.66784 10.8762 9.28009C10.7344 8.89234 10.478 8.55775 10.1416 8.32142C9.80529 8.08509 9.40514 7.95838 8.99514 7.95838Z" fill="#001133"/>
</svg>
