<svg width="125" height="26" viewBox="0 0 125 26" fill="none" xmlns="http://www.w3.org/2000/svg">
<g opacity="0.7" filter="url(#filter0_f_7_4070)">
<path d="M0 17.4339H11.2511C11.3016 17.4339 11.3502 17.4148 11.3872 17.3804L14.2274 14.7404C14.3106 14.6631 14.4416 14.6705 14.5155 14.7568L16.5294 17.1088C16.6398 17.2377 16.8505 17.1792 16.8786 17.0118L19.4821 1.49847C19.5208 1.26783 19.8561 1.2797 19.8784 1.5125L22.1016 24.7264C22.1234 24.9536 22.4475 24.9729 22.4961 24.75L24.0461 17.6404C24.0706 17.5283 24.1842 17.4596 24.2949 17.4903L26.0817 17.985C26.1864 18.014 26.295 17.9542 26.3265 17.8502L27.7772 13.0602C27.8328 12.8764 28.0904 12.8691 28.1564 13.0495L30.2547 18.7847C30.3087 18.9321 30.5036 18.9628 30.6002 18.8391L32.0308 17.0071C32.0847 16.938 32.1774 16.9121 32.2593 16.9432L33.519 17.4209C33.5417 17.4295 33.5657 17.4339 33.5899 17.4339H51.5904C51.6405 17.4339 51.6888 17.415 51.7257 17.3811L53.9686 15.319C54.0418 15.2518 54.1533 15.2484 54.2303 15.3112L56.5738 17.2209C56.6915 17.3168 56.869 17.2517 56.8968 17.1024L59.6341 2.37745C59.6763 2.15065 60.0055 2.16361 60.0297 2.39303L62.377 24.6528C62.4006 24.8766 62.7186 24.8969 62.7705 24.6779L64.5528 17.1598C64.5842 17.0273 64.736 16.9643 64.852 17.0355L66.2559 17.8971C66.3698 17.967 66.5189 17.9077 66.5537 17.7786L67.8186 13.0798C67.8689 12.8929 68.1289 12.8793 68.1984 13.06L70.4009 18.7863C70.4573 18.9329 70.6529 18.9603 70.7473 18.8349L72.1194 17.0128C72.1736 16.9408 72.2692 16.914 72.3529 16.9471L73.5452 17.4198C73.5686 17.4291 73.5936 17.4339 73.6189 17.4339H91.6187C91.6683 17.4339 91.7161 17.4155 91.7528 17.3822L94.3529 15.0306C94.4332 14.958 94.5566 14.9624 94.6315 15.0405L96.6586 17.1561C96.7707 17.273 96.9679 17.2153 96.9993 17.0564L99.9012 2.34672C99.9457 2.12108 100.273 2.13661 100.296 2.36544L102.538 24.6803C102.56 24.9033 102.876 24.9264 102.931 24.709L104.824 17.1641C104.858 17.0305 105.013 16.97 105.128 17.0457L106.412 17.89C106.524 17.9635 106.675 17.9088 106.714 17.7809L108.143 13.0602C108.199 12.8764 108.456 12.8691 108.522 13.0495L110.621 18.7847C110.675 18.9321 110.87 18.9628 110.966 18.8391L112.398 17.0054C112.451 16.9372 112.543 16.911 112.624 16.9406L113.948 17.4218C113.97 17.4298 113.993 17.4339 114.017 17.4339H125" stroke="#FF0072" stroke-linecap="round"/>
</g>
<path d="M0 17.4339H11.2511C11.3016 17.4339 11.3502 17.4148 11.3872 17.3804L14.2274 14.7404C14.3106 14.6631 14.4416 14.6705 14.5155 14.7568L16.5294 17.1088C16.6398 17.2377 16.8505 17.1792 16.8786 17.0118L19.4821 1.49847C19.5208 1.26783 19.8561 1.2797 19.8784 1.5125L22.1016 24.7264C22.1234 24.9536 22.4475 24.9729 22.4961 24.75L24.0461 17.6404C24.0706 17.5283 24.1842 17.4596 24.2949 17.4903L26.0817 17.985C26.1864 18.014 26.295 17.9542 26.3265 17.8502L27.7772 13.0602C27.8328 12.8764 28.0904 12.8691 28.1564 13.0495L30.2547 18.7847C30.3087 18.9321 30.5036 18.9628 30.6002 18.8391L32.0308 17.0071C32.0847 16.938 32.1774 16.9121 32.2593 16.9432L33.519 17.4209C33.5417 17.4295 33.5657 17.4339 33.5899 17.4339H51.5904C51.6405 17.4339 51.6888 17.415 51.7257 17.3811L53.9686 15.319C54.0418 15.2518 54.1533 15.2484 54.2303 15.3112L56.5738 17.2209C56.6915 17.3168 56.869 17.2517 56.8968 17.1024L59.6341 2.37745C59.6763 2.15065 60.0055 2.16361 60.0297 2.39303L62.377 24.6528C62.4006 24.8766 62.7186 24.8969 62.7705 24.6779L64.5528 17.1598C64.5842 17.0273 64.736 16.9643 64.852 17.0355L66.2559 17.8971C66.3698 17.967 66.5189 17.9077 66.5537 17.7786L67.8186 13.0798C67.8689 12.8929 68.1289 12.8793 68.1984 13.06L70.4009 18.7863C70.4573 18.9329 70.6529 18.9603 70.7473 18.8349L72.1194 17.0128C72.1736 16.9408 72.2692 16.914 72.3529 16.9471L73.5452 17.4198C73.5686 17.4291 73.5936 17.4339 73.6189 17.4339H91.6187C91.6683 17.4339 91.7161 17.4155 91.7528 17.3822L94.3529 15.0306C94.4332 14.958 94.5566 14.9624 94.6315 15.0405L96.6586 17.1561C96.7707 17.273 96.9679 17.2153 96.9993 17.0564L99.9012 2.34672C99.9457 2.12108 100.273 2.13661 100.296 2.36544L102.538 24.6803C102.56 24.9033 102.876 24.9264 102.931 24.709L104.824 17.1641C104.858 17.0305 105.013 16.97 105.128 17.0457L106.412 17.89C106.524 17.9635 106.675 17.9088 106.714 17.7809L108.143 13.0602C108.199 12.8764 108.456 12.8691 108.522 13.0495L110.621 18.7847C110.675 18.9321 110.87 18.9628 110.966 18.8391L112.398 17.0054C112.451 16.9372 112.543 16.911 112.624 16.9406L113.948 17.4218C113.97 17.4298 113.993 17.4339 114.017 17.4339H125" stroke="#FF0072" stroke-linecap="round"/>
<defs>
<filter id="filter0_f_7_4070" x="-4.5" y="-3.16847" width="134" height="32.5759" filterUnits="userSpaceOnUse" color-interpolation-filters="sRGB">
<feFlood flood-opacity="0" result="BackgroundImageFix"/>
<feBlend mode="normal" in="SourceGraphic" in2="BackgroundImageFix" result="shape"/>
<feGaussianBlur stdDeviation="2" result="effect1_foregroundBlur_7_4070"/>
</filter>
</defs>
</svg>
