<svg width="13" height="16" viewBox="0 0 13 16" fill="none" xmlns="http://www.w3.org/2000/svg">
<path d="M6.41342 0C2.87799 0 0 2.87799 0 6.41343C0 6.81594 0.0368972 7.22181 0.114046 7.61762C0.1174 7.6411 0.130818 7.71154 0.157652 7.8323C0.254927 8.265 0.399162 8.691 0.587003 9.09687C1.27799 10.7237 2.79749 13.2227 6.13166 15.8994C6.21552 15.9665 6.31615 16 6.41678 16C6.51741 16 6.61804 15.9665 6.70189 15.8994C10.0327 13.2227 11.5556 10.7237 12.2466 9.09687C12.4344 8.691 12.5786 8.26835 12.6759 7.8323C12.7027 7.71154 12.7162 7.6411 12.7195 7.61762C12.7933 7.22181 12.8336 6.81594 12.8336 6.41343C12.8268 2.87799 9.94886 0 6.41342 0ZM11.8206 7.45997C11.8206 7.46668 11.8172 7.47338 11.8172 7.48009C11.8139 7.49687 11.8038 7.54718 11.787 7.62433C11.787 7.62768 11.787 7.62768 11.787 7.63104C11.7032 8.00672 11.579 8.37234 11.4147 8.72454C11.4113 8.72789 11.4113 8.7346 11.408 8.73796C10.7807 10.2239 9.40546 12.4914 6.41342 14.9635C3.42139 12.4914 2.04612 10.2239 1.41887 8.73796C1.41552 8.7346 1.41552 8.72789 1.41216 8.72454C1.25115 8.37569 1.12705 8.00672 1.03983 7.63104C1.03983 7.62768 1.03983 7.62768 1.03983 7.62433C1.01971 7.54718 1.013 7.49687 1.00964 7.48009C1.00964 7.47338 1.00629 7.46668 1.00629 7.45661C0.939204 7.11112 0.905661 6.76227 0.905661 6.41007C0.905661 3.37443 3.37778 0.902307 6.41342 0.902307C9.44907 0.902307 11.9212 3.37443 11.9212 6.41007C11.9212 6.76563 11.8876 7.11783 11.8206 7.45997Z" fill="#F45353"/>
<path d="M6.41393 2.41178C4.16991 2.41178 2.34181 4.23988 2.34181 6.48391C2.34181 8.72793 4.16991 10.556 6.41393 10.556C8.65796 10.556 10.4861 8.72793 10.4861 6.48391C10.4861 4.23988 8.65796 2.41178 6.41393 2.41178ZM6.41393 9.65037C4.66634 9.65037 3.24747 8.22814 3.24747 6.48391C3.24747 4.73967 4.6697 3.31744 6.41393 3.31744C8.15817 3.31744 9.58039 4.73967 9.58039 6.48391C9.58039 8.22814 8.16152 9.65037 6.41393 9.65037Z" fill="#F45353"/>
</svg>
