<svg width="11" height="12" viewBox="0 0 11 12" fill="none" xmlns="http://www.w3.org/2000/svg">
<path d="M7.31689 9.38462V9.80769C7.31689 10.2565 7.12549 10.687 6.78481 11.0043C6.44412 11.3217 5.98205 11.5 5.50025 11.5C5.01844 11.5 4.55637 11.3217 4.21569 11.0043C3.875 10.687 3.68361 10.2565 3.68361 9.80769V9.38462M10.3734 8.52339C9.64446 7.69231 9.12984 7.26923 9.12984 4.97801C9.12984 2.87981 7.97968 2.13228 7.03304 1.76923C6.90729 1.72111 6.78893 1.61058 6.75061 1.49026C6.58456 0.963798 6.11904 0.5 5.50025 0.5C4.88145 0.5 4.41566 0.964063 4.25131 1.49079C4.21299 1.61243 4.09462 1.72111 3.96888 1.76923C3.0211 2.13281 1.87207 2.87769 1.87207 4.97801C1.87065 7.26923 1.35603 7.69231 0.627107 8.52339C0.325091 8.86767 0.589639 9.38462 1.11788 9.38462H9.88545C10.4109 9.38462 10.6737 8.86608 10.3734 8.52339Z" stroke="white" stroke-linecap="round" stroke-linejoin="round"/>
</svg>
