<svg width="40" height="40" viewBox="0 0 40 40" fill="none" xmlns="http://www.w3.org/2000/svg">
<rect opacity="0.1" width="40" height="40" rx="20" fill="#518CFF"/>
<path d="M25.469 21.5376C25.1198 21.1756 24.6986 20.9821 24.2521 20.9821C23.8093 20.9821 23.3845 21.172 23.0208 21.5341L21.8831 22.6631C21.7895 22.6129 21.6959 22.5663 21.6059 22.5197C21.4763 22.4552 21.3539 22.3943 21.2495 22.3297C20.1838 21.6559 19.2153 20.7778 18.2865 19.6416C17.8364 19.0753 17.534 18.5986 17.3144 18.1147C17.6096 17.8459 17.8832 17.5663 18.1497 17.2975C18.2505 17.1971 18.3513 17.0932 18.4521 16.9928C19.2081 16.2401 19.2081 15.2652 18.4521 14.5125L17.4692 13.5341C17.3576 13.4229 17.2424 13.3082 17.1344 13.1935C16.9184 12.9713 16.6916 12.7419 16.4575 12.5269C16.1083 12.1828 15.6907 12 15.2515 12C14.8122 12 14.3874 12.1828 14.0274 12.5269C14.0238 12.5305 14.0238 12.5305 14.0202 12.5341L12.7961 13.7634C12.3352 14.2222 12.0724 14.7814 12.0148 15.4301C11.9284 16.4767 12.238 17.4516 12.4756 18.0896C13.0589 19.6559 13.9302 21.1075 15.2299 22.6631C16.8068 24.5376 18.7041 26.0179 20.8715 27.0609C21.6995 27.4516 22.8048 27.914 24.0397 27.9928C24.1153 27.9964 24.1945 28 24.2665 28C25.0982 28 25.7966 27.7025 26.3439 27.1111C26.3475 27.1039 26.3547 27.1004 26.3583 27.0932C26.5455 26.8674 26.7615 26.6631 26.9883 26.4444C27.1431 26.2975 27.3015 26.1434 27.4564 25.9821C27.8128 25.6129 28 25.1828 28 24.7419C28 24.2975 27.8092 23.871 27.4456 23.5125L25.469 21.5376ZM26.7579 25.3118C26.7543 25.3118 26.7543 25.3154 26.7579 25.3118C26.6175 25.4624 26.4735 25.5986 26.3187 25.7491C26.0847 25.9713 25.847 26.2043 25.6238 26.466C25.2602 26.853 24.8318 27.0358 24.2701 27.0358C24.2161 27.0358 24.1585 27.0358 24.1045 27.0323C23.0352 26.9642 22.0416 26.5484 21.2963 26.1935C19.2586 25.2115 17.4692 23.8172 15.9823 22.0502C14.7546 20.5771 13.9338 19.2151 13.3901 17.7527C13.0553 16.8602 12.9329 16.1649 12.9869 15.509C13.0229 15.0896 13.1849 14.7419 13.4837 14.4444L14.7114 13.2222C14.8878 13.0573 15.075 12.9677 15.2587 12.9677C15.4855 12.9677 15.6691 13.1039 15.7843 13.2186C15.7879 13.2222 15.7915 13.2258 15.7951 13.2294C16.0147 13.4337 16.2235 13.6452 16.4431 13.871C16.5548 13.9857 16.67 14.1004 16.7852 14.2186L17.768 15.1971C18.1497 15.5771 18.1497 15.9283 17.768 16.3082C17.6636 16.4122 17.5628 16.5161 17.4584 16.6165C17.156 16.9247 16.868 17.2115 16.5548 17.491C16.5476 17.4982 16.5404 17.5018 16.5367 17.509C16.2271 17.8172 16.2847 18.1183 16.3495 18.3226C16.3531 18.3333 16.3567 18.3441 16.3603 18.3548C16.616 18.9713 16.976 19.552 17.5232 20.2437L17.5268 20.2473C18.5205 21.466 19.5682 22.4158 20.7239 23.1434C20.8715 23.2366 21.0227 23.3118 21.1667 23.3835C21.2963 23.448 21.4187 23.509 21.5231 23.5735C21.5375 23.5806 21.5519 23.5914 21.5663 23.5986C21.6887 23.6595 21.8039 23.6882 21.9227 23.6882C22.2216 23.6882 22.4088 23.5018 22.47 23.4409L23.7013 22.2151C23.8237 22.0932 24.0181 21.9462 24.2449 21.9462C24.4681 21.9462 24.6518 22.086 24.7634 22.2079C24.767 22.2115 24.767 22.2115 24.7706 22.2151L26.7543 24.19C27.1251 24.5556 27.1251 24.9319 26.7579 25.3118Z" fill="#518CFF"/>
</svg>
