<svg width="40" height="40" viewBox="0 0 40 40" fill="none" xmlns="http://www.w3.org/2000/svg">
<path d="M29.1642 16.6952L28.2033 22.3438L20.0002 14.1406L11.797 22.3438L10.8362 16.6952L17.6564 9.875L16.4845 0H23.5158L22.3439 9.875L29.1642 16.6952Z" fill="#E65151"/>
<path d="M29.164 16.6952L28.2031 22.3438L20 14.1406V0H23.5156L22.3438 9.875L29.164 16.6952Z" fill="#BF3F26"/>
<path d="M28.0017 40C25.5275 40 23.5156 37.9881 23.5156 35.5139L23.5408 19.7573L25.3627 11.1662C25.7678 8.81344 27.79 7.10938 30.1795 7.10938C36.5081 7.10938 40 22.6539 40 29.0099C40 36.777 29.7012 40 28.0017 40Z" fill="#E65151"/>
<path d="M11.9983 40C10.2988 40 0 36.777 0 29.0099C0 22.6539 3.49188 7.10938 9.82047 7.10938C12.21 7.10938 14.2322 8.81344 14.6373 11.1663L16.4844 20V35.5139C16.4844 37.9881 14.4725 40 11.9983 40Z" fill="#FF6680"/>
<path d="M8.28125 14.1406H10.625V16.4844H8.28125V14.1406Z" fill="#E65151"/>
<path d="M29.375 14.1406H31.7188V16.4844H29.375V14.1406Z" fill="#BF3F26"/>
<path d="M9.45312 21.1719H11.7969V23.5156H9.45312V21.1719Z" fill="#E65151"/>
<path d="M28.2031 21.1719H30.5469V23.5156H28.2031V21.1719Z" fill="#BF3F26"/>
<path d="M9.45312 30.5469H11.7969V32.8906H9.45312V30.5469Z" fill="#E65151"/>
<path d="M28.2031 30.5469H30.5469V32.8906H28.2031V30.5469Z" fill="#BF3F26"/>
<path d="M4.76562 25.8594H7.10938V28.2031H4.76562V25.8594Z" fill="#E65151"/>
<path d="M32.8906 25.8594H35.2344V28.2031H32.8906V25.8594Z" fill="#BF3F26"/>
</svg>
