<svg width="19" height="19" viewBox="0 0 19 19" fill="none" xmlns="http://www.w3.org/2000/svg">
<path d="M18.8373 0.158763C18.6794 0.000780093 18.4363 -0.0437792 18.2338 0.0453394L0.329037 7.89183C0.138647 7.97689 0.0130707 8.15918 0.000918132 8.36578C-0.0112344 8.57237 0.0981384 8.76681 0.276376 8.86808L6.51873 12.4085L10.2253 18.7157C10.3225 18.8818 10.5048 18.9871 10.6951 18.9871C10.7073 18.9871 10.7154 18.9871 10.7276 18.9871C10.9341 18.9749 11.1124 18.8494 11.1975 18.659L18.9548 0.762339C19.0439 0.555746 18.9994 0.316746 18.8373 0.158763ZM15.9896 2.22064L6.82659 11.3229L1.76709 8.45489L15.9896 2.22064ZM10.6222 17.2331L7.60435 12.0926L16.82 2.93764L10.6222 17.2331Z" fill="white"/>
</svg>
