<svg width="12" height="10" viewBox="0 0 12 10" fill="none" xmlns="http://www.w3.org/2000/svg">
<path d="M11.8228 2.70412C11.7736 2.67705 10.6221 2.07915 8.70289 1.71745L8.62907 1.4025C8.43715 0.578224 7.71129 0 6.86241 0H5.13758C4.29116 0 3.5653 0.575764 3.37092 1.4025L3.29711 1.71745C1.3779 2.07669 0.226369 2.67705 0.177158 2.70412C0.0688948 2.76071 0 2.8739 0 2.99692V6.90916C0 8.47652 1.27455 9.75353 2.84437 9.75353C3.02891 9.75353 3.17654 9.6059 3.17654 9.42136C3.17654 9.23682 3.02891 9.08919 2.84437 9.08919C1.64363 9.08919 0.664343 8.11236 0.664343 6.90916V3.20607C1.06295 3.02399 2.11605 2.5934 3.62928 2.33258C3.75969 2.31044 3.86549 2.20955 3.89502 2.08161L4.01804 1.55259C4.14107 1.03096 4.59873 0.664343 5.13758 0.664343H6.86241C7.39881 0.664343 7.85893 1.0285 7.98195 1.55259L8.10498 2.08161C8.13451 2.21201 8.24031 2.31044 8.37072 2.33258C9.87902 2.5934 10.9346 3.02399 11.3357 3.20607V6.90916C11.3357 8.1099 10.3588 9.08919 9.15562 9.08919C8.97109 9.08919 8.82345 9.23682 8.82345 9.42136C8.82345 9.6059 8.97109 9.75353 9.15562 9.75353C10.723 9.75353 12 8.47898 12 6.90916V2.99692C12 2.8739 11.9336 2.76071 11.8228 2.70412Z" fill="#001133"/>
<path d="M1.08707 2.02505C1.12151 2.02505 1.15596 2.02013 1.19041 2.00783C1.5398 1.89219 1.90642 1.78884 2.28042 1.70026C2.46004 1.65844 2.5683 1.47882 2.52648 1.30166C2.48465 1.12204 2.30503 1.01378 2.12787 1.05561C1.73665 1.14911 1.35034 1.25737 0.981265 1.37794C0.806567 1.43453 0.713067 1.62399 0.769659 1.79623C0.81887 1.93648 0.949278 2.02505 1.08707 2.02505Z" fill="#001133"/>
<path d="M6.00024 2.29573C3.89157 2.29573 2.17658 4.01071 2.17658 6.11939C2.17658 8.22806 3.89157 9.94551 6.00024 9.94551C8.10892 9.94551 9.8239 8.23052 9.8239 6.12185C9.8239 4.01317 8.10892 2.29573 6.00024 2.29573ZM6.00024 9.28116C4.25819 9.28116 2.84093 7.8639 2.84093 6.12185C2.84093 4.37979 4.25819 2.96007 6.00024 2.96007C7.7423 2.96007 9.15956 4.37733 9.15956 6.11939C9.15956 7.86144 7.7423 9.28116 6.00024 9.28116Z" fill="#001133"/>
</svg>
