<svg width="40" height="40" viewBox="0 0 40 40" fill="none" xmlns="http://www.w3.org/2000/svg">
<path d="M38.9868 20.246C39.6667 20.3826 40.1095 21.0548 39.9764 21.7476L39.4804 24.3247C39.3433 25.0381 38.6497 25.4956 37.9497 25.3203C37.294 25.1566 36.8964 24.4728 37.0262 23.7973L37.0399 23.7282L33.7704 23.8804C33.672 23.8845 33.5865 23.9512 33.5559 24.0474C33.2365 25.0315 32.8163 25.9695 32.3074 26.8467C32.2558 26.9355 32.2639 27.0483 32.3292 27.1273L33.7752 28.8799C34.0624 28.6009 34.4374 28.4561 34.8164 28.4561C35.1358 28.4561 35.4584 28.559 35.7318 28.7729C36.3939 29.2896 36.5197 30.2564 36.0133 30.9328L35.5939 31.4915C35.1019 32.1481 34.1849 32.3242 33.5172 31.8544C32.9421 31.4504 32.7341 30.7238 32.9421 30.0927L30.859 29.1588C30.7646 29.1168 30.6557 29.1415 30.5872 29.2189C29.6226 30.2992 28.5 31.229 27.2564 31.9712C27.1709 32.0222 27.1249 32.1209 27.141 32.2205L27.6741 35.5381L28.1354 35.3497C28.7976 35.0798 29.5508 35.4254 29.7871 36.1207C30.0081 36.7715 29.6613 37.4833 29.0347 37.7383L26.6773 38.701C26.016 38.9709 25.2627 38.6253 25.0264 37.9301C24.8054 37.2792 25.1522 36.5675 25.7789 36.3116L25.8426 36.2861L23.9409 33.5675C23.8836 33.4852 23.7828 33.449 23.6868 33.4745C22.5505 33.7748 21.3585 33.9361 20.1294 33.9361C19.1567 33.9361 18.2083 33.8349 17.2913 33.644C17.1945 33.6242 17.0953 33.6662 17.0421 33.751L15.1396 36.7962L15.2065 36.8209C15.8259 37.0513 16.2098 37.6478 16.2098 38.2831C16.2098 38.4608 16.18 38.641 16.1171 38.8171C16.1171 39.7279 15.4307 40.2183 14.592 39.9057L12.2539 39.0359C11.4716 38.7455 11.0636 37.8692 11.3337 37.0686C11.6112 36.2433 12.533 35.8269 13.3363 36.1256L13.3903 36.1454L13.7774 32.5768C13.7887 32.4764 13.7371 32.381 13.6492 32.3341C12.1685 31.554 10.8402 30.5148 9.72155 29.2748C9.6538 29.1999 9.54815 29.1753 9.45621 29.2139L6.60284 30.4078C6.92543 31.0233 6.74397 31.8033 6.15523 32.1983C5.54068 32.6105 4.7108 32.4188 4.29142 31.8033L3.56074 30.7296C3.15184 30.1297 3.24701 29.2937 3.80994 28.8412C4.40998 28.359 5.26567 28.4841 5.71488 29.0905L7.72467 26.7734C7.79161 26.6961 7.8029 26.5842 7.7537 26.4945C6.92866 24.9772 6.36411 23.2921 6.12136 21.5024C6.10765 21.4021 6.03587 21.3206 5.9399 21.2984L2.72844 20.5414L2.72521 20.9257C2.72198 21.3099 2.56714 21.658 2.31793 21.9089C2.06953 22.1607 1.72758 22.3154 1.35014 22.3154C0.600096 22.3154 -0.00719406 21.6909 6.43948e-05 20.9257L0.0210333 18.5452C0.0274852 17.7668 0.658164 17.1111 1.4203 17.1316C2.15986 17.1514 2.75021 17.7718 2.74618 18.5288L5.93425 17.766C6.03103 17.743 6.10281 17.6615 6.11571 17.5611C6.36573 15.6687 6.97624 13.8922 7.87387 12.3058C7.92387 12.2169 7.915 12.1058 7.84968 12.0268L6.32943 10.2051L6.19717 10.3828C5.78747 10.9358 5.00517 11.0321 4.47692 10.5836C3.98173 10.1623 3.92124 9.40698 4.30997 8.88285L5.32293 7.51697C5.55842 7.20018 5.9157 7.03315 6.27782 7.03315C6.52864 7.03315 6.78188 7.11378 6.99802 7.27999C7.49885 7.6659 7.6166 8.37517 7.28594 8.90671L9.41186 9.84473C9.50541 9.88587 9.61348 9.86118 9.68284 9.78466C10.6861 8.66233 11.8612 7.70292 13.1661 6.9484C13.2516 6.8982 13.2992 6.80029 13.2846 6.70073L12.7951 3.37571L12.3306 3.55838C11.666 3.81921 10.9168 3.46293 10.6901 2.76518C10.4772 2.11103 10.8337 1.40423 11.4636 1.15738L13.8331 0.227597C14.4984 -0.0332367 15.2468 0.322222 15.4735 1.0208C15.6864 1.67412 15.3307 2.38092 14.7 2.62859L14.6363 2.65327L16.5009 5.39656C16.5574 5.47966 16.6574 5.51751 16.7534 5.49365C17.8357 5.22294 18.9656 5.07977 20.1294 5.07977H20.131C20.2326 5.07977 20.3237 5.01641 20.3576 4.9185L20.9754 3.15602C20.26 2.92727 19.7834 2.2073 19.8745 1.42233C19.9785 0.532864 20.8133 -0.0990623 21.6851 0.0128413L22.5335 0.121454C23.3981 0.232534 24.0465 1.02244 23.9521 1.90697C23.8779 2.59568 23.3924 3.13215 22.7763 3.29672L22.9908 5.20731C23.0021 5.31016 23.0771 5.39409 23.1771 5.4163C24.6111 5.73803 25.9635 6.28191 27.1975 7.01011C27.2838 7.0603 27.3902 7.0529 27.4668 6.98872L30.0259 4.86995L29.6371 4.55481C29.0782 4.10226 28.9992 3.26381 29.4734 2.71005C29.917 2.19085 30.6952 2.14477 31.2235 2.57346L33.2115 4.18372C33.7704 4.63545 33.8494 5.47472 33.3752 6.02848C32.9317 6.54686 32.1534 6.59294 31.6251 6.16507L31.5711 6.12146L30.2009 9.15685C30.1589 9.24818 30.1783 9.35597 30.2476 9.42838C31.2122 10.4363 32.0332 11.5883 32.6768 12.8488C32.7236 12.9402 32.8212 12.992 32.9212 12.978L34.864 12.7007C34.5785 11.8878 35.0019 10.9868 35.8165 10.7144C36.5931 10.4544 37.4303 10.8946 37.7158 11.6763L38.1634 12.9007C38.4457 13.675 38.1069 14.5611 37.365 14.8903C36.6536 15.2054 35.8512 14.9207 35.4689 14.2773L33.8567 15.393C33.772 15.4514 33.7341 15.5584 33.7615 15.6588C34.093 16.8848 34.2704 18.175 34.2704 19.5079C34.2704 19.7309 34.2656 19.9523 34.2551 20.1719C34.2511 20.2732 34.3067 20.3661 34.3971 20.4065L37.4198 21.7534L37.515 21.2556C37.6488 20.562 38.3077 20.1102 38.9868 20.246Z" fill="#F79595"/>
<path d="M26.2702 14.1082C27.3729 14.1082 28.2668 13.3456 28.2668 12.405C28.2668 11.4644 27.3729 10.7018 26.2702 10.7018C25.1676 10.7018 24.2737 11.4644 24.2737 12.405C24.2737 13.3456 25.1676 14.1082 26.2702 14.1082Z" fill="#EE6161"/>
<path d="M19.0652 25.2374C20.2705 25.2374 21.2475 24.2406 21.2475 23.011C21.2475 21.7813 20.2705 20.7845 19.0652 20.7845C17.86 20.7845 16.8829 21.7813 16.8829 23.011C16.8829 24.2406 17.86 25.2374 19.0652 25.2374Z" fill="#EE6161"/>
<path d="M27.5695 23.4452C28.4325 23.4452 29.132 22.7315 29.132 21.8511C29.132 20.9707 28.4325 20.257 27.5695 20.257C26.7066 20.257 26.007 20.9707 26.007 21.8511C26.007 22.7315 26.7066 23.4452 27.5695 23.4452Z" fill="#F9B1B1"/>
<path d="M21.7999 31.1803C22.6389 31.1803 23.319 30.4864 23.319 29.6304C23.319 28.7745 22.6389 28.0806 21.7999 28.0806C20.9609 28.0806 20.2808 28.7745 20.2808 29.6304C20.2808 30.4864 20.9609 31.1803 21.7999 31.1803Z" fill="#F9B1B1"/>
<path d="M11.5292 18.8166C11.5292 13.2702 14.1227 8.34057 18.1381 5.22134C17.6693 5.28881 17.2065 5.37998 16.7534 5.49336C16.6574 5.51722 16.5574 5.47937 16.5009 5.39627L14.6363 2.65298L14.7 2.6283C15.3307 2.38063 15.6864 1.67383 15.4735 1.02051C15.2468 0.321933 14.4984 -0.0335256 13.8331 0.227309L11.4636 1.1571C10.8337 1.40394 10.4772 2.11075 10.6902 2.76489C10.9168 3.46264 11.666 3.81892 12.3306 3.55809L12.7951 3.37542L13.2846 6.70044C13.2992 6.8 13.2516 6.89792 13.1661 6.94811C11.8612 7.70263 10.6861 8.66204 9.68284 9.78437C9.61348 9.86089 9.50541 9.88558 9.41186 9.84444L7.28594 8.90642C7.6166 8.37488 7.49885 7.66561 6.99802 7.27971C6.78188 7.11349 6.52864 7.03286 6.27782 7.03286C5.9157 7.03286 5.55843 7.19989 5.32293 7.51668L4.30997 8.88256C3.92124 9.4067 3.98173 10.162 4.47692 10.5833C5.00517 11.0318 5.78747 10.9355 6.19717 10.3826L6.32943 10.2048L7.84968 12.0266C7.915 12.1055 7.92387 12.2166 7.87387 12.3055C6.97624 13.8919 6.36573 15.6684 6.11571 17.5608C6.10281 17.6612 6.03103 17.7427 5.93425 17.7657L2.74618 18.5285C2.75021 17.7715 2.15986 17.1511 1.4203 17.1313C0.658164 17.1108 0.0274852 17.7666 0.0210333 18.5449L6.43948e-05 20.9254C-0.00719406 21.6906 0.600096 22.3151 1.35014 22.3151C1.72758 22.3151 2.06953 22.1604 2.31793 21.9086C2.56714 21.6577 2.72198 21.3096 2.72521 20.9254L2.72844 20.5411L5.9399 21.2981C6.03587 21.3203 6.10765 21.4018 6.12136 21.5022C6.36411 23.2918 6.92866 24.9769 7.7537 26.4942C7.8029 26.5839 7.79161 26.6958 7.72467 26.7731L5.71489 29.0902C5.26567 28.4838 4.40998 28.3587 3.80994 28.8409C3.24701 29.2934 3.15185 30.1294 3.56074 30.7293L4.29142 31.8031C4.7108 32.4185 5.54068 32.6102 6.15523 32.198C6.74397 31.8031 6.92543 31.023 6.60284 30.4075L9.45621 29.2136C9.54815 29.175 9.6538 29.1996 9.72155 29.2745C10.8402 30.5145 12.1685 31.5537 13.6492 32.3338C13.7371 32.3807 13.7887 32.4761 13.7774 32.5765L13.3903 36.1451L13.3363 36.1253C12.533 35.8266 11.6112 36.243 11.3337 37.0683C11.0636 37.8689 11.4716 38.7452 12.2539 39.0356L14.592 39.9054C15.4307 40.218 16.1171 39.7276 16.1171 38.8168C16.18 38.6407 16.2098 38.4605 16.2098 38.2828C16.2098 37.6475 15.8259 37.051 15.2065 36.8206L15.1396 36.7959L17.0421 33.7507C17.0953 33.6659 17.1945 33.624 17.2913 33.6437C18.2083 33.8346 19.1567 33.9358 20.1294 33.9358C20.2438 33.9358 20.3601 33.9343 20.4739 33.9316C15.1569 31.0711 11.5292 25.3755 11.5292 18.8166Z" fill="#F37C7C"/>
<path d="M12.2942 27.5379C13.1682 27.5379 13.8767 26.8151 13.8767 25.9234C13.8767 25.0317 13.1682 24.3088 12.2942 24.3088C11.4202 24.3088 10.7117 25.0317 10.7117 25.9234C10.7117 26.8151 11.4202 27.5379 12.2942 27.5379Z" fill="#EE6161"/>
<path d="M24.0064 18.817H23.4717C23.1376 18.817 22.8668 18.5407 22.8668 18.1999C22.8668 17.8591 23.1376 17.5828 23.4717 17.5828H24.0064C24.3405 17.5828 24.6113 17.8591 24.6113 18.1999C24.6113 18.5407 24.3405 18.817 24.0064 18.817Z" fill="#F9B1B1"/>
<path d="M16.8819 29.6042H16.3325C15.9983 29.6042 15.7276 29.3279 15.7276 28.987C15.7276 28.6462 15.9983 28.3699 16.3325 28.3699H16.8819C17.216 28.3699 17.4867 28.6462 17.4867 28.987C17.4867 29.3279 17.216 29.6042 16.8819 29.6042Z" fill="#F9B1B1"/>
<path d="M11.24 20.6172H10.7108C10.3767 20.6172 10.106 20.3409 10.106 20.0001C10.106 19.6592 10.3767 19.3829 10.7108 19.3829H11.24C11.5742 19.3829 11.8449 19.6592 11.8449 20.0001C11.8449 20.3409 11.5742 20.6172 11.24 20.6172Z" fill="#EE6161"/>
<path d="M21.9842 9.82005H21.2478C20.9136 9.82005 20.6429 9.54374 20.6429 9.20293C20.6429 8.86212 20.9136 8.58582 21.2478 8.58582H21.9842C22.3184 8.58582 22.5891 8.86212 22.5891 9.20293C22.5891 9.54374 22.3184 9.82005 21.9842 9.82005Z" fill="#F9B1B1"/>
<path d="M26.8213 27.5948H26.0081C25.6739 27.5948 25.4032 27.3185 25.4032 26.9777C25.4032 26.6368 25.6739 26.3605 26.0081 26.3605H26.8213C27.1555 26.3605 27.4262 26.6368 27.4262 26.9777C27.4262 27.3185 27.1554 27.5948 26.8213 27.5948Z" fill="#EE6161"/>
<path d="M17.5959 16.8899C19.402 15.437 19.9019 13.0116 18.7126 11.4727C17.5232 9.93377 15.0948 9.86413 13.2888 11.3171C11.4827 12.7701 10.9827 15.1955 12.1721 16.7344C13.3615 18.2733 15.7898 18.3429 17.5959 16.8899Z" fill="#EE6161"/>
</svg>
