<svg width="10" height="18" viewBox="0 0 10 18" fill="none" xmlns="http://www.w3.org/2000/svg">
<path d="M4.8169 18C5.37696 18 5.83099 17.546 5.83099 16.9859C5.83099 16.4259 5.37696 15.9718 4.8169 15.9718C4.25684 15.9718 3.80282 16.4259 3.80282 16.9859C3.80282 17.546 4.25684 18 4.8169 18Z" fill="white"/>
<path d="M0.760563 4.33049C0.760563 4.33049 0.821408 2.85811 2.17775 1.67753C2.9831 0.97659 3.95028 0.77358 4.8169 0.761087C5.60831 0.750825 6.31563 0.892263 6.73859 1.11C7.46155 1.48389 8.87324 2.39409 8.87324 4.33049C8.87324 6.36817 7.64028 7.29176 6.23873 8.30948C4.83718 9.32721 4.8169 11.7856 4.8169 12.9296" stroke="white" stroke-width="1.5" stroke-miterlimit="10" stroke-linecap="round"/>
</svg>
