<svg width="30" height="38" viewBox="0 0 30 38" fill="none" xmlns="http://www.w3.org/2000/svg">
<path d="M8.89888 34.4659C8.53819 34.4615 8.17901 34.4183 7.82756 34.3371C7.16674 34.1836 6.52533 33.9561 5.91544 33.659C5.80236 33.6036 5.70693 33.5178 5.63987 33.4112C5.5728 33.3046 5.53674 33.1815 5.53573 33.0556V25.597C5.53573 25.4171 5.60717 25.2447 5.73433 25.1175C5.86149 24.9903 6.03396 24.9189 6.21379 24.9189C6.39362 24.9189 6.56608 24.9903 6.69324 25.1175C6.8204 25.2447 6.89184 25.4171 6.89184 25.597V32.6148C7.79366 32.9945 9.21757 33.381 9.66508 32.8589V30.5739C9.66508 30.394 9.73652 30.2216 9.86368 30.0944C9.99084 29.9673 10.1633 29.8958 10.3431 29.8958C10.523 29.8958 10.6954 29.9673 10.8226 30.0944C10.9498 30.2216 11.0212 30.394 11.0212 30.5739V33.0556C11.0227 33.1612 10.9994 33.2656 10.9534 33.3607C10.7584 33.7272 10.4592 34.0278 10.0935 34.2245C9.7279 34.4212 9.31221 34.5052 8.89888 34.4659Z" fill="white"/>
<path d="M18.4866 37.9645C18.1671 37.9705 17.8488 37.9247 17.5441 37.8289C14.8318 36.9203 6.55281 27.8004 1.48774 19.3587C0.00958131 16.9041 -0.370129 14.5309 0.36217 12.3137C1.71828 8.13007 6.55959 6.08235 6.763 5.9942H6.81047C10.933 4.60419 14.3233 7.89953 15.6794 10.0896C17.9373 10.2117 29.1863 11.378 29.1863 22.2946C29.1863 30.8042 24.8399 34.8522 22.9685 36.2015C21.6835 37.2225 20.1228 37.8364 18.4866 37.9645ZM7.26476 7.25538C6.93252 7.40455 2.78282 9.28954 1.64369 12.7476C1.047 14.5716 1.38603 16.5583 2.64721 18.6603C7.74618 27.1631 15.8082 35.8218 17.9712 36.5406C18.5883 36.744 20.2088 36.5406 22.1684 35.1166C23.8703 33.8961 27.8234 30.194 27.8234 22.315C27.8234 11.5542 15.7947 11.4661 15.2794 11.4661C15.1604 11.4647 15.0438 11.432 14.9415 11.3713C14.8391 11.3106 14.7545 11.224 14.6962 11.1203C14.5674 10.8762 11.6111 5.83147 7.26476 7.25538Z" fill="white"/>
<path d="M11.5433 7.73692H11.4823C11.3047 7.72136 11.1404 7.63651 11.0249 7.50073C10.9094 7.36495 10.8521 7.18916 10.8652 7.0114C10.8652 6.7673 11.3941 1.09877 15.9778 0.183394C20.3105 -0.684515 24.5416 1.80394 24.7179 1.91243C24.8075 1.94937 24.8882 2.0051 24.9544 2.07586C25.0207 2.14661 25.071 2.23075 25.102 2.3226C25.133 2.41445 25.1439 2.51187 25.134 2.60831C25.1242 2.70474 25.0937 2.79793 25.0448 2.88161C24.9959 2.96529 24.9296 3.0375 24.8504 3.09338C24.7711 3.14926 24.6809 3.1875 24.5856 3.20554C24.4904 3.22357 24.3924 3.22097 24.2982 3.19792C24.2041 3.17487 24.116 3.1319 24.0398 3.07191C23.9991 3.07191 20.0732 0.746179 16.2625 1.5056C12.6756 2.22434 12.2417 7.06565 12.2349 7.11311C12.2211 7.28575 12.1418 7.44655 12.0131 7.56255C11.8845 7.67855 11.7164 7.74093 11.5433 7.73692Z" fill="white"/>
<path d="M15.9032 11.4595C15.8095 11.4581 15.7172 11.4373 15.6319 11.3985C15.5504 11.3624 15.4768 11.3107 15.4153 11.2462C15.3538 11.1817 15.3056 11.1057 15.2735 11.0226C15.2414 10.9395 15.226 10.8509 15.2281 10.7618C15.2303 10.6727 15.25 10.5849 15.2861 10.5034L17.0355 6.52324L16.2625 0.936074C16.2374 0.756243 16.2846 0.573776 16.394 0.428814C16.5034 0.283851 16.6658 0.188268 16.8457 0.163092C17.0255 0.137916 17.208 0.185208 17.3529 0.294566C17.4979 0.403923 17.5935 0.566388 17.6186 0.746219L18.4459 6.52324C18.4634 6.65018 18.4446 6.77949 18.3916 6.89617L16.5405 11.0526C16.4867 11.1761 16.3973 11.2807 16.2838 11.3532C16.1703 11.4256 16.0378 11.4626 15.9032 11.4595Z" fill="white"/>
<path d="M20.7987 12.4492C20.6942 12.4523 20.5903 12.4311 20.4953 12.3874C20.4003 12.3436 20.3167 12.2785 20.251 12.1971C20.1854 12.1157 20.1394 12.0202 20.1168 11.918C20.0942 11.8159 20.0955 11.71 20.1207 11.6084C21.3683 6.54336 26.8334 4.82788 28.6235 4.42105V3.00392C27.3284 2.88187 23.9992 3.76334 21.2802 4.78042C21.1934 4.8073 21.1021 4.81646 21.0116 4.80735C20.9212 4.79825 20.8336 4.77107 20.7539 4.72743C20.6742 4.68379 20.6041 4.62457 20.5477 4.55331C20.4914 4.48204 20.4499 4.40017 20.4258 4.31256L19.5782 1.10536C19.5558 1.01899 19.5507 0.929038 19.5631 0.840669C19.5755 0.752299 19.6052 0.667251 19.6506 0.590399C19.696 0.513547 19.756 0.446403 19.8274 0.392819C19.8988 0.339234 19.98 0.300263 20.0664 0.278138C20.1528 0.25572 20.2428 0.250572 20.3311 0.262989C20.4195 0.275407 20.5046 0.305146 20.5814 0.350501C20.6583 0.395856 20.7254 0.455936 20.779 0.527294C20.8326 0.598652 20.8715 0.679886 20.8937 0.766337L21.531 3.2548C23.4906 2.57674 28.0539 1.09858 29.627 1.89869C29.7399 1.95555 29.8346 2.04282 29.9005 2.15065C29.9664 2.25847 30.0008 2.38257 29.9999 2.50894V4.98383C30.0023 5.14537 29.9469 5.30243 29.8437 5.42675C29.7405 5.55106 29.5964 5.63444 29.4372 5.66189C29.3693 5.66189 22.7109 6.86883 21.4565 11.9542C21.4163 12.0975 21.3302 12.2235 21.2113 12.3129C21.0924 12.4024 20.9475 12.4503 20.7987 12.4492Z" fill="white"/>
<path d="M7.02065 7.30287C6.84082 7.30287 6.66836 7.23143 6.5412 7.10427C6.41404 6.97711 6.3426 6.80464 6.3426 6.62481V0.841009C6.3426 0.661178 6.41404 0.488712 6.5412 0.361553C6.66836 0.234393 6.84082 0.162955 7.02065 0.162955H12.8045C12.9843 0.162955 13.1568 0.234393 13.2839 0.361553C13.4111 0.488712 13.4825 0.661178 13.4825 0.841009V3.24132C13.4825 3.42115 13.4111 3.59362 13.2839 3.72078C13.1568 3.84794 12.9843 3.91938 12.8045 3.91938C12.6246 3.91938 12.4522 3.84794 12.325 3.72078C12.1978 3.59362 12.1264 3.42115 12.1264 3.24132V1.51906H7.69871V6.62481C7.69871 6.80464 7.62727 6.97711 7.50011 7.10427C7.37295 7.23143 7.20048 7.30287 7.02065 7.30287Z" fill="white"/>
<path d="M3.32521 21.6911C3.16269 21.6932 3.00482 21.6368 2.88036 21.5323C2.75591 21.4277 2.67315 21.282 2.64716 21.1215C2.64716 20.9791 2.18608 17.7313 6.76295 15.9005C10.377 14.4495 12.3637 9.11997 12.3637 8.23172C12.347 8.07359 12.3864 7.91462 12.475 7.7826C12.5636 7.65058 12.6958 7.55391 12.8485 7.50948C13.0012 7.46505 13.1646 7.47569 13.3103 7.53954C13.4559 7.60339 13.5744 7.71639 13.6452 7.85879C14.0249 8.90977 11.611 15.4123 7.24436 17.1617C3.7117 18.5788 3.9558 20.83 3.96936 20.9317C3.99318 21.1046 3.94938 21.2801 3.84708 21.4216C3.74477 21.563 3.59184 21.6596 3.42014 21.6911H3.32521Z" fill="white"/>
</svg>
