<svg width="40" height="44" viewBox="0 0 40 44" fill="none" xmlns="http://www.w3.org/2000/svg">
<path d="M20.0001 35.1258C25.0368 35.1258 29.4086 33.0302 31.5951 29.9586L27.3353 29.2691C26.2148 29.0877 25.4165 28.3566 25.4165 27.5119V21.4404H14.5837V27.5119C14.5837 28.3566 13.7854 29.0877 12.6648 29.2691L8.40503 29.9586C10.5915 33.0302 14.9634 35.1258 20.0001 35.1258Z" fill="#FAA68E"/>
<path d="M27.3354 29.2691C26.2149 29.0877 25.4166 28.3566 25.4166 27.5119V21.4404H19.9662V35.1253C19.9775 35.1253 19.9888 35.1258 20.0002 35.1258C25.0369 35.1258 29.4087 33.0302 31.5952 29.9586L27.3354 29.2691Z" fill="#FAA68E"/>
<path d="M8.37185 19.1593C10.8455 19.1593 12.8507 17.6829 12.8507 15.8616C12.8507 14.0404 10.8455 12.5639 8.37185 12.5639C5.89824 12.5639 3.89298 14.0404 3.89298 15.8616C3.89298 17.6829 5.89824 19.1593 8.37185 19.1593Z" fill="#FFBEAA"/>
<path d="M31.6276 19.1592C34.1012 19.1592 36.1065 17.6827 36.1065 15.8615C36.1065 14.0402 34.1012 12.5638 31.6276 12.5638C29.154 12.5638 27.1487 14.0402 27.1487 15.8615C27.1487 17.6827 29.154 19.1592 31.6276 19.1592Z" fill="#FAA68E"/>
<path d="M27.4298 24.8306C25.4605 25.8232 23.0779 26.4039 20.5111 26.4039H19.4888C16.9219 26.4039 14.5394 25.8232 12.57 24.8306L7.22651 17.1484V12.251C7.22651 7.2648 12.7165 3.22269 19.4888 3.22269H20.5111C27.2834 3.22269 32.7733 7.2648 32.7733 12.251V17.1484L27.4298 24.8306Z" fill="#FFBEAA"/>
<path d="M20.5113 3.22269H19.9662V26.4039H20.5113C23.0782 26.4039 25.4607 25.8232 27.4301 24.8306L32.7736 17.1484V12.251C32.7736 7.2648 27.2836 3.22269 20.5113 3.22269Z" fill="#FFBEAA"/>
<path d="M15.5828 9.808C15.5828 9.808 23.9157 15.55 34.4153 15.8612V9.83079C34.4153 4.40142 27.961 0 19.9993 0C12.0375 0 5.58327 4.40142 5.58327 9.83079V15.8612C5.58327 15.8612 10.4164 13.6721 15.5828 9.808Z" fill="#333940"/>
<path d="M34.4162 9.83079C34.4162 4.40142 27.9619 0 20.0002 0C19.9888 0 19.9775 0.000282325 19.9662 0.000282325V12.2227C23.4044 13.8338 28.5745 15.6879 34.4162 15.8612V9.83079Z" fill="#333940"/>
<path d="M19.9998 43.9995C27.531 43.9995 34.4683 42.1272 39.9998 38.9803L39.3963 33.9552C39.197 32.2964 37.5588 30.9247 35.3498 30.5672L28.9234 29.527C27.5255 32.1493 24.0572 34.0058 19.9998 34.0058C15.9425 34.0058 12.474 32.1493 11.0762 29.527L4.64987 30.5672C2.44086 30.9247 0.802623 32.2964 0.603502 33.9552L0 38.9803C5.53139 42.1272 12.4687 43.9995 19.9998 43.9995Z" fill="#7584F2"/>
<path d="M40 38.9804L39.3965 33.9553C39.1973 32.2966 37.559 30.9248 35.3501 30.5673L28.9238 29.5271C27.5258 32.1494 24.0575 34.0059 20.0002 34.0059C19.9888 34.0059 19.9775 34.0055 19.9662 34.0055V43.9994C19.9775 43.9994 19.9888 43.9997 20.0002 43.9997C27.5312 43.9996 34.4685 42.1273 40 38.9804Z" fill="#606AEA"/>
<path d="M19.9996 35.232C17.8052 35.232 15.6955 34.7464 13.8984 33.8276C12.1447 32.931 10.8067 31.6861 10.0291 30.2275C9.64215 29.5015 10.1277 28.6817 11.1139 28.3968C12.1002 28.112 13.2134 28.4694 13.6004 29.1956C14.6405 31.1465 17.1522 32.4072 19.9995 32.4072C22.8468 32.4072 25.3585 31.1465 26.3986 29.1956C26.7856 28.4694 27.8989 28.1119 28.8851 28.3968C29.8714 28.6818 30.357 29.5015 29.9699 30.2275C29.1923 31.6861 27.8544 32.931 26.1006 33.8276C24.3038 34.7464 22.1941 35.232 19.9996 35.232Z" fill="white"/>
<path d="M28.8858 28.3968C27.8995 28.1119 26.7863 28.4694 26.3993 29.1956C25.3592 31.1465 22.8475 32.4072 20.0002 32.4072C19.9888 32.4072 19.9775 32.4067 19.9662 32.4067V35.2315C19.9775 35.2315 19.9888 35.232 20.0002 35.232C22.1946 35.232 24.3044 34.7464 26.1014 33.8276C27.8552 32.931 29.1931 31.6861 29.9707 30.2275C30.3577 29.5015 29.8721 28.6818 28.8858 28.3968Z" fill="#E9EDF5"/>
<path d="M10.0838 16.6022C9.04635 16.6022 8.07197 16.8005 7.22651 17.1485V17.3756C7.22651 20.472 9.34356 23.2043 12.57 24.8306C14.5656 24.1418 15.9475 22.6495 15.9475 20.9195C15.9475 18.5351 13.3223 16.6022 10.0838 16.6022Z" fill="#FE6A16"/>
<path d="M32.7728 17.1485C31.9275 16.8005 30.953 16.6022 29.9155 16.6022C26.677 16.6022 24.0518 18.5351 24.0518 20.9195C24.0518 22.6495 25.4337 24.1418 27.4293 24.8306C30.6557 23.2043 32.7728 20.472 32.7728 17.3756V17.1485Z" fill="#F24500"/>
</svg>
