<svg width="12" height="17" viewBox="0 0 12 17" fill="none" xmlns="http://www.w3.org/2000/svg">
<path d="M6 0C2.69158 0 0 2.81575 0 6.27678C0 8.22337 0.962789 10.4842 2.86164 12.9965C4.25108 14.8348 5.62051 16.1052 5.67813 16.1584C5.86202 16.3281 6.13795 16.3282 6.32187 16.1584C6.37949 16.1052 7.74892 14.8348 9.13836 12.9965C11.0372 10.4842 12 8.22337 12 6.27678C12 2.81575 9.30842 0 6 0V0ZM6 15.0825C4.84383 13.9298 0.972975 9.8063 0.972975 6.27678C0.972975 3.377 3.22809 1.01786 6 1.01786C8.77191 1.01786 11.027 3.377 11.027 6.27678C11.027 9.8063 7.15611 13.9299 6 15.0825Z" fill="#0AD4E4"/>
<path d="M9.72193 5.97511L6.31652 2.92154C6.13433 2.75817 5.86552 2.75817 5.68333 2.92154L2.27792 5.97511C2.07393 6.15801 2.0503 6.47933 2.22517 6.69273C2.40003 6.90613 2.70715 6.93085 2.91114 6.74792L3.32423 6.37748V8.90616C3.32423 9.18722 3.54206 9.41509 3.81072 9.41509H8.18911C8.45777 9.41509 8.67559 9.18722 8.67559 8.90616V6.37748L9.08871 6.74792C9.29361 6.93167 9.60062 6.90518 9.77469 6.69273C9.94955 6.47933 9.92593 6.15804 9.72193 5.97511ZM7.70262 8.39723H4.29721V5.50502L5.99991 3.97823L7.70262 5.50502V8.39723Z" fill="#0AD4E4"/>
</svg>
