<svg width="17" height="13" viewBox="0 0 17 13" fill="none" xmlns="http://www.w3.org/2000/svg">
<path d="M9.80116 0C8.6389 0 7.50092 0.30878 6.50519 0.895115C5.61702 1.419 4.86415 2.14758 4.31251 3.01494H1.82839C0.818787 3.01494 0 3.83373 0 4.84333V8.15665C0 9.16625 0.818787 9.98504 1.82839 9.98504H4.31251C4.86415 10.8524 5.61702 11.581 6.50519 12.1049C7.50092 12.6912 8.6389 13 9.80116 13C10.0614 13 10.2695 12.7918 10.2695 12.5316V0.468374C10.2695 0.211636 10.0614 0 9.80116 0ZM4.10781 9.04829H1.82839C1.33573 9.04829 0.936748 8.64931 0.936748 8.15665V4.84333C0.936748 4.35067 1.33573 3.95169 1.82839 3.95169H4.10781V9.04829ZM9.33279 12.0459C7.57378 11.8967 5.9709 10.9079 5.04456 9.3883V3.61515C5.9709 2.09554 7.57378 1.10675 9.33279 0.957565V12.0459Z" fill="#001133"/>
<path d="M12.104 2.87265C11.8923 2.72346 11.6009 2.7755 11.4517 2.99061C11.3025 3.20224 11.3546 3.49368 11.5697 3.64286C12.5064 4.29512 13.065 5.36717 13.065 6.50515C13.065 7.64312 12.5064 8.71518 11.5697 9.36743C11.358 9.51662 11.306 9.80805 11.4517 10.0197C11.5419 10.1515 11.6876 10.2209 11.8368 10.2209C11.9305 10.2209 12.0242 10.1932 12.104 10.1376C13.2905 9.30845 14.0017 7.9519 14.0017 6.50862C14.0017 5.06533 13.2905 3.69837 12.104 2.87265Z" fill="#001133"/>
<path d="M13.9149 0.933199C13.7033 0.784013 13.4119 0.836054 13.2627 1.05116C13.1135 1.2628 13.1655 1.55423 13.3807 1.70341C14.9523 2.79976 15.8891 4.59346 15.8891 6.50165C15.8891 8.40984 14.9523 10.207 13.3807 11.2999C13.169 11.4491 13.117 11.7405 13.2627 11.9521C13.3529 12.084 13.4986 12.1534 13.6478 12.1534C13.7415 12.1534 13.8351 12.1256 13.9149 12.0701C15.7364 10.8003 16.8258 8.71862 16.8258 6.50165C16.8258 4.28468 15.7399 2.20301 13.9149 0.933199Z" fill="#001133"/>
</svg>
