<svg width="28" height="29" viewBox="0 0 28 29" fill="none" xmlns="http://www.w3.org/2000/svg">
<path d="M14 28.35C21.732 28.35 28 22.0036 28 14.175C28 6.34636 21.732 0 14 0C6.26801 0 0 6.34636 0 14.175C0 22.0036 6.26801 28.35 14 28.35Z" fill="#FFD93B"/>
<path d="M21.239 17.1243C22.4692 17.4654 20.4978 24.0887 14.0001 24.1374C7.50233 24.0887 5.53095 17.4654 6.7612 17.1243C7.7447 16.6335 10.3828 19.3533 14.0001 19.3533C17.6672 19.3525 20.2555 16.6335 21.239 17.1243Z" fill="#3E4347"/>
<path d="M9.47952 14.2185C9.4034 14.3132 9.27565 14.3363 9.17065 14.2778C8.38315 13.8588 5.21565 12.063 4.91202 10.3912C4.71952 9.33428 5.40815 8.31811 6.45202 8.1232C7.20452 7.98145 7.9334 8.30659 8.35952 8.90283C8.54065 8.19408 9.11202 7.62708 9.86452 7.49153C10.9084 7.29662 11.9059 7.99385 12.0984 9.05078C12.402 10.7217 10.0684 13.5389 9.47952 14.2185Z" fill="#E24B4B"/>
<path d="M9.81157 13.8224C9.67769 13.9881 9.56044 14.1237 9.47907 14.2185C9.40294 14.3132 9.27519 14.3363 9.17019 14.2778C8.38269 13.8588 5.21519 12.063 4.91157 10.3912C4.73657 9.44059 5.27294 8.52453 6.14269 8.21179C5.69907 8.64856 5.47157 9.29884 5.59407 9.95975C5.89157 11.6076 8.96544 13.3733 9.81157 13.8224Z" fill="#D03F3F"/>
<path d="M18.1978 14.2185C18.2739 14.3132 18.4016 14.3363 18.5066 14.2778C19.2941 13.8588 22.4616 12.063 22.7653 10.3912C22.9578 9.33428 22.2691 8.31811 21.2253 8.1232C20.4728 7.98145 19.7439 8.30659 19.3178 8.90283C19.1366 8.19408 18.5653 7.62708 17.8128 7.49153C16.7689 7.29662 15.7714 7.99385 15.5789 9.05078C15.2753 10.7217 17.608 13.5389 18.1978 14.2185Z" fill="#E24B4B"/>
<path d="M17.8646 13.8224C17.9985 13.9881 18.1157 14.1237 18.1971 14.2185C18.2733 14.3132 18.401 14.3363 18.506 14.2778C19.2935 13.8588 22.461 12.063 22.7646 10.3912C22.9396 9.44059 22.4033 8.52453 21.5335 8.21179C21.9771 8.64856 22.2046 9.29884 22.0821 9.95975C21.7846 11.6076 18.7099 13.3733 17.8646 13.8224Z" fill="#D03F3F"/>
<path d="M13.9996 24.1373C15.2543 24.1276 16.3385 23.8715 17.2651 23.4649C17.0551 22.8403 16.678 22.2955 16.1818 21.887C15.7837 21.5548 15.2368 21.4946 14.7451 21.6558C14.4616 21.7462 14.1431 21.802 13.7905 21.802C13.5166 21.802 13.2637 21.7666 13.0301 21.7116C12.4981 21.5761 11.9416 21.7364 11.554 22.1298C11.1873 22.501 10.9065 22.9581 10.7358 23.4667C11.6625 23.8724 12.7457 24.1285 13.9996 24.1373Z" fill="#E24B4B"/>
</svg>
