<svg width="40" height="40" viewBox="0 0 40 40" fill="none" xmlns="http://www.w3.org/2000/svg">
<rect opacity="0.1" width="40" height="40" rx="20" fill="#518CFF"/>
<path d="M28.2712 14.3101C27.8294 14.0477 27.3215 14.0477 26.9018 14.334L24.0086 16.171V15.8131C24.0086 14.8111 23.2577 14 22.3301 14H12.6785C11.7509 14 11 14.8111 11 15.8131V24.1869C11 25.1889 11.7509 26 12.6785 26H22.3521C23.2798 26 24.0307 25.1889 24.0307 24.1869V23.7575L26.946 25.5944C27.1669 25.7376 27.4098 25.8091 27.6307 25.8091C27.8736 25.8091 28.0945 25.7376 28.3153 25.6183C28.7571 25.3559 29 24.8787 29 24.33L28.9779 15.5984C28.9779 15.0736 28.7129 14.5964 28.2712 14.3101ZM23.1472 24.1869C23.1472 24.664 22.7939 25.0457 22.3521 25.0457H12.6785C12.2368 25.0457 11.8834 24.664 11.8834 24.1869V15.837C11.8834 15.3598 12.2368 14.9781 12.6785 14.9781H22.3521C22.7939 14.9781 23.1472 15.3598 23.1472 15.837V24.1869ZM27.8736 24.7833C27.8074 24.831 27.6086 24.9264 27.3877 24.7833L24.0307 22.66V17.2922L27.3656 15.1451C27.5865 15.002 27.7853 15.0974 27.8515 15.1451C27.9178 15.1928 28.0945 15.336 28.0945 15.5984L28.1166 24.33C28.1166 24.6163 27.9399 24.7356 27.8736 24.7833Z" fill="#518CFF"/>
</svg>
