<svg width="18" height="20" viewBox="0 0 18 20" fill="none" xmlns="http://www.w3.org/2000/svg">
<path d="M17.2327 2.87829H13.0715V2.19984C13.0715 0.986842 12.0847 0 10.8717 0H6.91612C5.70313 0 4.71628 0.986842 4.71628 2.19984V2.87829H0.555099C0.246711 2.87829 0 3.125 0 3.43339C0 3.74178 0.246711 3.98849 0.555099 3.98849H1.55839V17.0312C1.55839 18.6678 2.89063 20 4.52714 20H13.2607C14.8972 20 16.2294 18.6678 16.2294 17.0312V3.98849H17.2327C17.5411 3.98849 17.7878 3.74178 17.7878 3.43339C17.7878 3.125 17.5411 2.87829 17.2327 2.87829ZM5.82648 2.19984C5.82648 1.59951 6.31579 1.1102 6.91612 1.1102H10.8717C11.472 1.1102 11.9613 1.59951 11.9613 2.19984V2.87829H5.82648V2.19984ZM15.1192 17.0312C15.1192 18.0551 14.2845 18.8898 13.2607 18.8898H4.52714C3.50329 18.8898 2.66859 18.0551 2.66859 17.0312V3.98849H15.1234V17.0312H15.1192Z" fill="#FF5656"/>
<path d="M8.8939 16.8996C9.20229 16.8996 9.449 16.6529 9.449 16.3445V6.53361C9.449 6.22523 9.20229 5.97852 8.8939 5.97852C8.58552 5.97852 8.33881 6.22523 8.33881 6.53361V16.3404C8.33881 16.6487 8.58552 16.8996 8.8939 16.8996Z" fill="#FF5656"/>
<path d="M5.27138 16.287C5.57976 16.287 5.82648 16.0403 5.82648 15.7319V7.14226C5.82648 6.83387 5.57976 6.58716 5.27138 6.58716C4.96299 6.58716 4.71628 6.83387 4.71628 7.14226V15.7319C4.71628 16.0403 4.9671 16.287 5.27138 16.287Z" fill="#FF5656"/>
<path d="M12.5165 16.287C12.8249 16.287 13.0716 16.0403 13.0716 15.7319V7.14226C13.0716 6.83387 12.8249 6.58716 12.5165 6.58716C12.2081 6.58716 11.9614 6.83387 11.9614 7.14226V15.7319C11.9614 16.0403 12.2081 16.287 12.5165 16.287Z" fill="#FF5656"/>
</svg>
