<svg width="15" height="15" viewBox="0 0 15 15" fill="none" xmlns="http://www.w3.org/2000/svg">
<path d="M14.0631 11.4699C13.5286 10.9315 12.2343 10.1457 11.6063 9.82908C10.7886 9.41719 10.7213 9.38353 10.0785 9.86105C9.64973 10.1797 9.36468 10.4644 8.8629 10.3574C8.36113 10.2504 7.27075 9.64702 6.316 8.69536C5.36125 7.74371 4.72284 6.62177 4.61549 6.12171C4.50813 5.62166 4.79755 5.33999 5.11322 4.91027C5.55812 4.30454 5.52447 4.20359 5.14418 3.38586C4.8477 2.74985 4.039 1.46774 3.49852 0.936048C2.92036 0.364985 2.92036 0.465939 2.54781 0.620735C2.24452 0.748337 1.95354 0.903444 1.67854 1.08411C1.14008 1.44183 0.841239 1.73897 0.63225 2.18552C0.423261 2.63207 0.329368 3.67897 1.40864 5.63949C2.48791 7.60002 3.24511 8.60249 4.81236 10.1653C6.37961 11.728 7.58474 12.5683 9.34651 13.5563C11.5259 14.7768 12.3619 14.5389 12.8098 14.3303C13.2577 14.1216 13.5562 13.8255 13.9146 13.2871C14.0958 13.0126 14.2513 12.7219 14.3791 12.4189C14.5342 12.0477 14.6352 12.0477 14.0631 11.4699Z" stroke="#64DC34" stroke-miterlimit="10"/>
</svg>
