<svg width="40" height="36" viewBox="0 0 40 36" fill="none" xmlns="http://www.w3.org/2000/svg">
<path d="M18.4892 36C11.1148 36 6.12154 28.7411 2.61609 17.6383C6.12164 6.53549 11.1149 0 18.4892 0C25.8636 0 32.6224 6.89721 36.1279 18C32.6224 29.1028 25.8637 36 18.4892 36Z" fill="#FFCBBE"/>
<path d="M18.3928 35.9995C10.8075 35.9396 4.22018 28.6726 0.850037 18C4.22027 7.32861 10.8076 0.0615962 18.3928 0.00170898C14.369 0.114596 10.8766 7.36784 9.08685 18C10.8767 28.6334 14.369 35.8866 18.3928 35.9995Z" fill="#EAAC9D"/>
<path d="M36.1274 18.0001C32.7435 24.795 26.1136 29.4132 18.489 29.4132C10.8633 29.4132 4.23345 24.795 0.849487 18.0001C4.23354 11.2052 10.8633 6.58704 18.4891 6.58704C26.1136 6.58704 32.7435 11.2052 36.1274 18.0001Z" fill="#F9F6F6"/>
<path d="M18.4888 26.9154C23.0326 26.9154 26.7162 22.9239 26.7162 18.0001C26.7162 13.0763 23.0326 9.08478 18.4888 9.08478C13.9449 9.08478 10.2614 13.0763 10.2614 18.0001C10.2614 22.9239 13.9449 26.9154 18.4888 26.9154Z" fill="#9DC6FB"/>
<path d="M18.4898 22.2889C20.6759 22.2889 22.4482 20.3685 22.4482 17.9996C22.4482 15.6307 20.6759 13.7103 18.4898 13.7103C16.3037 13.7103 14.5314 15.6307 14.5314 17.9996C14.5314 20.3685 16.3037 22.2889 18.4898 22.2889Z" fill="#26457D"/>
<path d="M18.489 29.4131C10.8633 29.4131 4.23345 24.7949 0.849487 18C4.23345 11.2052 10.8632 6.58704 18.489 6.58704C9.93538 6.58704 1.87717 24.0509 18.489 29.4131Z" fill="#DDDAEC"/>
<path d="M39.1499 13.8041C38.6803 13.8041 38.2996 14.2166 38.2996 14.7254C38.2996 15.8477 37.5709 16.789 36.5992 17.0228C36.3269 16.5097 36.0358 16.0128 35.7308 15.529C37.142 14.9021 38.139 13.3979 38.139 11.6455C38.139 11.1367 37.7583 10.7242 37.2887 10.7242C36.8191 10.7242 36.4384 11.1367 36.4384 11.6455C36.4384 12.8013 35.6647 13.7631 34.6494 13.9598C34.3924 13.6194 34.1256 13.2894 33.8522 12.9673C35.1552 12.2911 36.0573 10.8481 36.0573 9.18086C36.0573 8.67202 35.6766 8.2595 35.207 8.2595C34.7374 8.2595 34.3567 8.67202 34.3567 9.18086C34.3567 10.365 33.5445 11.345 32.4925 11.5076C32.2557 11.2755 32.0156 11.0477 31.7696 10.8281C32.9536 10.1095 33.7561 8.7374 33.7561 7.16536C33.7561 6.65652 33.3754 6.24399 32.9058 6.24399C32.4362 6.24399 32.0555 6.65652 32.0555 7.16536C32.0555 8.37338 31.2108 9.3707 30.1279 9.50266C26.7468 7.04309 22.7153 5.66528 18.4899 5.66528C10.8025 5.66528 3.75675 10.2239 0.102166 17.5622C-0.120834 18.0099 0.0333597 18.5689 0.446568 18.8105C0.57497 18.8857 0.713229 18.9212 0.849645 18.9212C1.15204 18.9212 1.44486 18.7459 1.5986 18.4372C4.95603 11.6957 11.4284 7.50791 18.4899 7.50791C25.542 7.50791 32.0068 11.6857 35.3678 18.4128C35.5082 18.7162 35.7978 18.9211 36.1279 18.9211C38.263 18.9211 40 17.0389 40 14.7253C40.0001 14.2165 39.6195 13.8041 39.1499 13.8041Z" fill="#26457D"/>
</svg>
