<svg width="9" height="7" viewBox="0 0 9 7" fill="none" xmlns="http://www.w3.org/2000/svg">
<g opacity="0.5">
<path d="M7.80022 7C7.76081 7.00006 7.72179 6.99253 7.68539 6.97785C7.649 6.96316 7.61595 6.94161 7.58816 6.91444L0.988291 0.49293C0.934407 0.437745 0.90481 0.364263 0.905811 0.28815C0.906813 0.212037 0.938333 0.139316 0.993653 0.0854916C1.04897 0.0316673 1.12371 0.000998435 1.20194 2.39497e-05C1.28017 -0.000950536 1.35569 0.0278465 1.41241 0.0802752L8.01227 6.50179C8.0542 6.54261 8.08275 6.5946 8.09431 6.65121C8.10588 6.70781 8.09994 6.76648 8.07724 6.8198C8.05455 6.87311 8.01612 6.91869 7.96681 6.95077C7.9175 6.98284 7.85953 6.99997 7.80022 7ZM4.49391 5.83245C3.71599 5.83245 2.96581 5.60843 2.2642 5.16659C1.6254 4.76524 1.05035 4.19041 0.601112 3.50648V3.50502C0.974979 2.98382 1.38447 2.54307 1.82434 2.1877C1.82832 2.18446 1.83156 2.18046 1.83387 2.17594C1.83618 2.17142 1.8375 2.16648 1.83774 2.16144C1.83799 2.1564 1.83716 2.15137 1.8353 2.14665C1.83345 2.14194 1.83061 2.13765 1.82696 2.13406L1.45347 1.77121C1.44683 1.7647 1.43792 1.76086 1.4285 1.76046C1.41909 1.76005 1.40986 1.76311 1.40266 1.76902C0.935417 2.15212 0.501739 2.62206 0.107434 3.17227C0.0395953 3.26701 0.0022337 3.37923 9.70541e-05 3.49467C-0.0020396 3.61011 0.0311452 3.72357 0.0954345 3.82062C0.590612 4.5746 1.22791 5.20964 1.93815 5.65677C2.73782 6.16083 3.59843 6.41623 4.49391 6.41623C4.97726 6.41477 5.4572 6.33727 5.91513 6.18673C5.92117 6.18474 5.92659 6.18128 5.93087 6.17668C5.93516 6.17208 5.93816 6.16649 5.93961 6.16045C5.94105 6.1544 5.94089 6.1481 5.93913 6.14213C5.93738 6.13616 5.93408 6.13073 5.92957 6.12635L5.52495 5.73266C5.51563 5.72382 5.50412 5.71749 5.49153 5.71429C5.47894 5.71109 5.46571 5.71114 5.45314 5.71442C5.13978 5.79293 4.81749 5.83259 4.49391 5.83245ZM8.90344 3.17993C8.40733 2.43343 7.76365 1.79931 7.04217 1.34597C6.244 0.843924 5.36276 0.578489 4.49391 0.578489C4.01567 0.579315 3.54099 0.658439 3.08975 0.812546C3.08374 0.814582 3.07836 0.818073 3.07411 0.822691C3.06987 0.827309 3.06691 0.832902 3.0655 0.838943C3.06409 0.844983 3.06429 0.851273 3.06607 0.857219C3.06785 0.863165 3.07116 0.868572 3.07569 0.87293L3.47974 1.26607C3.48915 1.27506 3.50083 1.28149 3.5136 1.28469C3.52637 1.28789 3.53979 1.28776 3.55249 1.28431C3.85941 1.20352 4.17595 1.16249 4.49391 1.16226C5.25683 1.16226 6.00475 1.38902 6.71667 1.83725C7.36747 2.24589 7.94928 2.82018 8.39964 3.49736C8.39998 3.49777 8.40016 3.49829 8.40016 3.49882C8.40016 3.49935 8.39998 3.49986 8.39964 3.50028C8.07273 4.00103 7.66705 4.44875 7.19742 4.82709C7.19339 4.83031 7.19011 4.83431 7.18777 4.83884C7.18542 4.84337 7.18408 4.84833 7.18381 4.85339C7.18355 4.85845 7.18437 4.86352 7.18623 4.86825C7.18809 4.87299 7.19094 4.8773 7.1946 4.8809L7.56772 5.24375C7.57432 5.25024 7.58319 5.25408 7.59256 5.25452C7.60193 5.25496 7.61113 5.25196 7.61834 5.24612C8.11971 4.83539 8.5537 4.35259 8.90532 3.81442C8.96747 3.71958 9.00033 3.60938 9 3.49691C8.99967 3.38443 8.96615 3.27442 8.90344 3.17993Z" fill="black"/>
<path d="M4.50029 1.74609C4.36547 1.74602 4.23106 1.76071 4.09961 1.78988C4.09298 1.79122 4.08683 1.79429 4.08184 1.79875C4.07685 1.80322 4.0732 1.80892 4.07128 1.81525C4.06936 1.82158 4.06923 1.82829 4.07092 1.83468C4.07261 1.84107 4.07604 1.8469 4.08087 1.85154L6.19188 3.90496C6.19665 3.90965 6.20264 3.913 6.20921 3.91464C6.21578 3.91628 6.22268 3.91616 6.22918 3.91429C6.23568 3.91242 6.24154 3.90886 6.24613 3.90401C6.25073 3.89915 6.25388 3.89318 6.25526 3.88672C6.31536 3.63023 6.3153 3.36386 6.25509 3.1074C6.19488 2.85094 6.07606 2.61097 5.90745 2.40531C5.73885 2.19965 5.52479 2.0336 5.28119 1.91947C5.03758 1.80535 4.77067 1.74609 4.50029 1.74609ZM2.8087 3.08987C2.80393 3.08518 2.79795 3.08183 2.79138 3.08019C2.78481 3.07855 2.77791 3.07867 2.77141 3.08054C2.7649 3.08241 2.75905 3.08597 2.75445 3.09082C2.74986 3.09568 2.74671 3.10165 2.74533 3.10811C2.67733 3.39714 2.68587 3.69824 2.77014 3.98318C2.85442 4.26813 3.01166 4.52759 3.22715 4.73725C3.44263 4.94691 3.7093 5.09991 4.00216 5.1819C4.29502 5.2639 4.60448 5.27221 4.90154 5.20605C4.90817 5.20471 4.91432 5.20164 4.91931 5.19717C4.9243 5.1927 4.92795 5.187 4.92987 5.18067C4.93179 5.17435 4.93192 5.16763 4.93023 5.16124C4.92854 5.15485 4.92511 5.14903 4.92029 5.14439L2.8087 3.08987Z" fill="black"/>
</g>
</svg>
