<svg width="15" height="17" viewBox="0 0 15 17" fill="none" xmlns="http://www.w3.org/2000/svg">
<path opacity="0.7" d="M10.0437 13.4231V14.0385C10.0437 14.6913 9.7757 15.3174 9.29874 15.779C8.82177 16.2407 8.17488 16.5 7.50035 16.5C6.82583 16.5 6.17893 16.2407 5.70197 15.779C5.22501 15.3174 4.95705 14.6913 4.95705 14.0385V13.4231M14.3227 12.1704C13.3023 10.9615 12.5818 10.3462 12.5818 7.01346C12.5818 3.96154 10.9716 2.87423 9.64626 2.34615C9.47022 2.27615 9.3045 2.11538 9.25086 1.94038C9.01838 1.17462 8.36666 0.5 7.50035 0.5C6.63404 0.5 5.98192 1.175 5.75184 1.94115C5.69819 2.11808 5.53248 2.27615 5.35643 2.34615C4.02955 2.875 2.42091 3.95846 2.42091 7.01346C2.41892 10.3462 1.69845 10.9615 0.677956 12.1704C0.255133 12.6712 0.625501 13.4231 1.36504 13.4231H13.6396C14.3752 13.4231 14.7432 12.6688 14.3227 12.1704Z" stroke="#518CFF" stroke-linecap="round" stroke-linejoin="round"/>
</svg>
