<svg width="16" height="16" viewBox="0 0 16 16" fill="none" xmlns="http://www.w3.org/2000/svg">
<path d="M8.85971 0.857276C8.85971 0.383648 8.47601 -4.80167e-05 8.00238 -4.79947e-05C7.52933 -0.000239726 7.14525 0.383456 7.14525 0.857085L7.14525 15.1426C7.14506 15.6157 7.52914 15.9994 8.00257 15.9996C8.47582 15.9996 8.85951 15.6159 8.8599 15.1426L8.85971 0.857276Z" fill="white"/>
<path d="M15.1429 8.85559C15.6161 8.85559 16 8.4717 16 7.99807C16.0002 7.52464 15.6163 7.14113 15.1427 7.14113L0.857507 7.14075C0.38407 7.14094 -9.59867e-06 7.52425 -9.64819e-06 7.99788C-0.00020144 8.47132 0.383878 8.8554 0.857507 8.8554L15.1429 8.85559Z" fill="white"/>
</svg>
