<svg width="16" height="17" viewBox="0 0 16 17" fill="none" xmlns="http://www.w3.org/2000/svg">
<g opacity="0.6">
<path d="M12.283 4.12721C12.283 1.85167 10.3618 0 7.99993 0C5.63806 0 3.7167 1.85167 3.7167 4.12721C3.71709 6.40255 5.63826 8.81805 7.99993 8.81805C10.3618 8.81805 12.283 6.40255 12.283 4.12721Z" fill="#001133"/>
<path d="M0 14.2813C0 15.7826 3.58161 17 7.99991 17C12.418 17 15.9998 15.7826 15.9998 14.2813C15.9998 11.6947 14.1435 9.52777 11.6448 8.94487C12.3102 9.36117 12.7685 10.0572 12.8397 10.8596C13.4084 10.9824 13.8352 11.4722 13.8352 12.0568C13.8352 12.7338 13.2635 13.2846 12.5609 13.2846C11.8583 13.2846 11.2867 12.7338 11.2867 12.0568C11.2867 11.483 11.6982 11.0011 12.2512 10.8672C12.1694 10.1248 11.659 9.50549 10.9638 9.24066L8.0846 11.8403L5.16717 9.2061C4.37635 9.46336 3.80157 10.1726 3.77373 11.0139C3.88724 11.0774 3.97898 11.1756 4.03524 11.2946C4.45418 11.485 4.8239 11.8859 5.10718 12.4565C5.15462 12.5526 5.1607 12.6611 5.126 12.76C5.29577 13.1811 5.39281 13.6412 5.39281 14.0277C5.39281 14.5692 5.39281 15.0813 4.78019 15.2127C4.71373 15.266 4.63081 15.2951 4.54357 15.2951H4.13405C3.9288 15.2951 3.76177 15.134 3.76177 14.9364L3.76216 14.9224C3.77 14.7318 3.93566 14.5777 4.13405 14.5777H4.54337C4.58533 14.5777 4.6263 14.5845 4.6657 14.5979C4.6906 14.5911 4.69824 14.5856 4.69844 14.5854C4.74392 14.5076 4.74392 14.1835 4.74392 14.0278C4.74392 13.7139 4.66237 13.3348 4.51946 12.9825C4.44516 12.9419 4.38537 12.8805 4.34851 12.8063C4.10013 12.3056 3.76275 11.9822 3.48849 11.9822C3.20796 11.9822 2.85372 12.3318 2.60672 12.8518C2.56633 12.9364 2.49556 13.0056 2.40833 13.0468C2.27914 13.3839 2.20817 13.7309 2.20817 14.0277C2.20817 14.1584 2.20817 14.5054 2.26012 14.5868C2.26071 14.5868 2.27228 14.5936 2.30482 14.6013C2.34716 14.5856 2.39264 14.5775 2.43812 14.5775H2.84823C3.03957 14.5775 3.19895 14.7179 3.21835 14.8999L3.22051 14.9222C3.22051 15.134 3.05349 15.2951 2.84843 15.2951H2.43832C2.35696 15.2951 2.27835 15.269 2.21366 15.2212C1.97939 15.1787 1.81433 15.0792 1.70984 14.9171C1.5832 14.7213 1.56007 14.464 1.56007 14.0277C1.56007 13.6448 1.65182 13.2041 1.81845 12.7831C1.79394 12.693 1.80218 12.5989 1.84276 12.5141C2.01645 12.1484 2.23718 11.8352 2.48106 11.6088C2.61515 11.4843 2.75923 11.3842 2.90999 11.3111C2.96684 11.1834 3.06525 11.0787 3.18581 11.0124C3.20875 10.1379 3.69081 9.37307 4.40948 8.9324C1.88314 9.49661 0 11.676 0 14.2813ZM8.9801 14.1903C8.9801 14.1249 9.04166 14.0722 9.11713 14.0722H9.86227V13.3545C9.86227 13.2814 9.91697 13.2222 9.9848 13.2222H10.7199C10.7874 13.2222 10.8425 13.2814 10.8425 13.3545V14.0722H11.5876C11.6635 14.0722 11.7246 14.1249 11.7246 14.1903V14.8986C11.7246 14.964 11.6633 15.0167 11.5876 15.0167H10.8425V15.7345C10.8425 15.8075 10.7874 15.8667 10.7199 15.8667H9.9848C9.91697 15.8667 9.86227 15.8075 9.86227 15.7345V15.0167H9.11713C9.04166 15.0167 8.9801 14.964 8.9801 14.8986V14.1903Z" fill="#001133"/>
<path d="M12.5609 12.6233C12.8858 12.6233 13.1491 12.3696 13.1491 12.0567C13.1491 11.7437 12.8858 11.49 12.5609 11.49C12.2361 11.49 11.9728 11.7437 11.9728 12.0567C11.9728 12.3696 12.2361 12.6233 12.5609 12.6233Z" fill="#001133"/>
</g>
</svg>
