<svg width="29" height="28" viewBox="0 0 29 28" fill="none" xmlns="http://www.w3.org/2000/svg">
<path d="M14.1749 27.9998C22.0035 27.9998 28.3498 21.7319 28.3498 13.9999C28.3498 6.26798 22.0035 0 14.1749 0C6.34633 0 0 6.26798 0 13.9999C0 21.7319 6.34633 27.9998 14.1749 27.9998Z" fill="#FFD93B"/>
<path d="M18.0871 21.3805C18.0871 21.3805 18.624 18.5175 17.3208 18.4633C16.635 18.4344 16.1531 20.0593 15.7376 22.3063C15.2627 24.8761 16.5713 26.3286 17.7115 27.152C19.3823 28.3586 21.1444 28.1407 22.8233 27.3498C24.9052 26.3689 26.6293 22.581 26.6558 21.6509C26.6957 20.2115 25.5165 20.1835 23.9201 23.5706C23.7101 24.2094 23.9201 23.5706 23.9201 23.5706C24.13 22.9319 25.7557 20.0584 26.0906 19.3855C26.4405 18.6812 25.4545 17.7519 24.7723 18.6392C24.0902 19.5264 22.103 22.3063 21.9551 22.987C21.8222 23.5146 21.9551 22.987 21.9551 22.987C22.088 22.4603 24.837 18.1168 24.9637 17.3792C25.1143 16.4981 23.8616 16.2758 23.439 16.9023C23.1307 17.3591 20.2178 22.1304 20.2178 22.1304C20.2178 22.1304 22.6124 18.1929 22.4928 17.4264C22.3936 16.7912 21.5715 16.6722 21.179 17.0747C20.7431 17.5201 18.0871 21.3805 18.0871 21.3805Z" fill="white"/>
<path d="M16.1033 25.3477C16.5134 26.1527 17.1345 26.7337 17.713 27.1519C19.3839 28.3585 21.146 28.1407 22.8248 27.3497C24.9068 26.3688 26.6317 22.5809 26.6574 21.6499C26.6574 21.6499 23.049 30.4717 16.1033 25.3477Z" fill="#DEE4E9"/>
<path d="M10.2633 21.3805C10.2633 21.3805 9.72639 18.5175 11.0296 18.4633C11.7153 18.4344 12.1973 20.0593 12.6128 22.3063C13.0876 24.8761 11.7791 26.3286 10.6389 27.152C8.96803 28.3586 7.20591 28.1407 5.52707 27.3498C3.44513 26.3689 1.7211 22.581 1.69453 21.6509C1.65466 20.2115 2.83383 20.1835 4.43028 23.5706C4.43028 23.5706 4.64025 24.2094 4.43028 23.5706C4.22032 22.9319 2.59463 20.0584 2.25975 19.3855C1.90892 18.6812 2.89496 17.7519 3.57802 18.6392C4.26107 19.5264 6.24733 22.3063 6.39528 22.987C6.39528 22.987 6.52817 23.5146 6.39528 22.987C6.26239 22.4603 3.51334 18.1168 3.38666 17.3792C3.23605 16.4981 4.48876 16.2758 4.91135 16.9023C5.21965 17.3591 8.13259 22.1304 8.13259 22.1304C8.13259 22.1304 5.73792 18.1929 5.85752 17.4264C5.95675 16.7912 6.77889 16.6722 7.17136 17.0747C7.60724 17.5201 10.2633 21.3805 10.2633 21.3805Z" fill="white"/>
<path d="M12.2477 25.3477C11.8375 26.1527 11.2164 26.7337 10.6379 27.1519C8.96705 28.3585 7.20493 28.1407 5.52609 27.3497C3.44415 26.3688 1.72012 22.5809 1.69354 21.6499C1.69443 21.6499 5.30283 30.4717 12.2477 25.3477Z" fill="#DEE4E9"/>
<path d="M19.4551 12.341C20.0912 12.4818 18.92 17.0721 14.1723 17.0756C9.42366 17.0721 8.25246 12.4818 8.88944 12.341C9.35456 12.0951 11.1459 14.301 14.1723 14.301C17.2562 14.301 18.99 12.0951 19.4551 12.341Z" fill="#001133"/>
<path d="M11.865 10.1868C11.5257 10.1868 11.236 9.93131 11.2041 9.59094C11.1022 8.49807 10.2588 7.67383 9.24261 7.67383C8.22644 7.67383 7.38303 8.49807 7.28115 9.59094C7.24749 9.95144 6.92146 10.2201 6.55912 10.1842C6.19323 10.1509 5.92479 9.83156 5.95846 9.47107C6.12412 7.69833 7.53541 6.36133 9.24349 6.36133C10.9507 6.36133 12.3629 7.69833 12.5276 9.47107C12.5613 9.83156 12.292 10.1518 11.927 10.1842C11.9057 10.1859 11.8853 10.1868 11.865 10.1868Z" fill="#001133"/>
<path d="M21.7294 10.1868C21.3901 10.1868 21.1004 9.93131 21.0685 9.59094C20.9666 8.49807 20.1232 7.67383 19.107 7.67383C18.0909 7.67383 17.2475 8.49807 17.1456 9.59094C17.1128 9.95144 16.7894 10.2201 16.4235 10.1842C16.0576 10.1509 15.7892 9.83156 15.8229 9.47107C15.9877 7.69833 17.3998 6.36133 19.107 6.36133C20.8142 6.36133 22.2264 7.69833 22.3912 9.47107C22.4248 9.83156 22.1555 10.1518 21.7905 10.1842C21.7701 10.1859 21.7498 10.1868 21.7294 10.1868Z" fill="#001133"/>
</svg>
