<svg width="39" height="34" viewBox="0 0 39 34" fill="none" xmlns="http://www.w3.org/2000/svg">
<path d="M1.83041 16.672C3.41677 19.1126 5.49124 20.3939 7.9928 20.3939C8.17584 20.3939 8.29787 20.3939 8.48091 20.3939C9.94524 20.2718 11.1655 19.7227 12.0197 18.6855C13.118 17.4042 13.6671 15.2687 11.8367 13.5603C11.5316 13.2553 11.0435 13.3163 10.7384 13.6213C10.4333 13.9264 10.4944 14.4145 10.7994 14.7196C12.1417 15.9399 11.2875 17.2822 10.8604 17.7703C10.2503 18.5024 9.45713 18.8685 8.35888 18.9295C6.16239 19.0516 4.454 18.0753 3.05069 15.9399C2.37954 14.9026 1.95244 13.6824 1.70838 11.974C1.64737 11.4249 1.58636 10.8757 1.52534 10.2656C1.52534 10.0215 1.46433 9.77748 1.46433 9.53343C1.52534 7.70301 1.70838 6.2997 2.44055 5.01841C3.90488 2.51685 5.85732 1.4186 8.72496 1.54063C9.7622 1.60164 10.5554 1.78468 11.1655 2.21178C12.3248 2.94394 12.9349 4.1032 12.9349 5.68956C12.9349 6.17767 12.8739 6.60477 12.6909 6.97085C12.5078 7.33693 12.6909 7.82504 13.0569 8.00808C13.423 8.19112 13.9111 8.00808 14.0942 7.642C14.3382 7.03186 14.5213 6.42173 14.4603 5.68956C14.3992 3.55408 13.6061 1.96772 12.0197 0.930491C11.1655 0.381367 10.1283 0.0762987 8.78598 0.015285C5.49124 -0.167756 2.92866 1.29657 1.22027 4.22523C0.305069 5.75058 0.0610137 7.45896 0 9.53343V9.59444V9.65545C0 9.89951 0.0610137 10.1436 0.0610137 10.3876C0.122027 10.9978 0.183041 11.5469 0.244055 12.157C0.549124 14.0484 1.03723 15.4518 1.83041 16.672Z" fill="#001133"/>
<path d="M14.1552 24.6647C13.5451 27.7154 13.301 30.522 13.3621 33.2676C13.3621 33.6947 13.7281 33.9998 14.0942 33.9998C14.5213 33.9998 14.8264 33.6337 14.8264 33.2066C14.7654 30.583 15.0094 27.8984 15.6196 24.9697V24.8477C16.1687 22.1021 16.7178 19.1734 16.2907 16.3058C15.8026 13.0111 13.8502 10.4485 10.9215 9.22821C11.1046 8.25199 10.9825 7.15374 10.6164 5.99448C10.4944 5.56738 10.0673 5.38434 9.64022 5.50637C9.21313 5.6284 9.03009 6.05549 9.15211 6.48259C9.57921 7.82489 9.5182 9.04516 9.0911 9.96037C8.664 10.8756 7.80981 11.6077 6.4065 12.2179C6.04041 12.4009 5.85737 12.828 6.04041 13.1941C6.16244 13.4992 6.46751 13.6212 6.71157 13.6212C6.83359 13.6212 6.89461 13.6212 7.01663 13.5602C8.72502 12.828 9.82327 11.8518 10.3724 10.6315C12.6909 11.6688 14.2773 13.8042 14.7044 16.4888C15.1315 19.1124 14.5823 21.858 14.0332 24.4816L14.1552 24.6647Z" fill="#001133"/>
<path d="M37.3404 4.22534C35.632 1.29668 33.0694 -0.106633 29.6527 0.0153942C28.3104 0.0764079 27.2731 0.381476 26.4189 0.9306C24.8326 1.96783 23.9784 3.55419 23.9784 5.68967C23.9784 6.42184 24.1004 7.03197 24.3445 7.64211C24.5275 8.00819 24.9546 8.19123 25.3817 8.00819C25.7478 7.82515 25.9308 7.39806 25.7478 6.97096C25.5647 6.60488 25.5037 6.17778 25.5037 5.68967C25.5647 4.10331 26.1139 2.94405 27.2731 2.21189C27.8833 1.78479 28.6764 1.60175 29.7137 1.54074C32.5813 1.41871 34.5948 2.51696 35.9981 5.01852C36.7303 6.29981 36.9133 7.76414 36.9743 9.53353C36.9743 9.77759 36.9133 10.0216 36.9133 10.2657C36.8523 10.8758 36.8523 11.425 36.7302 11.9131C36.4862 13.6215 36.0591 14.8417 35.3879 15.879C33.9846 18.0144 32.2762 18.9907 30.0798 18.8686C28.9815 18.8076 28.1883 18.4415 27.5782 17.7094C27.1511 17.2213 26.2969 15.879 27.6392 14.6587C27.9443 14.3536 27.9443 13.8655 27.7002 13.5604C27.3952 13.2554 26.907 13.2554 26.602 13.4994C24.7105 15.2688 25.3207 17.3433 26.4189 18.6246C27.2731 19.6618 28.4934 20.2109 29.9577 20.333C30.1408 20.333 30.2628 20.333 30.4458 20.333C32.9474 20.333 35.0219 19.1127 36.6082 16.6111C37.4014 15.3909 37.8895 13.9265 38.1946 12.0351C38.2556 11.425 38.3166 10.8758 38.3776 10.2657C38.3776 10.0216 38.4386 9.77759 38.4386 9.53353V9.47252V9.41151C38.4996 7.45907 38.2556 5.75068 37.3404 4.22534Z" fill="#001133"/>
<path d="M22.209 16.2449C21.7819 19.0516 22.331 21.7362 22.8191 24.4208L22.9411 24.9699C23.4902 27.8375 23.7343 30.5222 23.6733 33.2068C23.6733 33.6339 23.9784 33.9999 24.4054 33.9999C24.8325 33.9999 25.1376 33.6949 25.1376 33.2678C25.1986 30.4611 24.9546 27.6545 24.3444 24.7258L24.2224 24.1767C23.7343 21.6752 23.1852 19.0516 23.6123 16.55C24.0394 13.8654 25.6257 11.7299 27.9442 10.6927C28.5544 11.913 29.6526 12.8892 31.3 13.6213C31.422 13.6824 31.483 13.6824 31.6051 13.6824C31.9101 13.6824 32.1542 13.4993 32.2762 13.2553C32.4593 12.8892 32.2762 12.4011 31.9101 12.279C30.5068 11.6689 29.6526 10.9367 29.2255 10.0215C28.7984 9.04532 28.7374 7.88606 29.1645 6.54376C29.2865 6.11666 29.0425 5.68956 28.6764 5.56754C28.2493 5.44551 27.8222 5.68956 27.7002 6.05565C27.3341 7.21491 27.2731 8.31315 27.3951 9.28937C24.6495 10.3876 22.7581 12.9502 22.209 16.2449Z" fill="#001133"/>
</svg>
