<svg width="17" height="16" viewBox="0 0 17 16" fill="none" xmlns="http://www.w3.org/2000/svg">
<path d="M15.7203 7.86081C15.5274 7.82301 15.3313 7.86254 15.1682 7.97215C15.0331 8.06295 14.9339 8.19287 14.8823 8.3444L14.0439 7.97828C14.0456 7.9209 14.0465 7.86436 14.0465 7.80928C14.0465 7.31634 13.9848 6.82687 13.863 6.3527L14.2391 6.09759C14.4775 6.30637 14.8239 6.36879 15.1273 6.23703C15.5354 6.05966 15.7309 5.58734 15.5723 5.16174L15.3952 4.68661C15.2347 4.2558 14.773 4.02882 14.3442 4.16956C14.1272 4.24082 13.9525 4.39287 13.8524 4.59766C13.7955 4.71413 13.7668 4.83907 13.7668 4.96461L13.3401 5.02419C13.2816 4.91704 13.2178 4.80845 13.1496 4.70027C13.079 4.5884 12.9311 4.5549 12.8193 4.6254C12.7074 4.69593 12.6739 4.84379 12.7444 4.95567C12.8249 5.08335 12.8986 5.21129 12.9636 5.336C13.0289 5.46103 13.1664 5.53195 13.3056 5.51254L14.075 5.40513C14.1464 5.39517 14.2095 5.35356 14.2468 5.29188C14.2841 5.23019 14.2917 5.15497 14.2673 5.08712C14.2343 4.99504 14.2398 4.8959 14.2827 4.80797C14.3256 4.72029 14.4004 4.65519 14.4936 4.6246C14.6742 4.56534 14.8773 4.66819 14.9464 4.85388L15.1235 5.32901C15.192 5.51289 15.1081 5.7232 14.9364 5.79785C14.772 5.86924 14.5784 5.80803 14.4859 5.65551C14.4519 5.59941 14.3964 5.55973 14.3323 5.54574C14.2682 5.53172 14.2011 5.54472 14.1468 5.58153L13.5086 6.01439C13.3903 6.09466 13.3364 6.24143 13.3745 6.37962C13.5026 6.84344 13.5676 7.32448 13.5676 7.80931C13.5676 7.88875 13.5656 7.97176 13.5617 8.05609C13.5553 8.19344 13.6356 8.32263 13.7613 8.37751L14.9577 8.89999C15.0243 8.92908 15.1004 8.92636 15.1647 8.89268C15.229 8.85899 15.2745 8.79795 15.2885 8.72668L15.3265 8.53352C15.3397 8.46618 15.3783 8.408 15.4353 8.36972C15.4922 8.33144 15.5607 8.31762 15.6281 8.33087C15.7671 8.35813 15.858 8.49344 15.8308 8.63246L15.6346 9.63237C15.6209 9.70197 15.5805 9.76133 15.5206 9.79951C15.4608 9.83767 15.3898 9.84923 15.3205 9.8323C15.1896 9.80015 15.1055 9.65995 15.133 9.51972L15.1382 9.493C15.1523 9.42087 15.1326 9.34626 15.0846 9.2906C15.0366 9.23489 14.9652 9.20411 14.8923 9.20772L13.5981 9.26675C13.4611 9.27298 13.3399 9.36487 13.2966 9.49552C13.1767 9.85753 13.0176 10.2073 12.8236 10.5351C12.7514 10.6571 12.764 10.8118 12.8551 10.9201L13.4277 11.6002C13.4702 11.6508 13.5317 11.6815 13.5976 11.6851C13.6636 11.6887 13.7281 11.665 13.7759 11.6195C13.9043 11.4975 14.0994 11.487 14.2398 11.5945C14.3159 11.6527 14.3647 11.737 14.3773 11.8319C14.39 11.9268 14.3648 12.0209 14.3067 12.0969L14.1408 12.3138C14.0216 12.4695 13.799 12.5095 13.6446 12.4031C13.5133 12.3126 13.4572 12.1441 13.5081 11.9931C13.5477 11.8756 13.491 11.7472 13.3774 11.6974L12.5527 11.3351C12.4215 11.2774 12.2684 11.31 12.1716 11.4162C11.8039 11.8201 11.3792 12.1641 10.9093 12.4389C10.7907 12.5082 10.7259 12.6457 10.748 12.7809L10.9592 14.0684C10.9709 14.1401 11.0145 14.2025 11.0778 14.2382C11.141 14.2739 11.217 14.279 11.2845 14.252L11.4672 14.1789C11.533 14.1526 11.6049 14.1543 11.6694 14.1838C11.734 14.2132 11.7823 14.2666 11.8057 14.334C11.8498 14.4614 11.7777 14.6082 11.645 14.6613L10.712 15.0345C10.6462 15.0609 10.5743 15.0591 10.5098 15.0297C10.4453 15.0002 10.3969 14.9469 10.3735 14.8795C10.3294 14.7521 10.4014 14.6053 10.534 14.5522L10.5593 14.5421C10.6275 14.5148 10.6795 14.4577 10.7001 14.3872C10.7208 14.3166 10.708 14.2405 10.6652 14.1807L9.91253 13.126C9.8329 13.0144 9.6899 12.9625 9.55695 12.997C9.11809 13.1108 8.66442 13.1685 8.20848 13.1685C7.84746 13.1685 7.48555 13.132 7.13287 13.0601C6.99823 13.0327 6.85832 13.0919 6.78447 13.2075L6.03105 14.3891C5.992 14.4503 5.98287 14.526 6.00621 14.5947C6.02948 14.6635 6.08274 14.718 6.15097 14.7428L6.17763 14.7526C6.26911 14.7859 6.34213 14.8529 6.38322 14.9412C6.42431 15.0294 6.42856 15.1284 6.39523 15.2199C6.38562 15.2462 6.38073 15.274 6.38073 15.3019C6.38073 15.3925 6.35401 15.4611 6.30547 15.4951C6.25698 15.5291 6.18341 15.5307 6.09826 15.4996L5.17271 15.1621C4.98737 15.0946 4.88871 14.8879 4.95273 14.7014C4.98328 14.6125 5.04906 14.5403 5.13794 14.4979C5.23185 14.4531 5.34101 14.4475 5.43734 14.4826L5.45854 14.4904C5.52754 14.5156 5.60436 14.5076 5.66681 14.4689C5.72929 14.4301 5.77048 14.3648 5.77856 14.2918L5.93194 12.9069C5.94704 12.7707 5.87514 12.6368 5.75305 12.5737C5.19318 12.2846 4.69225 11.9022 4.26432 11.4372C4.17013 11.3348 4.02057 11.3013 3.89216 11.354L2.76269 11.8172C2.70001 11.8429 2.65116 11.894 2.62824 11.9577C2.60528 12.0214 2.61042 12.0919 2.64232 12.1516C2.714 12.2857 2.67201 12.45 2.54468 12.5337C2.41342 12.6201 2.22964 12.5797 2.13513 12.4437L1.84583 12.0272C1.75304 11.8937 1.77514 11.7144 1.89612 11.6191C1.95866 11.5698 2.03628 11.5482 2.11451 11.5582C2.19334 11.5684 2.26307 11.6088 2.31093 11.6721C2.35423 11.7294 2.42096 11.7642 2.49273 11.767C2.56425 11.7697 2.6337 11.7402 2.68127 11.6864L3.4768 10.7872C3.57016 10.6817 3.58689 10.5278 3.5184 10.4041C3.43287 10.2498 3.3533 10.0873 3.28197 9.92119C3.22974 9.7997 3.08896 9.74348 2.96741 9.79568C2.84589 9.84788 2.7897 9.98869 2.84187 10.1102C2.90582 10.259 2.97584 10.4053 3.05062 10.5461L2.48082 11.1902C2.38919 11.134 2.2858 11.0973 2.17568 11.0832C1.96856 11.0566 1.76416 11.1133 1.59969 11.2428C1.28012 11.4947 1.2155 11.9593 1.45256 12.3004L1.74187 12.7169C1.98328 13.0644 2.46144 13.1616 2.8079 12.9338C3.067 12.7634 3.19187 12.4662 3.14829 12.1767L3.98098 11.8351C4.40863 12.2842 4.90033 12.6595 5.44503 12.9526L5.33111 13.9813C5.19439 13.9774 5.05685 14.0058 4.93175 14.0655C4.72588 14.1637 4.57246 14.3342 4.49979 14.5457C4.35158 14.9773 4.57987 15.4556 5.00867 15.612L5.93421 15.9495C6.02709 15.9834 6.12042 16.0001 6.2103 16.0001C6.34567 16.0001 6.47329 15.9621 6.58009 15.8874C6.74765 15.7701 6.84784 15.5736 6.8587 15.3438C6.9208 15.1436 6.90656 14.9303 6.81742 14.7389C6.7603 14.6162 6.67648 14.5113 6.57278 14.4303L7.13507 13.5484C7.94254 13.6986 8.78453 13.6765 9.58025 13.4847L10.1267 14.2503C9.91161 14.445 9.82227 14.7513 9.92096 15.0362C9.98763 15.2285 10.1261 15.3809 10.3108 15.4653C10.493 15.5484 10.704 15.5535 10.8899 15.4791L11.8229 15.1059C12.1957 14.9568 12.387 14.5488 12.2582 14.1772C12.1916 13.9849 12.0531 13.8325 11.8684 13.7481C11.7168 13.6789 11.5452 13.6637 11.3847 13.7035L11.2367 12.8012C11.6849 12.5288 12.094 12.1977 12.4548 11.8152L13.012 12.06C12.9964 12.3462 13.1292 12.6296 13.3728 12.7975C13.7403 13.0507 14.2447 12.966 14.5212 12.6048L14.6871 12.388C14.823 12.2104 14.8816 11.9904 14.8521 11.7687C14.8226 11.547 14.7085 11.3501 14.5309 11.2141C14.2717 11.0158 13.9334 10.9891 13.6548 11.1264L13.2874 10.6899C13.4592 10.3875 13.604 10.069 13.7191 9.74064L14.6583 9.69779C14.7049 9.98409 14.9135 10.2255 15.2064 10.2974C15.404 10.3459 15.6072 10.3124 15.7783 10.2032C15.9471 10.0954 16.066 9.92097 16.1046 9.72451L16.3008 8.72461C16.3789 8.32643 16.1185 7.93894 15.7203 7.86081Z" fill="#518CFF"/>
<path d="M1.54285 8.50756L2.44042 8.71487C2.45996 8.83968 2.48413 8.9664 2.51255 9.09281C2.53755 9.20417 2.6364 9.27988 2.74598 9.27985C2.76335 9.27985 2.781 9.27793 2.79866 9.27397C2.92768 9.24498 3.00881 9.11691 2.97982 8.98786C2.94684 8.84086 2.92005 8.69364 2.90026 8.55028C2.88139 8.41385 2.77877 8.3014 2.64496 8.27052L1.37372 7.97694C1.30307 7.96062 1.22861 7.97726 1.17162 8.02218C1.11459 8.06714 1.08104 8.13553 1.0804 8.20813L1.07909 8.35695C1.07759 8.52355 0.940837 8.65912 0.774202 8.65912C0.69486 8.65912 0.620371 8.62809 0.564528 8.57174C0.508653 8.51535 0.478289 8.44064 0.478991 8.36129L0.487292 7.43779C0.488027 7.35312 0.52401 7.27027 0.585984 7.21049C0.644221 7.1543 0.717816 7.12416 0.795562 7.12646C0.957312 7.13074 1.08822 7.26599 1.08732 7.42796C1.08691 7.5013 1.12015 7.57081 1.17752 7.61653C1.2349 7.66228 1.31012 7.6792 1.38145 7.66241L2.64374 7.36643C2.77746 7.33508 2.87963 7.22234 2.89805 7.08588C2.99119 6.39517 3.2153 5.73856 3.56412 5.13422C3.63449 5.01218 3.62063 4.85823 3.52947 4.75107L2.92752 4.04411C2.88046 3.98888 2.81127 3.95784 2.73828 3.95998C2.66571 3.96209 2.59799 3.99699 2.55418 4.05487L2.50201 4.12384C2.46303 4.17537 2.4062 4.20778 2.34196 4.21515C2.27794 4.2225 2.21501 4.20366 2.1651 4.16209C2.07079 4.08351 2.05808 3.93492 2.13678 3.83086L2.53774 3.30072C2.61558 3.19782 2.76265 3.17738 2.86555 3.25525C2.96191 3.32812 2.98659 3.46499 2.92178 3.56688C2.88417 3.62604 2.87436 3.69868 2.89496 3.7657C2.91555 3.83271 2.96447 3.88734 3.02877 3.91515L3.8705 4.2792C4.00099 4.33568 4.15332 4.30293 4.24956 4.19756C4.63276 3.7778 5.07695 3.42326 5.56993 3.14382C5.68934 3.07607 5.75591 2.93955 5.7356 2.80398L5.5417 1.51381C5.53091 1.442 5.48809 1.37898 5.42535 1.34245C5.36255 1.30589 5.28656 1.29983 5.2189 1.32588L5.03522 1.39654C4.969 1.42195 4.89723 1.4193 4.83308 1.38897C4.76897 1.35867 4.72133 1.30468 4.69889 1.23696C4.65645 1.10899 4.73043 0.963171 4.86386 0.911862L5.80179 0.551102C5.86801 0.525623 5.93979 0.528337 6.00393 0.558669C6.06804 0.588969 6.11571 0.64296 6.13816 0.710681C6.18056 0.83865 6.10658 0.984468 5.97315 1.03581L5.9478 1.04558C5.87922 1.07198 5.82654 1.1284 5.80492 1.19864C5.78334 1.26889 5.79515 1.34516 5.83707 1.40554L6.57545 2.46997C6.65355 2.58255 6.79566 2.63629 6.92909 2.60363C7.34525 2.50171 7.77571 2.45002 8.20904 2.45002H8.20917C8.35045 2.45002 8.47711 2.36097 8.52434 2.22856L8.76881 1.54446C8.79075 1.4831 8.78673 1.41541 8.75764 1.35711C8.72858 1.29877 8.67702 1.25477 8.61479 1.23533C8.43676 1.17965 8.32351 1.00481 8.34547 0.819621C8.35719 0.721089 8.40895 0.631402 8.49119 0.567066C8.57756 0.499505 8.68807 0.468439 8.79455 0.481881L9.13031 0.524154C9.34793 0.551549 9.50646 0.744046 9.48369 0.953241C9.4661 1.11474 9.35304 1.24571 9.19567 1.28689C9.0804 1.31707 9.00483 1.42741 9.0184 1.5458L9.10336 2.28712C9.11955 2.42859 9.22408 2.54424 9.36358 2.57492C9.89844 2.69242 10.411 2.89156 10.8868 3.16672C11.006 3.23568 11.1577 3.22381 11.2643 3.13728L12.2773 2.31496C12.3337 2.26921 12.3663 2.20034 12.3659 2.12773C12.3655 2.05516 12.3322 1.98664 12.2753 1.94149L12.1212 1.81911C12.0657 1.77502 12.0315 1.7118 12.025 1.64108C12.0186 1.57048 12.0409 1.50203 12.0879 1.44829C12.1765 1.34673 12.3397 1.33645 12.4517 1.4253L13.2388 2.05018C13.2943 2.09427 13.3285 2.15749 13.3349 2.22818C13.3414 2.29877 13.3191 2.36723 13.2721 2.42099C13.1834 2.5225 13.0201 2.53278 12.9083 2.44402L12.8871 2.42716C12.8295 2.3814 12.7541 2.36467 12.6826 2.38172C12.6111 2.39877 12.5514 2.44772 12.5207 2.51448L11.978 3.69239C11.9207 3.81697 11.9467 3.96678 12.0427 4.06515C12.0767 4.10002 12.1104 4.1361 12.1504 4.17955C12.2399 4.27687 12.3914 4.28313 12.4887 4.19354C12.586 4.10395 12.5923 3.95248 12.5027 3.85516C12.4858 3.83674 12.4699 3.8195 12.4544 3.80299L12.8485 2.9475C13.1242 3.03766 13.4344 2.96324 13.6328 2.73613C13.7667 2.58284 13.8303 2.38702 13.8119 2.18476C13.7937 1.98533 13.6933 1.7996 13.5365 1.67514L12.7495 1.0503C12.435 0.800655 11.986 0.837022 11.7272 1.13329C11.5933 1.28658 11.5297 1.48239 11.5481 1.68466C11.5633 1.85062 11.6353 2.00714 11.7494 2.12671L11.0398 2.70286C10.5762 2.44523 10.0818 2.25299 9.56763 2.13035L9.51501 1.67099C9.75841 1.53638 9.92913 1.28849 9.96 1.00513C10.0109 0.537756 9.66556 0.10886 9.1903 0.0489941L8.85454 0.00672076C8.62255 -0.0224619 8.38254 0.0442687 8.19637 0.189831C8.01284 0.333349 7.89694 0.536958 7.87009 0.763171C7.83101 1.09203 7.98273 1.40628 8.24624 1.58399L8.10757 1.97195C7.70406 1.97885 7.30301 2.02703 6.91255 2.1155L6.37666 1.34296C6.59426 1.15126 6.68771 0.846185 6.59285 0.559978C6.52877 0.366779 6.39237 0.212564 6.20878 0.125718C6.02775 0.040118 5.81683 0.0322316 5.62995 0.104103L4.69205 0.464831C4.31724 0.608956 4.1206 1.01432 4.24438 1.38766C4.30843 1.58086 4.4448 1.73507 4.62842 1.82192C4.77906 1.89315 4.95035 1.91062 5.11147 1.87297L5.24735 2.77713C4.77452 3.05589 4.34438 3.399 3.96641 3.79881L3.42577 3.56499C3.4697 3.30902 3.37191 3.03766 3.15454 2.87323C3.00265 2.75835 2.8152 2.70941 2.6265 2.73568C2.43787 2.76183 2.27072 2.85992 2.15588 3.0118L1.75489 3.54194C1.52024 3.85209 1.56581 4.28613 1.85859 4.53003C2.01009 4.65625 2.20112 4.71343 2.39665 4.69095C2.51993 4.67681 2.63704 4.63022 2.73608 4.55797L3.09882 4.98406C2.76364 5.58869 2.54151 6.24003 2.43761 6.92285L1.51102 7.14012C1.39853 6.85941 1.12637 6.65609 0.808238 6.64769C0.601118 6.64249 0.404853 6.71972 0.253384 6.86586C0.0996166 7.01426 0.0102806 7.22113 0.00833299 7.43345L3.15749e-05 8.35702C-0.00182028 8.56509 0.0778414 8.7611 0.224297 8.9089C0.370753 9.0567 0.56606 9.13808 0.77417 9.13808C1.15252 9.13811 1.47101 8.86624 1.54285 8.50756Z" fill="#518CFF"/>
<path d="M7.02321 7.20039C7.14004 7.13848 7.18458 6.99353 7.12264 6.87667C7.06073 6.75987 6.91584 6.71524 6.79888 6.77724C6.22663 7.08056 5.57436 7.00039 5.24815 6.58647C5.0651 6.35429 5.00214 6.04659 5.07085 5.72012C5.14288 5.37778 5.34888 5.05815 5.65089 4.82012C5.95284 4.58206 6.31178 4.45658 6.66143 4.46629C6.99492 4.47571 7.27937 4.60879 7.46245 4.841C7.73729 5.18969 7.73381 5.71016 7.45354 6.16696C7.38439 6.2797 7.41967 6.42715 7.53244 6.4963C7.64515 6.56546 7.79259 6.53015 7.86175 6.41744C8.24815 5.78768 8.23902 5.05253 7.83854 4.54451C7.56609 4.19886 7.15284 4.00106 6.67497 3.98759C6.21315 3.97418 5.74432 4.13663 5.35441 4.444C4.96443 4.75138 4.69732 5.16958 4.60217 5.62149C4.5037 6.08931 4.59955 6.53733 4.872 6.88296C5.15887 7.24688 5.60808 7.43832 6.09135 7.43829C6.39923 7.43829 6.72091 7.36064 7.02321 7.20039Z" fill="#518CFF"/>
<path d="M11.6699 5.05294C11.6699 4.55648 11.2078 4.15259 10.64 4.15259C10.0721 4.15259 9.61005 4.55648 9.61005 5.05294C9.61005 5.5494 10.0721 5.95329 10.64 5.95329C11.2078 5.95329 11.6699 5.5494 11.6699 5.05294ZM10.089 5.05294C10.089 4.82056 10.3362 4.63152 10.64 4.63152C10.9438 4.63152 11.191 4.82056 11.191 5.05294C11.191 5.28532 10.9438 5.47436 10.64 5.47436C10.3362 5.47436 10.089 5.28532 10.089 5.05294Z" fill="#518CFF"/>
<path d="M8.89046 9.16836C8.89046 8.55993 8.39547 8.06494 7.78704 8.06494C7.17858 8.06494 6.68359 8.55993 6.68359 9.16836C6.68359 9.77679 7.17858 10.2718 7.78704 10.2718C8.39547 10.2718 8.89046 9.77679 8.89046 9.16836ZM7.16255 9.16836C7.16255 8.82401 7.44269 8.54387 7.78708 8.54387C8.13139 8.54387 8.41156 8.82401 8.41156 9.16836C8.41156 9.51271 8.13142 9.79285 7.78708 9.79285C7.44269 9.79285 7.16255 9.51271 7.16255 9.16836Z" fill="#518CFF"/>
<path d="M12.0123 8.71843C12.0123 8.24528 11.6274 7.86035 11.1543 7.86035C10.6811 7.86035 10.2962 8.24528 10.2962 8.71843C10.2962 9.19158 10.6811 9.57651 11.1543 9.57651C11.6274 9.57648 12.0123 9.19158 12.0123 8.71843ZM10.7751 8.71843C10.7751 8.50936 10.9452 8.33928 11.1542 8.33928C11.3633 8.33928 11.5334 8.50936 11.5334 8.71843C11.5334 8.9275 11.3633 9.09758 11.1542 9.09758C10.9452 9.09755 10.7751 8.9275 10.7751 8.71843Z" fill="#518CFF"/>
<path d="M8.86953 12.578C9.33316 12.578 9.7104 12.2008 9.7104 11.7371C9.7104 11.2735 9.33319 10.8962 8.86953 10.8962C8.40586 10.8962 8.02863 11.2734 8.02863 11.7371C8.02863 12.2008 8.40583 12.578 8.86953 12.578ZM8.86953 11.3752C9.06911 11.3752 9.23147 11.5375 9.23147 11.7371C9.23147 11.9367 9.06911 12.0991 8.86953 12.0991C8.66994 12.0991 8.50755 11.9367 8.50755 11.7371C8.50755 11.5375 8.66994 11.3752 8.86953 11.3752Z" fill="#518CFF"/>
<path d="M5.10687 11.1645C5.58436 11.1645 5.97284 10.7761 5.97284 10.2986C5.97284 9.82109 5.58436 9.43262 5.10687 9.43262C4.62938 9.43262 4.24091 9.82109 4.24091 10.2986C4.24091 10.7761 4.62938 11.1645 5.10687 11.1645ZM5.10687 9.91154C5.32031 9.91154 5.49391 10.0852 5.49391 10.2986C5.49391 10.512 5.32028 10.6856 5.10687 10.6856C4.89346 10.6856 4.71983 10.512 4.71983 10.2986C4.71983 10.0852 4.89346 9.91154 5.10687 9.91154Z" fill="#518CFF"/>
<path d="M9.98291 7.30172C9.98291 7.16947 9.87573 7.06226 9.74345 7.06226H9.53176C9.39948 7.06226 9.2923 7.16947 9.2923 7.30172C9.2923 7.43397 9.39948 7.54118 9.53176 7.54118H9.74345C9.87573 7.54118 9.98291 7.43397 9.98291 7.30172Z" fill="#518CFF"/>
<path d="M6.70559 11.727H6.92309C7.05537 11.727 7.16255 11.6198 7.16255 11.4875C7.16255 11.3553 7.05537 11.248 6.92309 11.248H6.70559C6.57331 11.248 6.46613 11.3553 6.46613 11.4875C6.46613 11.6198 6.57334 11.727 6.70559 11.727Z" fill="#518CFF"/>
<path d="M4.68988 8.23967C4.82216 8.23967 4.92935 8.13245 4.92935 8.00021C4.92935 7.86796 4.82216 7.76074 4.68988 7.76074H4.48037C4.34809 7.76074 4.24091 7.86796 4.24091 8.00021C4.24091 8.13245 4.34809 8.23967 4.48037 8.23967H4.68988Z" fill="#518CFF"/>
<path d="M8.94247 4.04997C9.07475 4.04997 9.18194 3.94276 9.18194 3.81051C9.18194 3.67826 9.07475 3.57104 8.94247 3.57104H8.6509C8.51862 3.57104 8.41144 3.67826 8.41144 3.81051C8.41144 3.94276 8.51862 4.04997 8.6509 4.04997H8.94247Z" fill="#518CFF"/>
<path d="M10.5357 10.4685C10.4034 10.4685 10.2962 10.5757 10.2962 10.708C10.2962 10.8402 10.4034 10.9474 10.5357 10.9474H10.8576C10.9899 10.9474 11.0971 10.8402 11.0971 10.708C11.0971 10.5757 10.9899 10.4685 10.8576 10.4685H10.5357Z" fill="#518CFF"/>
</svg>
