<svg width="36" height="30" viewBox="0 0 36 30" fill="none" xmlns="http://www.w3.org/2000/svg">
<path d="M23.9998 7.02733e-05C21.4253 7.02733e-05 18.7187 1.43957 17.3715 4.50003H16.4998C14.8461 4.50003 13.4999 3.15454 13.4999 1.50003C13.4999 1.31842 13.4339 1.14264 13.3138 1.00637C13.2245 0.903086 12.3793 0 10.4999 0C8.62052 0 7.7753 0.903086 7.68594 1.00637C7.56584 1.14264 7.49989 1.31842 7.49989 1.50003C7.49989 6.46286 11.537 10.5 16.4998 10.5H16.7938C17.0923 11.3228 17.6026 12.0614 18.3206 12.5947C18.1551 13.2004 18.0716 13.8032 18.0716 14.3921C18.0716 15.3025 18.2532 16.1938 18.6135 17.05C17.6849 17.5803 16.9905 18.4607 16.6858 19.5007C14.4856 19.5256 12.7908 19.9855 11.7361 20.8007C10.8792 20.2961 9.04373 19.5 5.99986 19.5C2.24267 19.4999 0 23.1444 0 29.2498C0 29.6644 0.335458 29.9999 0.750017 29.9999H3.75002C4.16458 29.9999 4.50003 29.6644 4.50003 29.2498C4.50003 25.954 5.22073 25.4999 6 25.4999C6.56249 25.4999 6.67091 25.6376 6.93163 25.9701C7.25387 26.3803 7.74022 26.9999 9 26.9999H10.9819C11.8535 27.6855 15.1172 29.9999 19.5 29.9999C25.2068 29.9998 35.9997 26.8651 35.9997 14.9999C35.9997 2.69463 27.3382 7.02733e-05 23.9998 7.02733e-05ZM16.4999 9C12.4833 9 9.19328 5.82569 9.00872 1.85384C9.25333 1.70373 9.72941 1.5001 10.4999 1.5001C11.2997 1.5001 11.7816 1.71983 12.0146 1.86629C12.2021 4.17709 14.1415 6.00007 16.4999 6.00007H16.855C16.6291 6.89528 16.4999 7.89139 16.4999 9ZM19.4998 28.4998C15.0423 28.4998 11.7743 25.7122 11.7421 25.6837C11.6058 25.5658 11.43 25.4998 11.2499 25.4998H8.99993C8.46963 25.4998 8.36564 25.3665 8.11224 25.0435C7.78557 24.6275 7.29191 23.9999 5.99993 23.9999C3.41153 23.9999 3.05562 26.7391 3.00724 28.4998H1.51466C1.61134 26.047 2.26756 20.9999 6 20.9999C8.49312 20.9999 10.0254 21.5872 10.7695 21.9791C10.5922 22.3636 10.5 22.7884 10.5 23.2498C10.5 23.6644 10.8354 23.9999 11.25 23.9999C11.6645 23.9999 12 23.6644 12 23.2498C12 22.8844 12.1216 22.5709 12.3384 22.3043C12.3516 22.2911 12.3648 22.2772 12.378 22.2625C12.3941 22.2435 12.4102 22.2237 12.4249 22.2039C13.2408 21.3338 15.1041 20.9999 16.8751 20.9999C16.9351 20.9999 16.9938 21.0065 17.0523 21.0116L17.256 21.027C17.6383 21.057 17.9899 20.7552 18.0352 20.3656C18.1583 19.3219 18.8717 18.4467 19.8531 18.1354C20.067 18.0673 20.2398 17.9069 20.3233 17.6981C20.4054 17.4894 20.3907 17.2543 20.2823 17.0573C19.8107 16.2054 19.5719 15.3089 19.5719 14.392C19.5719 13.7819 19.6847 13.1718 19.9147 12.5273C20.0392 12.1801 19.8927 11.7941 19.5689 11.6169C18.6005 11.0859 17.9999 10.0832 17.9999 9C17.9999 3.8467 21.1097 1.50003 23.9998 1.50003C26.9207 1.50003 34.4997 3.92509 34.4997 14.9999C34.4997 25.6785 24.6883 28.4998 19.4998 28.4998Z" fill="#001133"/>
</svg>
