<svg width="27" height="27" viewBox="0 0 27 27" fill="none" xmlns="http://www.w3.org/2000/svg">
<path d="M13.3333 27C20.6971 27 26.6667 20.9559 26.6667 13.5C26.6667 6.04416 20.6971 0 13.3333 0C5.96954 0 0 6.04416 0 13.5C0 20.9559 5.96954 27 13.3333 27Z" fill="#FFD93B"/>
<path d="M8.33275 11.8125C9.25323 11.8125 9.99942 11.057 9.99942 10.125C9.99942 9.19303 9.25323 8.43751 8.33275 8.43751C7.41228 8.43751 6.66608 9.19303 6.66608 10.125C6.66608 11.057 7.41228 11.8125 8.33275 11.8125Z" fill="#001133"/>
<path d="M18.333 11.8125C19.2534 11.8125 19.9996 11.057 19.9996 10.125C19.9996 9.19303 19.2534 8.43751 18.333 8.43751C17.4125 8.43751 16.6663 9.19303 16.6663 10.125C16.6663 11.057 17.4125 11.8125 18.333 11.8125Z" fill="#001133"/>
<path d="M13.3327 21.9375C11.1061 21.9375 9.01441 21.0583 7.43941 19.4653C7.11441 19.1363 7.11441 18.6013 7.43941 18.2723C7.76441 17.9432 8.29274 17.9432 8.61774 18.2723C11.1361 20.8238 15.5261 20.8238 18.0461 18.2723C18.3711 17.9432 18.8994 17.9432 19.2244 18.2723C19.5494 18.6013 19.5494 19.1363 19.2244 19.4653C17.6511 21.0583 15.5594 21.9375 13.3327 21.9375Z" fill="#001133"/>
</svg>
