<svg width="28" height="40" viewBox="0 0 28 40" fill="none" xmlns="http://www.w3.org/2000/svg">
<path d="M24.5265 21.347C23.9922 20.9097 23.3403 20.2692 22.7422 19.7543C21.1433 20.7172 19.3557 21.2646 17.3587 21.2473C11.4559 21.1954 6.82724 16.2134 7.06761 10.2304C7.17049 7.67059 8.10761 5.40619 9.70085 3.61694C9.42528 2.7951 9.15874 1.62048 9.08082 0.834961C9.03389 0.359802 8.63618 0 8.16537 0H0.921469C0.41245 0 0 0.418396 0 0.934753V39.0652C0 39.5816 0.41245 40 0.921469 40H12.7679C13.2769 40 13.6894 39.5816 13.6894 39.0652V35.267C13.6894 34.9588 13.9589 34.7217 14.2595 34.7672C16.3389 35.0809 23.5229 35.4373 25.9362 25.9946C24.6619 24.9252 24.0536 23.1009 24.5265 21.347Z" fill="#F7B594"/>
<path d="M2.38324 39.0652V0.934753C2.38324 0.418396 2.796 0 3.30471 0H0.921469C0.41245 0 0 0.418396 0 0.934753V39.0652C0 39.5816 0.41245 40 0.921469 40H3.30471C2.796 40 2.38324 39.5816 2.38324 39.0652Z" fill="#F0A479"/>
<path d="M27.2044 23.4772C27.078 24.3513 26.1273 25.2479 25.9363 25.9943C24.9294 25.4923 24.22 24.2893 24.22 22.8846C24.22 22.3304 24.331 21.8079 24.5266 21.3471C25.1505 21.858 26.4462 22.1683 26.7895 22.4351C27.1048 22.6798 27.2621 23.0787 27.2044 23.4772Z" fill="#F0A479"/>
<path d="M10.3781 33.8288C10.0583 33.751 9.73698 33.9497 9.65967 34.2738C9.58235 34.5979 9.7785 34.9241 10.098 35.0025L13.6897 35.8842V35.2674C13.6897 34.9861 13.9138 34.7648 14.1816 34.7627L10.3781 33.8288Z" fill="#F0A479"/>
<path d="M17.4518 21.4001C11.6357 21.4001 6.90381 16.6 6.90381 10.7001C6.90381 4.80011 11.6357 0 17.4518 0C23.2679 0 27.9998 4.80011 27.9998 10.7001C27.9998 16.6 23.2679 21.4001 17.4518 21.4001Z" fill="#E4EAF8"/>
<path d="M9.08579 10.7001C9.08579 5.17365 13.2374 0.612488 18.543 0.0570679C18.1841 0.0195312 17.8203 0 17.4518 0C11.6357 0 6.90381 4.80011 6.90381 10.7001C6.90381 16.6 11.6357 21.4001 17.4518 21.4001C17.8203 21.4001 18.1841 21.3809 18.543 21.3434C13.2374 20.7877 9.08579 16.2265 9.08579 10.7001Z" fill="#D8DCE5"/>
<path d="M17.4516 1.86102C12.647 1.86102 8.73785 5.82648 8.73785 10.7004C8.73785 15.5744 12.647 19.5399 17.4516 19.5399C22.2563 19.5399 26.1654 15.5744 26.1654 10.7004C26.1654 5.82648 22.2563 1.86102 17.4516 1.86102Z" fill="#F77C7C"/>
<path d="M10.8822 10.7004C10.8822 6.19452 14.223 2.46588 18.5238 1.92816C18.1725 1.88422 17.8148 1.86102 17.4517 1.86102C12.647 1.86102 8.73785 5.82648 8.73785 10.7004C8.73785 15.5744 12.647 19.5399 17.4517 19.5399C17.8148 19.5399 18.1725 19.517 18.5238 19.4727C14.223 18.9353 10.8822 15.2064 10.8822 10.7004Z" fill="#F25C5C"/>
<path d="M19.279 14.9818C19.279 16.071 18.4086 16.9542 17.3346 16.9542C16.2609 16.9542 15.3903 16.071 15.3903 14.9818C15.3903 13.8923 16.2609 13.0095 17.3346 13.0095C18.4086 13.0095 19.279 13.8923 19.279 14.9818Z" fill="#F25C5C"/>
<path d="M17.5347 14.9818C17.5347 14.2946 17.8813 13.6894 18.4068 13.3366C18.0994 13.13 17.7311 13.0095 17.3346 13.0095C16.2609 13.0095 15.3903 13.8923 15.3903 14.9818C15.3903 16.071 16.2609 16.9542 17.3346 16.9542C17.7311 16.9542 18.0994 16.8336 18.4068 16.627C17.8813 16.2739 17.5347 15.6691 17.5347 14.9818Z" fill="#E54A4A"/>
<path d="M21.4802 10.851C21.4802 11.4675 20.9875 11.9673 20.3798 11.9673C19.7718 11.9673 19.279 11.4675 19.279 10.851C19.279 10.2343 19.7718 9.73438 20.3798 9.73438C20.9875 9.73438 21.4802 10.2343 21.4802 10.851Z" fill="#F25C5C"/>
<path d="M21.0064 10.851C21.0064 10.5898 21.0955 10.3502 21.2432 10.1604C21.0419 9.90131 20.7302 9.73438 20.3798 9.73438C19.7718 9.73438 19.279 10.2343 19.279 10.851C19.279 11.4675 19.7718 11.9673 20.3798 11.9673C20.7302 11.9673 21.0419 11.8004 21.2432 11.5416C21.0955 11.3515 21.0064 11.1119 21.0064 10.851Z" fill="#E54A4A"/>
<path d="M18.1432 8.52466C18.1432 9.76733 17.1501 10.775 15.9248 10.775C14.6995 10.775 13.7064 9.76733 13.7064 8.52466C13.7064 7.28168 14.6995 6.27399 15.9248 6.27399C17.1501 6.27399 18.1432 7.28168 18.1432 8.52466Z" fill="#F25C5C"/>
<path d="M15.8505 8.52466C15.8505 7.67627 16.3135 6.93774 16.997 6.55414C16.679 6.37592 16.3138 6.27399 15.9248 6.27399C14.6995 6.27399 13.7064 7.28168 13.7064 8.52466C13.7064 9.76733 14.6995 10.775 15.9248 10.775C16.3138 10.775 16.679 10.6731 16.997 10.4949C16.3135 10.1113 15.8505 9.37305 15.8505 8.52466Z" fill="#E54A4A"/>
<path d="M13.6327 12.842C13.6327 13.366 13.2139 13.7908 12.6971 13.7908C12.1805 13.7908 11.7618 13.366 11.7618 12.842C11.7618 12.3177 12.1805 11.8929 12.6971 11.8929C13.2139 11.8929 13.6327 12.3177 13.6327 12.842Z" fill="#F25C5C"/>
<path d="M22.4746 6.55286C22.4746 7.26208 21.9078 7.83673 21.2089 7.83673C20.5098 7.83673 19.943 7.26208 19.943 6.55286C19.943 5.84363 20.5098 5.26898 21.2089 5.26898C21.9078 5.26898 22.4746 5.84363 22.4746 6.55286Z" fill="#F25C5C"/>
<path d="M22.0874 6.55286C22.0874 6.30292 22.159 6.07007 22.2808 5.87292C22.0573 5.51068 21.6614 5.26898 21.2089 5.26898C20.5098 5.26898 19.943 5.84393 19.943 6.55286C19.943 7.26178 20.5098 7.83673 21.2089 7.83673C21.6614 7.83673 22.0573 7.59503 22.2808 7.23279C22.159 7.03564 22.0874 6.8028 22.0874 6.55286Z" fill="#E54A4A"/>
<path d="M21.0544 14.5518C20.8451 14.3394 20.8451 13.9951 21.0544 13.7827L21.4311 13.4009C21.6405 13.1885 21.9798 13.1885 22.1892 13.4009C22.3986 13.6133 22.3986 13.9576 22.1892 14.17L21.8126 14.5521C21.6032 14.7642 21.2638 14.7645 21.0544 14.5518Z" fill="#E54A4A"/>
</svg>
