<svg width="19" height="16" viewBox="0 0 19 16" fill="none" xmlns="http://www.w3.org/2000/svg">
<path d="M18.7195 4.28153C18.6416 4.23867 16.8183 3.29198 13.7796 2.71929L13.6627 2.22063C13.3588 0.915522 12.2096 0 10.8655 0H8.13451C6.79434 0 5.64507 0.911626 5.3373 2.22063L5.22042 2.71929C2.18167 3.28809 0.358417 4.23867 0.2805 4.28153C0.109083 4.37113 0 4.55034 0 4.74513V10.9395C0 13.4212 2.01804 15.4431 4.50359 15.4431C4.79578 15.4431 5.02953 15.2094 5.02953 14.9172C5.02953 14.625 4.79578 14.3912 4.50359 14.3912C2.60242 14.3912 1.05188 12.8446 1.05188 10.9395V5.07628C1.683 4.78798 3.35042 4.10621 5.74636 3.69325C5.95284 3.65819 6.12036 3.49846 6.16711 3.29588L6.3619 2.45827C6.5567 1.63236 7.28132 1.05188 8.13451 1.05188H10.8655C11.7148 1.05188 12.4433 1.62846 12.6381 2.45827L12.8329 3.29588C12.8796 3.50236 13.0472 3.65819 13.2536 3.69325C15.6418 4.10621 17.3131 4.78798 17.9481 5.07628V10.9395C17.9481 12.8407 16.4015 14.3912 14.4964 14.3912C14.2042 14.3912 13.9705 14.625 13.9705 14.9172C13.9705 15.2094 14.2042 15.4431 14.4964 15.4431C16.9781 15.4431 19 13.4251 19 10.9395V4.74513C19 4.55034 18.8948 4.37113 18.7195 4.28153Z" fill="#518CFF"/>
<path d="M1.72159 3.20638C1.77613 3.20638 1.83068 3.19859 1.88522 3.17911C2.43843 2.99601 3.01891 2.83238 3.61107 2.69213C3.89547 2.6259 4.06689 2.34151 4.00066 2.06101C3.93443 1.77661 3.65003 1.60519 3.36953 1.67142C2.75009 1.81947 2.13845 1.99088 1.55407 2.18178C1.27747 2.27138 1.12943 2.57136 1.21903 2.84407C1.29695 3.06613 1.50343 3.20638 1.72159 3.20638Z" fill="#518CFF"/>
<path d="M9.50144 3.63481C6.16271 3.63481 3.44731 6.3502 3.44731 9.68894C3.44731 13.0277 6.16271 15.747 9.50144 15.747C12.8402 15.747 15.5556 13.0316 15.5556 9.69283C15.5556 6.3541 12.8402 3.63481 9.50144 3.63481ZM9.50144 14.6951C6.74318 14.6951 4.49918 12.4511 4.49918 9.69283C4.49918 6.93458 6.74318 4.68668 9.50144 4.68668C12.2597 4.68668 14.5037 6.93068 14.5037 9.68894C14.5037 12.4472 12.2597 14.6951 9.50144 14.6951Z" fill="#518CFF"/>
</svg>
