<svg width="3" height="13" viewBox="0 0 3 13" fill="none" xmlns="http://www.w3.org/2000/svg">
<g opacity="0.4">
<path d="M1.5 8.00432C2.32843 8.00432 3 7.3308 3 6.49996C3 5.66913 2.32843 4.99561 1.5 4.99561C0.671573 4.99561 0 5.66913 0 6.49996C0 7.3308 0.671573 8.00432 1.5 8.00432Z" fill="#001133"/>
<path d="M1.5 13C2.32843 13 3 12.3265 3 11.4957C3 10.6649 2.32843 9.99133 1.5 9.99133C0.671573 9.99133 0 10.6649 0 11.4957C0 12.3265 0.671573 13 1.5 13Z" fill="#001133"/>
<path d="M1.5 3.00872C2.32843 3.00872 3 2.33519 3 1.50436C3 0.673524 2.32843 0 1.5 0C0.671573 0 0 0.673524 0 1.50436C0 2.33519 0.671573 3.00872 1.5 3.00872Z" fill="#001133"/>
</g>
</svg>
