<svg width="18" height="11" viewBox="0 0 18 11" fill="none" xmlns="http://www.w3.org/2000/svg">
<path d="M17.1014 0.284294C16.664 0.0437378 16.161 0.0437379 15.7455 0.306163L12.8807 1.99006V1.66203C12.8807 0.743539 12.1372 0 11.2187 0H1.66203C0.743539 0 0 0.743539 0 1.66203V9.33797C0 10.2565 0.743539 11 1.66203 11H11.2406C12.159 11 12.9026 10.2565 12.9026 9.33797V8.94433L15.7893 10.6282C16.008 10.7594 16.2485 10.8251 16.4672 10.8251C16.7078 10.8251 16.9264 10.7594 17.1451 10.6501C17.5825 10.4095 17.8231 9.97217 17.8231 9.46918L17.8012 1.46521C17.8012 0.984096 17.5388 0.54672 17.1014 0.284294ZM12.0278 9.33797C12.0278 9.77535 11.6779 10.1252 11.2406 10.1252H1.66203C1.22465 10.1252 0.874752 9.77535 0.874752 9.33797V1.6839C0.874752 1.24652 1.22465 0.89662 1.66203 0.89662H11.2406C11.6779 0.89662 12.0278 1.24652 12.0278 1.6839V9.33797ZM16.7078 9.88469C16.6421 9.92843 16.4453 10.0159 16.2266 9.88469L12.9026 7.93837V3.01789L16.2048 1.0497C16.4235 0.918489 16.6203 1.00596 16.6859 1.0497C16.7515 1.09344 16.9264 1.22465 16.9264 1.46521L16.9483 9.46918C16.9483 9.73161 16.7734 9.84095 16.7078 9.88469Z" fill="#001133"/>
</svg>
