<svg width="40" height="40" viewBox="0 0 40 40" fill="none" xmlns="http://www.w3.org/2000/svg">
<path d="M27.0781 13.7224C23.8359 13.7224 21.2076 16.3507 21.2076 19.5929V39.3963C21.2076 39.7297 21.4779 39.9999 21.8112 39.9999H23.0184C23.3518 39.9999 23.6221 39.7297 23.6221 39.3963V20.9658C23.6221 19.6323 24.703 18.5514 26.0365 18.5514H31.907V13.7224H27.0781Z" fill="#FFD959"/>
<path d="M12.9225 13.7224C16.1647 13.7224 18.793 16.3507 18.793 19.5929V39.3963C18.793 39.7297 18.5227 39.9999 18.1893 39.9999H16.9821C16.6488 39.9999 16.3785 39.7297 16.3785 39.3963V20.9658C16.3785 19.6323 15.2975 18.5514 13.964 18.5514H8.09355V13.7224H12.9225Z" fill="#FFEAA6"/>
<path d="M11.8832 16.1367C11.8832 15.3532 12.1217 14.7347 12.7348 13.9694C14.7761 11.4323 14.1938 7.67048 11.5897 5.71065C10.3398 4.76997 8.86936 4.454 7.43017 4.63967V27.6338C8.86936 27.8195 10.3399 27.5035 11.5897 26.5628C14.1938 24.6029 14.7761 20.8412 12.7348 18.3041C12.1217 17.5388 11.8832 16.9203 11.8832 16.1367Z" fill="#EA1726"/>
<path d="M10.5325 18.3038C10.0254 17.5385 9.82811 16.9201 9.82811 16.1365C9.82811 15.3529 10.0253 14.7345 10.5325 13.9692C12.2209 11.4321 11.7392 7.67025 9.58545 5.71043C8.92349 5.1081 8.18667 4.76226 7.42981 4.63945C5.87055 4.84065 4.34806 5.63091 3.18292 6.86036C0.885548 9.28465 0 12.7592 0 16.1365C0 19.5138 0.885548 22.9884 3.18292 25.4127C4.34806 26.6422 5.87055 27.4325 7.42981 27.6336C8.18667 27.5108 8.92357 27.1649 9.58545 26.5626C11.7392 24.6027 12.2209 20.841 10.5325 18.3038Z" fill="#FF4547"/>
<path d="M19.9994 14.4866C20.6661 14.4866 21.2066 13.9461 21.2066 13.2794C21.2066 12.6126 20.6661 12.0721 19.9994 12.0721C19.3327 12.0721 18.7922 12.6126 18.7922 13.2794C18.7922 13.9461 19.3327 14.4866 19.9994 14.4866Z" fill="#414851"/>
<path d="M19.9994 0C19.3327 0 18.7922 0.54052 18.7922 1.20724V8.45065C18.7922 9.11737 19.3327 9.65789 19.9994 9.65789C20.6661 9.65789 21.2066 9.11737 21.2066 8.45065V1.20724C21.2066 0.54052 20.6661 0 19.9994 0Z" fill="#414851"/>
<path d="M36.8171 6.8609C35.3609 5.32417 33.3465 4.47242 31.3997 4.60176L31.4009 27.6724C33.3474 27.8013 35.3612 26.9495 36.8171 25.4131C39.1145 22.9889 40 19.5143 40 16.1371C40 12.7598 39.1145 9.28519 36.8171 6.8609Z" fill="#EA1726"/>
<path d="M35.0653 25.4125C36.8841 22.9883 37.5851 19.5137 37.5851 16.1364C37.5851 12.7591 36.8841 9.28452 35.0653 6.86023C34.0673 5.52994 32.7382 4.71288 31.3993 4.60109C30.3507 4.67079 29.3218 5.02418 28.4102 5.7103C25.8061 7.6702 25.2239 11.432 27.2652 13.9691C27.8784 14.7344 28.1168 15.3528 28.1168 16.1364C28.1168 16.92 27.8783 17.5384 27.2652 18.3037C25.2239 20.8408 25.8061 24.6026 28.4102 26.5625C29.3222 27.2488 30.3515 27.6022 31.4005 27.6717C32.739 27.5596 34.0677 26.7424 35.0653 25.4125Z" fill="#FF4547"/>
</svg>
