<svg width="17" height="17" viewBox="0 0 17 17" fill="none" xmlns="http://www.w3.org/2000/svg">
<path d="M16.6964 15.7857H15.7857V3.33929C15.7857 3.17171 15.6497 3.03571 15.4821 3.03571H12.4999V0.303571C12.4999 0.136 12.3639 0 12.1963 0H4.80371C4.63614 0 4.50014 0.136 4.50014 0.303571V3.03571H1.51786C1.35029 3.03571 1.21429 3.17171 1.21429 3.33929V15.7857H0.303571C0.136 15.7857 0 15.9217 0 16.0893V16.6964C0 16.864 0.136 17 0.303571 17H16.6964C16.864 17 17 16.864 17 16.6964V16.0893C17 15.9217 16.864 15.7857 16.6964 15.7857ZM6.89289 2.02725H8.02764V0.893107H8.97296V2.02786H10.1077V2.97318H8.97296V4.10732H8.02764V2.97257H6.89289V2.02725ZM6.09996 5.30036H7.90075V7.09993H6.09996V5.30036ZM4.90025 13.1003H3.09946V11.3008H4.90025V13.1003ZM4.90025 10.0998H3.09946V8.30025H4.90025V10.0998ZM4.90025 7.09993H3.09946V5.30036H4.90025V7.09993ZM6.09996 8.30025H7.90075V10.0998H6.09996V8.30025ZM10.0003 15.7857H7.00036V13.1003H10.0003V15.7857ZM10.9 10.0998H9.09925V8.30025H10.9V10.0998ZM10.9 7.09993H9.09925V5.30036H10.9V7.09993ZM13.9005 13.1003H12.0998V11.3008H13.9005V13.1003ZM13.9005 10.0998H12.0998V8.30025H13.9005V10.0998ZM13.9005 7.09993H12.0998V5.30036H13.9005V7.09993Z" fill="#518CFF"/>
</svg>
