<svg width="211" height="453" viewBox="0 0 211 453" fill="none" xmlns="http://www.w3.org/2000/svg">
<circle cx="169.711" cy="289.615" r="41.061" fill="#E9F0FF"/>
<circle cx="169.711" cy="289.615" r="33.0491" fill="#C8DAFF"/>
<g filter="url(#filter0_d_7_1235)">
<circle cx="169.711" cy="289.615" r="24.0357" fill="url(#paint0_linear_7_1235)"/>
</g>
<path d="M157.61 292.956H157.326V291.781L157.98 291.759L157.61 292.956Z" fill="#892121"/>
<path d="M157.326 291.898C157.326 291.898 156.973 291.912 156.956 292.338C156.937 292.814 157.326 292.861 157.326 292.861V291.898Z" fill="#DBE4EB"/>
<path d="M157.043 292.19C157.023 292.246 157.023 292.305 157.026 292.363C157.029 292.385 157.029 292.408 157.04 292.427C157.051 292.446 157.07 292.463 157.09 292.463C157.123 292.463 157.146 292.43 157.159 292.402C157.171 292.38 157.182 292.357 157.19 292.332C157.201 292.305 157.215 292.277 157.226 292.249C157.237 292.224 157.248 292.199 157.254 292.171C157.262 292.115 157.223 292.04 157.157 292.054C157.104 292.068 157.059 292.14 157.043 292.19Z" fill="white"/>
<path d="M157.479 294.436H181.586V285.518C181.586 285.039 181.202 284.649 180.72 284.641L168.187 284.485C167.241 284.474 166.337 284.88 165.716 285.596C164.737 286.728 163.465 288.751 162.202 288.954C161.364 289.091 158.645 290.026 158.22 290.757C157.479 292.029 157.479 294.436 157.479 294.436Z" fill="#DBE4EB"/>
<path d="M157.808 291.812C157.479 293.039 157.479 294.436 157.479 294.436H181.586V291.812H157.808Z" fill="#CE332F"/>
<path d="M168.04 292.268H167.667V293.904H168.04V292.268Z" fill="white"/>
<path d="M167.189 292.489L167.002 292.812L168.518 293.687L168.704 293.364L167.189 292.489Z" fill="white"/>
<path d="M167.002 293.363L167.188 293.686L168.704 292.811L168.518 292.488L167.002 293.363Z" fill="white"/>
<g opacity="0.24">
<path opacity="0.24" d="M159.046 292.836C159.018 292.897 158.996 292.967 159.004 293.034C159.015 293.1 159.066 293.167 159.132 293.175C159.191 293.181 159.249 293.145 159.283 293.098C159.319 293.05 159.338 292.992 159.361 292.939C159.497 292.624 159.806 292.399 160.14 292.327C160.173 292.318 160.206 292.313 160.234 292.293C160.262 292.274 160.279 292.235 160.262 292.204C160.248 292.179 160.215 292.168 160.187 292.163C159.761 292.093 159.221 292.455 159.046 292.836Z" fill="white"/>
</g>
<g opacity="0.24">
<path opacity="0.24" d="M175.361 292.836C175.333 292.897 175.311 292.967 175.319 293.034C175.33 293.1 175.38 293.167 175.447 293.175C175.506 293.181 175.564 293.145 175.597 293.098C175.634 293.05 175.653 292.992 175.675 292.939C175.812 292.624 176.12 292.399 176.454 292.327C176.488 292.318 176.521 292.313 176.549 292.293C176.577 292.274 176.594 292.235 176.577 292.204C176.563 292.179 176.53 292.168 176.502 292.163C176.079 292.093 175.539 292.455 175.361 292.836Z" fill="white"/>
</g>
<path d="M162.204 288.957H164.689C164.778 288.957 164.856 288.904 164.892 288.823L166.236 285.704C166.3 285.559 166.192 285.395 166.033 285.395H165.908C165.841 285.459 165.78 285.526 165.719 285.596C164.773 286.692 163.306 288.281 162.204 288.957Z" fill="#394458"/>
<path d="M161.286 292.299C160.101 292.299 159.138 293.262 159.138 294.447H163.434C163.434 293.262 162.472 292.299 161.286 292.299Z" fill="#797D7F"/>
<path d="M161.272 296.576C162.353 296.576 163.228 295.7 163.228 294.62C163.228 293.539 162.353 292.663 161.272 292.663C160.192 292.663 159.316 293.539 159.316 294.62C159.316 295.7 160.192 296.576 161.272 296.576Z" fill="#383F4C"/>
<path d="M162.438 293.047C162.847 293.406 163.106 293.932 163.106 294.519C163.106 295.599 162.229 296.475 161.15 296.475C160.713 296.475 160.312 296.334 159.987 296.091C160.332 296.392 160.782 296.576 161.275 296.576C162.355 296.576 163.231 295.699 163.231 294.619C163.228 293.977 162.917 293.403 162.438 293.047Z" fill="black"/>
<path d="M161.272 296.147C162.116 296.147 162.8 295.463 162.8 294.619C162.8 293.776 162.116 293.092 161.272 293.092C160.428 293.092 159.744 293.776 159.744 294.619C159.744 295.463 160.428 296.147 161.272 296.147Z" fill="#4D5768"/>
<path d="M161.228 295.794C161.901 295.794 162.446 295.248 162.446 294.575C162.446 293.902 161.901 293.356 161.228 293.356C160.555 293.356 160.009 293.902 160.009 294.575C160.009 295.248 160.555 295.794 161.228 295.794Z" fill="#383F4C"/>
<path d="M161.272 295.794C161.921 295.794 162.446 295.268 162.446 294.62C162.446 293.971 161.921 293.445 161.272 293.445C160.624 293.445 160.098 293.971 160.098 294.62C160.098 295.268 160.624 295.794 161.272 295.794Z" fill="#677589"/>
<path d="M161.272 295.705C161.872 295.705 162.357 295.219 162.357 294.62C162.357 294.02 161.872 293.534 161.272 293.534C160.673 293.534 160.187 294.02 160.187 294.62C160.187 295.219 160.673 295.705 161.272 295.705Z" fill="#7A8BA0"/>
<g opacity="0.22">
<path opacity="0.22" d="M160.602 294.082C160.465 294.252 160.426 294.475 160.432 294.692C160.435 294.814 160.468 294.942 160.554 295.031C160.64 295.12 160.788 295.154 160.891 295.087C160.983 295.026 161.016 294.906 161.024 294.798C161.036 294.689 161.03 294.572 161.077 294.472C161.136 294.35 161.261 294.272 161.389 294.224C161.456 294.199 161.525 294.177 161.584 294.135C161.837 293.943 161.67 293.762 161.289 293.762C161.013 293.76 160.81 293.821 160.602 294.082Z" fill="white"/>
</g>
<path d="M177.581 292.31C176.396 292.31 175.433 293.273 175.433 294.458H179.73C179.73 293.27 178.767 292.31 177.581 292.31Z" fill="#797D7F"/>
<path d="M177.57 296.584C178.651 296.584 179.526 295.708 179.526 294.628C179.526 293.548 178.651 292.672 177.57 292.672C176.49 292.672 175.614 293.548 175.614 294.628C175.614 295.708 176.49 296.584 177.57 296.584Z" fill="#383F4C"/>
<path d="M178.733 293.058C179.142 293.417 179.401 293.943 179.401 294.53C179.401 295.61 178.525 296.487 177.445 296.487C177.008 296.487 176.607 296.345 176.282 296.103C176.627 296.403 177.078 296.587 177.57 296.587C178.65 296.587 179.526 295.71 179.526 294.631C179.524 293.985 179.212 293.415 178.733 293.058Z" fill="black"/>
<path d="M177.57 296.156C178.414 296.156 179.098 295.472 179.098 294.628C179.098 293.784 178.414 293.1 177.57 293.1C176.726 293.1 176.042 293.784 176.042 294.628C176.042 295.472 176.726 296.156 177.57 296.156Z" fill="#4D5768"/>
<path d="M177.526 295.802C178.199 295.802 178.744 295.256 178.744 294.583C178.744 293.91 178.199 293.365 177.526 293.365C176.853 293.365 176.307 293.91 176.307 294.583C176.307 295.256 176.853 295.802 177.526 295.802Z" fill="#383F4C"/>
<path d="M177.57 295.802C178.219 295.802 178.744 295.276 178.744 294.628C178.744 293.979 178.219 293.454 177.57 293.454C176.922 293.454 176.396 293.979 176.396 294.628C176.396 295.276 176.922 295.802 177.57 295.802Z" fill="#677589"/>
<path d="M177.57 295.713C178.17 295.713 178.655 295.227 178.655 294.628C178.655 294.028 178.17 293.543 177.57 293.543C176.971 293.543 176.485 294.028 176.485 294.628C176.485 295.227 176.971 295.713 177.57 295.713Z" fill="#7A8BA0"/>
<g opacity="0.22">
<path opacity="0.22" d="M176.897 294.094C176.76 294.263 176.721 294.486 176.727 294.703C176.73 294.825 176.763 294.953 176.85 295.042C176.936 295.131 177.083 295.165 177.186 295.098C177.278 295.037 177.311 294.917 177.32 294.809C177.331 294.7 177.325 294.583 177.373 294.483C177.431 294.361 177.556 294.283 177.684 294.235C177.751 294.21 177.821 294.188 177.879 294.146C178.132 293.954 177.965 293.774 177.584 293.774C177.309 293.768 177.106 293.832 176.897 294.094Z" fill="white"/>
</g>
<path d="M166.935 285.629L165.93 288.47C165.85 288.695 166.017 288.932 166.256 288.932H169.798C169.99 288.932 170.143 288.776 170.143 288.587V285.743C170.143 285.551 169.987 285.398 169.798 285.398H167.26C167.116 285.398 166.985 285.49 166.935 285.629Z" fill="#394458"/>
<path d="M166.328 288.701L167.333 285.86C167.383 285.721 167.514 285.629 167.658 285.629H170.135C170.088 285.495 169.96 285.398 169.809 285.398H167.272C167.124 285.398 166.993 285.49 166.946 285.629L165.942 288.47C165.861 288.695 166.028 288.932 166.267 288.932H166.328C166.303 288.86 166.3 288.779 166.328 288.701Z" fill="black"/>
<path d="M173.75 294.016H171.501C171.231 294.016 171.014 293.796 171.014 293.529V292.847C171.014 292.577 171.234 292.36 171.501 292.36H173.75C174.02 292.36 174.237 292.58 174.237 292.847V293.529C174.237 293.796 174.02 294.016 173.75 294.016ZM171.501 292.399C171.256 292.399 171.056 292.599 171.056 292.844V293.526C171.056 293.771 171.256 293.971 171.501 293.971H173.75C173.994 293.971 174.195 293.771 174.195 293.526V292.844C174.195 292.599 173.994 292.399 173.75 292.399H171.501Z" fill="#394458"/>
<path d="M158.256 294.436H157.335C157.268 294.436 157.212 294.38 157.212 294.314V293.142C157.212 293.075 157.268 293.02 157.335 293.02H158.256C158.439 293.02 158.59 293.17 158.59 293.354V294.099C158.59 294.289 158.439 294.436 158.256 294.436Z" fill="#797D7F"/>
<path d="M181.586 291.453V290.462H158.512C158.387 290.549 158.289 290.646 158.222 290.76C158.103 290.966 158.003 291.203 157.916 291.453H181.586Z" fill="#CE332F"/>
<path d="M170.146 294.122H165.471C165.435 294.122 165.432 294.074 165.432 293.71C165.432 293.29 165.429 292.586 165.327 291.862C165.168 290.738 164.675 290.407 164.673 290.404C164.664 290.398 164.661 290.39 164.664 290.382L166.584 285.195C166.587 285.186 166.595 285.181 166.604 285.181H170.193C170.433 285.181 170.625 285.376 170.625 285.612V293.643C170.622 293.907 170.41 294.122 170.146 294.122ZM165.48 294.083H170.146C170.388 294.083 170.583 293.885 170.583 293.646V285.612C170.583 285.395 170.408 285.22 170.191 285.22H166.615L164.703 290.379C164.784 290.44 165.215 290.799 165.363 291.854C165.466 292.58 165.466 293.287 165.468 293.707C165.471 293.888 165.471 294.046 165.48 294.083Z" fill="#394458"/>
<path d="M173.608 291.915H171.643C171.295 291.915 171.014 291.634 171.014 291.286V285.81C171.014 285.462 171.295 285.181 171.643 285.181H173.608C173.956 285.181 174.237 285.462 174.237 285.81V291.286C174.237 291.634 173.956 291.915 173.608 291.915ZM171.643 285.223C171.32 285.223 171.056 285.487 171.056 285.81V291.286C171.056 291.609 171.32 291.873 171.643 291.873H173.608C173.93 291.873 174.195 291.609 174.195 291.286V285.81C174.195 285.487 173.93 285.223 173.608 285.223H171.643Z" fill="#394458"/>
<path d="M169.768 290.173C169.964 290.173 170.124 290.013 170.124 289.817C170.124 289.62 169.964 289.46 169.768 289.46C169.571 289.46 169.411 289.62 169.411 289.817C169.411 290.013 169.571 290.173 169.768 290.173Z" fill="#CBD3D8"/>
<path d="M170.205 289.78C170.205 289.819 170.174 289.85 170.135 289.85H169.367C169.328 289.85 169.297 289.819 169.297 289.78C169.297 289.741 169.328 289.711 169.367 289.711H170.135C170.174 289.711 170.205 289.741 170.205 289.78Z" fill="#2B2A25"/>
<path d="M178.241 285.626H177.375V289.422H178.241V285.626Z" fill="#CE332F"/>
<path d="M176.269 286.135L175.836 286.884L179.347 288.911L179.78 288.162L176.269 286.135Z" fill="#CE332F"/>
<path d="M175.835 288.162L176.268 288.912L179.779 286.884L179.346 286.135L175.835 288.162Z" fill="#CE332F"/>
<path d="M173.555 286.804H171.696C171.579 286.804 171.485 286.709 171.485 286.592V285.78C171.485 285.663 171.579 285.568 171.696 285.568H173.555C173.672 285.568 173.766 285.663 173.766 285.78V286.592C173.766 286.709 173.672 286.804 173.555 286.804Z" fill="#394458"/>
<path d="M171.663 286.79V285.975C171.663 285.858 171.757 285.766 171.874 285.766H173.733C173.744 285.766 173.755 285.766 173.766 285.769C173.761 285.657 173.669 285.571 173.558 285.571H171.699C171.582 285.571 171.487 285.666 171.487 285.783V286.595C171.487 286.701 171.565 286.787 171.665 286.801C171.663 286.798 171.663 286.793 171.663 286.79Z" fill="black"/>
<g opacity="0.23">
<path opacity="0.23" d="M171.485 286.096L172.013 285.571C172.013 285.571 172.489 285.526 172.447 285.571C172.408 285.615 171.487 286.519 171.487 286.519L171.485 286.096Z" fill="white"/>
</g>
<g opacity="0.23">
<path opacity="0.23" d="M171.966 286.801L173.232 285.571L173.377 285.551L172.289 286.803L171.966 286.801Z" fill="white"/>
</g>
<path d="M165.994 290.624L166.095 291.295H165.916L165.908 291.175H165.847L165.836 291.295H165.655L165.744 290.624H165.994ZM165.9 291.055C165.891 290.98 165.883 290.886 165.872 290.774C165.855 290.902 165.844 290.997 165.839 291.055H165.9Z" fill="white"/>
<path d="M166.662 290.624V291.294H166.509V290.841L166.448 291.294H166.339L166.275 290.852V291.294H166.122V290.624H166.348C166.353 290.665 166.362 290.713 166.367 290.766L166.392 290.935L166.431 290.621H166.662V290.624Z" fill="white"/>
<path d="M166.732 290.624H166.907C166.963 290.624 167.004 290.629 167.032 290.638C167.06 290.646 167.082 290.663 167.102 290.69C167.119 290.715 167.127 290.757 167.127 290.816C167.127 290.855 167.121 290.882 167.107 290.896C167.096 290.913 167.071 290.924 167.035 290.933C167.077 290.941 167.102 290.958 167.119 290.977C167.132 290.999 167.141 291.03 167.141 291.074V291.136C167.141 291.18 167.135 291.214 167.124 291.236C167.113 291.258 167.096 291.272 167.074 291.28C167.052 291.289 167.004 291.291 166.935 291.291H166.732V290.624ZM166.907 290.738V290.888C166.915 290.888 166.921 290.888 166.924 290.888C166.94 290.888 166.952 290.882 166.957 290.874C166.963 290.866 166.965 290.841 166.965 290.802C166.965 290.779 166.963 290.766 166.96 290.757C166.957 290.749 166.952 290.743 166.946 290.741C166.935 290.738 166.924 290.738 166.907 290.738ZM166.907 290.991V291.177C166.932 291.177 166.946 291.172 166.954 291.166C166.96 291.161 166.965 291.141 166.965 291.116V291.052C166.965 291.024 166.963 291.005 166.957 290.999C166.949 290.997 166.932 290.991 166.907 290.991Z" fill="white"/>
<path d="M167.597 290.624V291.072C167.597 291.122 167.594 291.158 167.592 291.18C167.589 291.2 167.578 291.222 167.561 291.244C167.544 291.266 167.522 291.283 167.497 291.294C167.469 291.305 167.439 291.311 167.402 291.311C167.363 291.311 167.327 291.305 167.297 291.292C167.266 291.278 167.244 291.261 167.227 291.239C167.213 291.216 167.202 291.194 167.199 291.172C167.196 291.15 167.196 291.1 167.196 291.022V290.624H167.372V291.127C167.372 291.158 167.375 291.175 167.377 291.183C167.38 291.191 167.386 291.194 167.397 291.194C167.408 291.194 167.416 291.189 167.419 291.18C167.422 291.172 167.425 291.15 167.425 291.116V290.621H167.597V290.624Z" fill="white"/>
<path d="M167.839 290.624V291.161H167.945V291.294H167.664V290.624H167.839Z" fill="white"/>
<path d="M168.309 290.624L168.41 291.294H168.232L168.223 291.175H168.162L168.151 291.294H167.97L168.059 290.624H168.309ZM168.218 291.055C168.209 290.98 168.201 290.885 168.19 290.774C168.173 290.902 168.162 290.997 168.156 291.055H168.218Z" fill="white"/>
<path d="M168.83 290.624V291.294H168.677L168.585 290.988V291.294H168.44V290.624H168.585L168.682 290.927V290.624H168.83Z" fill="white"/>
<path d="M169.308 290.916H169.133V290.799C169.133 290.766 169.13 290.743 169.128 290.735C169.125 290.727 169.116 290.721 169.103 290.721C169.089 290.721 169.08 290.727 169.075 290.738C169.072 290.749 169.069 290.771 169.069 290.805V291.116C169.069 291.15 169.072 291.169 169.075 291.18C169.078 291.191 169.089 291.194 169.1 291.194C169.114 291.194 169.122 291.189 169.125 291.18C169.128 291.169 169.13 291.147 169.13 291.111V291.027H169.306V291.052C169.306 291.122 169.3 291.172 169.292 291.2C169.281 291.227 169.261 291.255 169.228 291.275C169.194 291.297 169.153 291.308 169.103 291.308C169.052 291.308 169.008 291.3 168.977 291.28C168.944 291.261 168.922 291.236 168.911 291.202C168.899 291.169 168.894 291.122 168.894 291.055V290.86C168.894 290.813 168.897 290.777 168.899 290.752C168.902 290.727 168.913 290.704 168.93 290.682C168.947 290.66 168.969 290.643 169 290.629C169.027 290.615 169.064 290.61 169.1 290.61C169.15 290.61 169.194 290.621 169.228 290.64C169.261 290.66 169.283 290.685 169.295 290.715C169.306 290.746 169.311 290.791 169.311 290.855V290.916H169.308Z" fill="white"/>
<path d="M169.37 290.624H169.662V290.757H169.545V290.885H169.654V291.013H169.545V291.161H169.673V291.294H169.37V290.624Z" fill="white"/>
<g opacity="0.99">
<path opacity="0.99" d="M179.39 285.273C179.551 285.27 179.71 285.267 179.871 285.262C180.161 285.256 180.492 285.267 180.681 285.487C180.82 285.651 180.84 285.882 180.851 286.094C180.868 286.405 180.887 286.717 180.904 287.029C180.907 287.073 180.912 287.126 180.948 287.154C180.993 287.19 181.065 287.162 181.099 287.115C181.132 287.068 181.135 287.006 181.138 286.948C181.157 286.436 181.146 285.921 181.101 285.409C181.093 285.32 181.085 285.225 181.037 285.15C180.96 285.025 180.801 284.981 180.656 284.956C180.23 284.88 179.794 284.908 179.365 284.947C179.237 284.958 178.967 284.928 179.006 285.103C179.037 285.239 179.29 285.273 179.39 285.273Z" fill="white"/>
</g>
<g opacity="0.23">
<path opacity="0.23" d="M166.387 287.179L168.41 285.398H168.894L166.005 288.284L166.387 287.179Z" fill="white"/>
</g>
<g opacity="0.23">
<path opacity="0.23" d="M166.509 288.929C166.54 288.929 170.138 285.629 170.138 285.629V285.835L166.938 288.957L166.509 288.929Z" fill="white"/>
</g>
<g opacity="0.23">
<path opacity="0.23" d="M162.616 288.957L166.006 286.185L165.8 286.72L163.445 288.957H162.616Z" fill="white"/>
</g>
<g opacity="0.25">
<path opacity="0.25" d="M160.362 290.042C159.948 290.204 159.527 290.371 159.185 290.657C159.107 290.724 159.029 290.802 159.018 290.905C159.002 291.077 159.199 291.208 159.372 291.191C159.544 291.175 159.692 291.066 159.831 290.963C160.429 290.532 161.1 290.198 161.806 289.984C162.199 289.864 162.638 289.758 162.872 289.419C162.894 289.386 162.307 289.291 162.254 289.296C162.043 289.308 161.921 289.377 161.748 289.477C161.325 289.722 160.816 289.864 160.362 290.042Z" fill="white"/>
</g>
<path d="M169.322 283.603C169.297 283.553 168.841 283.559 168.777 283.603C168.713 283.648 168.649 284.213 168.649 284.213H169.417C169.417 284.21 169.348 283.653 169.322 283.603Z" fill="#3F48EF"/>
<path d="M169.453 284.21H168.574V284.485H169.453V284.21Z" fill="#892121"/>
<path d="M168.76 283.962C168.755 283.987 168.749 284.018 168.766 284.037C168.777 284.051 168.791 284.057 168.808 284.062C168.844 284.076 168.886 284.087 168.913 284.062C168.927 284.048 168.933 284.029 168.936 284.009C168.952 283.926 169.019 283.712 168.911 283.67C168.785 283.623 168.777 283.89 168.76 283.962Z" fill="#3792ED"/>
<path d="M170.046 284.51L171.056 283.968C171.151 283.918 171.256 283.89 171.365 283.89H178.931C179.226 283.89 179.482 284.087 179.56 284.371L179.629 284.63L170.046 284.51Z" fill="#CE332F"/>
<g opacity="0.23">
<path opacity="0.23" d="M174.557 284.162C175.99 284.179 177.426 284.193 178.859 284.21C178.92 284.21 179 284.19 178.998 284.129C178.995 284.079 178.936 284.057 178.889 284.048C178.589 283.993 178.283 284.015 177.979 284.029C176.911 284.073 175.845 283.968 174.776 283.973C174.696 283.973 174.493 283.937 174.426 283.995C174.317 284.09 174.468 284.162 174.557 284.162Z" fill="white"/>
</g>
<path d="M0.654621 449.369H0.37079V448.195L1.02471 448.172L0.654621 449.369Z" fill="#892121"/>
<path d="M0.3708 448.311C0.3708 448.311 0.0174028 448.325 0.000706838 448.751C-0.0187718 449.227 0.3708 449.274 0.3708 449.274V448.311Z" fill="#DBE4EB"/>
<path d="M0.0869632 448.604C0.0674846 448.659 0.0674846 448.718 0.0702673 448.776C0.0730499 448.798 0.0730499 448.821 0.0841806 448.84C0.0953112 448.86 0.11479 448.876 0.134268 448.876C0.16766 448.876 0.189922 448.843 0.203835 448.815C0.214965 448.793 0.226096 448.771 0.234444 448.746C0.245575 448.718 0.259488 448.69 0.270619 448.662C0.281749 448.637 0.29288 448.612 0.298445 448.584C0.306793 448.528 0.267836 448.453 0.201052 448.467C0.148182 448.481 0.103659 448.554 0.0869632 448.604Z" fill="white"/>
<path d="M0.52385 450.849H24.63V441.931C24.63 441.452 24.246 441.063 23.7646 441.054L11.2315 440.898C10.2854 440.887 9.38105 441.294 8.76052 442.009C7.78102 443.141 6.50935 445.164 5.24602 445.367C4.40844 445.504 1.68978 446.439 1.26404 447.171C0.52385 448.442 0.52385 450.849 0.52385 450.849Z" fill="#DBE4EB"/>
<path d="M0.852203 448.225C0.52385 449.452 0.52385 450.849 0.52385 450.849H24.63V448.225H0.852203Z" fill="#CE332F"/>
<path d="M11.084 448.681H10.7112V450.317H11.084V448.681Z" fill="white"/>
<path d="M10.2331 448.902L10.0467 449.225L11.5624 450.1L11.7489 449.778L10.2331 448.902Z" fill="white"/>
<path d="M10.0464 449.776L10.2329 450.099L11.7486 449.224L11.5622 448.901L10.0464 449.776Z" fill="white"/>
<g opacity="0.24">
<path opacity="0.24" d="M2.09047 449.249C2.06265 449.31 2.04039 449.38 2.04873 449.447C2.05986 449.513 2.10995 449.58 2.17674 449.589C2.23517 449.594 2.29361 449.558 2.327 449.511C2.36317 449.463 2.38265 449.405 2.40491 449.352C2.54126 449.038 2.85014 448.812 3.18406 448.74C3.21745 448.732 3.25084 448.726 3.27867 448.707C3.3065 448.687 3.32319 448.648 3.3065 448.617C3.29258 448.592 3.25919 448.581 3.23136 448.576C2.80562 448.506 2.26578 448.868 2.09047 449.249Z" fill="white"/>
</g>
<g opacity="0.24">
<path opacity="0.24" d="M18.4052 449.249C18.3774 449.31 18.3551 449.38 18.3635 449.447C18.3746 449.513 18.4247 449.58 18.4915 449.589C18.5499 449.594 18.6083 449.558 18.6417 449.511C18.6779 449.463 18.6974 449.405 18.7197 449.352C18.856 449.038 19.1649 448.812 19.4988 448.74C19.5322 448.732 19.5656 448.726 19.5934 448.707C19.6212 448.687 19.6379 448.648 19.6212 448.617C19.6073 448.592 19.5739 448.581 19.5461 448.576C19.1231 448.506 18.5833 448.868 18.4052 449.249Z" fill="white"/>
</g>
<path d="M5.2488 445.37H7.73371C7.82276 445.37 7.90067 445.317 7.93685 445.237L9.28087 442.117C9.34487 441.973 9.23635 441.808 9.07773 441.808H8.95252C8.88573 441.872 8.82451 441.939 8.76329 442.009C7.81719 443.105 6.35073 444.694 5.2488 445.37Z" fill="#394458"/>
<path d="M4.33053 448.712C3.14512 448.712 2.18232 449.675 2.18232 450.86H6.47874C6.47874 449.675 5.51594 448.712 4.33053 448.712Z" fill="#797D7F"/>
<path d="M4.31662 452.989C5.397 452.989 6.27283 452.113 6.27283 451.033C6.27283 449.953 5.397 449.077 4.31662 449.077C3.23624 449.077 2.36041 449.953 2.36041 451.033C2.36041 452.113 3.23624 452.989 4.31662 452.989Z" fill="#383F4C"/>
<path d="M5.48255 449.46C5.8916 449.819 6.15038 450.345 6.15038 450.933C6.15038 452.012 5.27385 452.889 4.19417 452.889C3.7573 452.889 3.3566 452.747 3.03102 452.505C3.37607 452.805 3.82686 452.989 4.31939 452.989C5.39907 452.989 6.2756 452.112 6.2756 451.033C6.27282 450.39 5.96116 449.817 5.48255 449.46Z" fill="black"/>
<path d="M4.31661 452.56C5.16033 452.56 5.84429 451.876 5.84429 451.033C5.84429 450.189 5.16033 449.505 4.31661 449.505C3.4729 449.505 2.78893 450.189 2.78893 451.033C2.78893 451.876 3.4729 452.56 4.31661 452.56Z" fill="#4D5768"/>
<path d="M4.27208 452.207C4.94521 452.207 5.49088 451.661 5.49088 450.988C5.49088 450.315 4.94521 449.769 4.27208 449.769C3.59895 449.769 3.05327 450.315 3.05327 450.988C3.05327 451.661 3.59895 452.207 4.27208 452.207Z" fill="#383F4C"/>
<path d="M4.31662 452.207C4.96515 452.207 5.4909 451.681 5.4909 451.033C5.4909 450.384 4.96515 449.858 4.31662 449.858C3.66808 449.858 3.14233 450.384 3.14233 451.033C3.14233 451.681 3.66808 452.207 4.31662 452.207Z" fill="#677589"/>
<path d="M4.3166 452.118C4.91596 452.118 5.40184 451.632 5.40184 451.033C5.40184 450.433 4.91596 449.948 4.3166 449.948C3.71724 449.948 3.23136 450.433 3.23136 451.033C3.23136 451.632 3.71724 452.118 4.3166 452.118Z" fill="#7A8BA0"/>
<g opacity="0.22">
<path opacity="0.22" d="M3.646 450.496C3.50965 450.665 3.47069 450.888 3.47626 451.105C3.47904 451.227 3.51243 451.355 3.59869 451.445C3.68496 451.534 3.83244 451.567 3.93539 451.5C4.02722 451.439 4.06061 451.319 4.06896 451.211C4.08009 451.102 4.07453 450.985 4.12183 450.885C4.18027 450.763 4.30549 450.685 4.43349 450.638C4.50027 450.613 4.56984 450.59 4.62828 450.549C4.8815 450.357 4.71454 450.176 4.33331 450.176C4.05783 450.173 3.8547 450.234 3.646 450.496Z" fill="white"/>
</g>
<path d="M20.6257 448.723C19.4403 448.723 18.4775 449.686 18.4775 450.872H22.774C22.774 449.683 21.8112 448.723 20.6257 448.723Z" fill="#797D7F"/>
<path d="M20.6146 452.997C21.695 452.997 22.5708 452.122 22.5708 451.041C22.5708 449.961 21.695 449.085 20.6146 449.085C19.5342 449.085 18.6584 449.961 18.6584 451.041C18.6584 452.122 19.5342 452.997 20.6146 452.997Z" fill="#383F4C"/>
<path d="M21.7778 449.472C22.1868 449.831 22.4456 450.356 22.4456 450.944C22.4456 452.023 21.5691 452.9 20.4894 452.9C20.0525 452.9 19.6518 452.758 19.3263 452.516C19.6713 452.816 20.1221 453 20.6146 453C21.6943 453 22.5708 452.123 22.5708 451.044C22.5681 450.398 22.2564 449.828 21.7778 449.472Z" fill="black"/>
<path d="M20.6146 452.569C21.4583 452.569 22.1423 451.885 22.1423 451.041C22.1423 450.197 21.4583 449.513 20.6146 449.513C19.7709 449.513 19.0869 450.197 19.0869 451.041C19.0869 451.885 19.7709 452.569 20.6146 452.569Z" fill="#4D5768"/>
<path d="M20.5701 452.215C21.2432 452.215 21.7889 451.67 21.7889 450.997C21.7889 450.323 21.2432 449.778 20.5701 449.778C19.8969 449.778 19.3513 450.323 19.3513 450.997C19.3513 451.67 19.8969 452.215 20.5701 452.215Z" fill="#383F4C"/>
<path d="M20.6146 452.215C21.2631 452.215 21.7889 451.69 21.7889 451.041C21.7889 450.393 21.2631 449.867 20.6146 449.867C19.9661 449.867 19.4403 450.393 19.4403 451.041C19.4403 451.69 19.9661 452.215 20.6146 452.215Z" fill="#677589"/>
<path d="M20.6146 452.126C21.214 452.126 21.6999 451.64 21.6999 451.041C21.6999 450.442 21.214 449.956 20.6146 449.956C20.0153 449.956 19.5294 450.442 19.5294 451.041C19.5294 451.64 20.0153 452.126 20.6146 452.126Z" fill="#7A8BA0"/>
<g opacity="0.22">
<path opacity="0.22" d="M19.9412 450.507C19.8049 450.677 19.7659 450.899 19.7715 451.116C19.7743 451.239 19.8076 451.367 19.8939 451.456C19.9802 451.545 20.1276 451.578 20.2306 451.511C20.3224 451.45 20.3558 451.33 20.3642 451.222C20.3753 451.113 20.3697 450.997 20.417 450.896C20.4755 450.774 20.6007 450.696 20.7287 450.649C20.7955 450.624 20.8651 450.601 20.9235 450.56C21.1767 450.368 21.0097 450.187 20.6285 450.187C20.353 450.181 20.1499 450.245 19.9412 450.507Z" fill="white"/>
</g>
<path d="M9.97932 442.042L8.97478 444.883C8.89408 445.109 9.06104 445.345 9.30035 445.345H12.8427C13.0347 445.345 13.1877 445.189 13.1877 445V442.156C13.1877 441.964 13.0319 441.811 12.8427 441.811H10.3049C10.1602 441.811 10.0294 441.903 9.97932 442.042Z" fill="#394458"/>
<path d="M9.37269 445.114L10.3772 442.273C10.4273 442.134 10.5581 442.042 10.7028 442.042H13.1794C13.1321 441.909 13.0041 441.811 12.8538 441.811H10.316C10.1685 441.811 10.0377 441.903 9.99044 442.042L8.9859 444.883C8.90521 445.109 9.07217 445.345 9.31147 445.345H9.37269C9.34765 445.273 9.34487 445.192 9.37269 445.114Z" fill="black"/>
<path d="M16.794 450.429H14.5456C14.2757 450.429 14.0587 450.209 14.0587 449.942V449.26C14.0587 448.99 14.2785 448.773 14.5456 448.773H16.794C17.0639 448.773 17.281 448.993 17.281 449.26V449.942C17.281 450.209 17.0639 450.429 16.794 450.429ZM14.5456 448.812C14.3008 448.812 14.1004 449.013 14.1004 449.258V449.939C14.1004 450.184 14.3008 450.384 14.5456 450.384H16.794C17.0389 450.384 17.2393 450.184 17.2393 449.939V449.258C17.2393 449.013 17.0389 448.812 16.794 448.812H14.5456Z" fill="#394458"/>
<path d="M1.3002 450.849H0.379136C0.312352 450.849 0.256699 450.794 0.256699 450.727V449.555C0.256699 449.489 0.312352 449.433 0.379136 449.433H1.3002C1.48385 449.433 1.63411 449.583 1.63411 449.767V450.513C1.63411 450.702 1.48385 450.849 1.3002 450.849Z" fill="#797D7F"/>
<path d="M24.63 447.866V446.876H1.55621C1.43099 446.962 1.33359 447.059 1.26681 447.173C1.14716 447.379 1.04698 447.616 0.960717 447.866H24.63Z" fill="#CE332F"/>
<path d="M13.1905 450.535H8.51564C8.47946 450.535 8.47668 450.487 8.47668 450.123C8.47668 449.703 8.4739 448.999 8.37094 448.275C8.21233 447.151 7.71979 446.82 7.71701 446.817C7.70866 446.811 7.70588 446.803 7.70866 446.795L9.6287 441.608C9.63148 441.6 9.63983 441.594 9.64818 441.594H13.2378C13.4771 441.594 13.6691 441.789 13.6691 442.025V450.056C13.6663 450.32 13.4549 450.535 13.1905 450.535ZM8.52398 450.496H13.1905C13.4326 450.496 13.6274 450.298 13.6274 450.059V442.025C13.6274 441.808 13.4521 441.633 13.235 441.633H9.65931L7.74762 446.792C7.82832 446.853 8.25963 447.212 8.40711 448.267C8.51007 448.993 8.51007 449.7 8.51285 450.12C8.51564 450.301 8.51563 450.46 8.52398 450.496Z" fill="#394458"/>
<path d="M16.6521 448.328H14.6876C14.3397 448.328 14.0587 448.047 14.0587 447.699V442.223C14.0587 441.875 14.3397 441.594 14.6876 441.594H16.6521C16.9999 441.594 17.281 441.875 17.281 442.223V447.699C17.281 448.047 16.9999 448.328 16.6521 448.328ZM14.6876 441.636C14.3648 441.636 14.1004 441.9 14.1004 442.223V447.699C14.1004 448.022 14.3648 448.286 14.6876 448.286H16.6521C16.9749 448.286 17.2393 448.022 17.2393 447.699V442.223C17.2393 441.9 16.9749 441.636 16.6521 441.636H14.6876Z" fill="#394458"/>
<path d="M12.812 446.586C13.0087 446.586 13.1682 446.427 13.1682 446.23C13.1682 446.033 13.0087 445.874 12.812 445.874C12.6153 445.874 12.4558 446.033 12.4558 446.23C12.4558 446.427 12.6153 446.586 12.812 446.586Z" fill="#CBD3D8"/>
<path d="M13.2489 446.194C13.2489 446.233 13.2183 446.263 13.1793 446.263H12.4113C12.3724 446.263 12.3418 446.233 12.3418 446.194C12.3418 446.155 12.3724 446.124 12.4113 446.124H13.1793C13.2183 446.124 13.2489 446.155 13.2489 446.194Z" fill="#2B2A25"/>
<path d="M21.2853 442.039H20.4199V445.835H21.2853V442.039Z" fill="#CE332F"/>
<path d="M19.3132 442.548L18.8805 443.297L22.3915 445.325L22.8242 444.575L19.3132 442.548Z" fill="#CE332F"/>
<path d="M18.8794 444.575L19.3121 445.325L22.8232 443.298L22.3905 442.548L18.8794 444.575Z" fill="#CE332F"/>
<path d="M16.5993 443.217H14.7405C14.6236 443.217 14.529 443.122 14.529 443.005V442.193C14.529 442.076 14.6236 441.981 14.7405 441.981H16.5993C16.7161 441.981 16.8108 442.076 16.8108 442.193V443.005C16.8108 443.122 16.7161 443.217 16.5993 443.217Z" fill="#394458"/>
<path d="M14.7071 443.203V442.388C14.7071 442.271 14.8017 442.179 14.9186 442.179H16.7774C16.7885 442.179 16.7997 442.179 16.8108 442.182C16.8052 442.071 16.7134 441.984 16.6021 441.984H14.7433C14.6264 441.984 14.5318 442.079 14.5318 442.196V443.008C14.5318 443.114 14.6097 443.2 14.7099 443.214C14.7071 443.211 14.7071 443.206 14.7071 443.203Z" fill="black"/>
<g opacity="0.23">
<path opacity="0.23" d="M14.529 442.51L15.0577 441.984C15.0577 441.984 15.5335 441.939 15.4918 441.984C15.4528 442.028 14.5318 442.933 14.5318 442.933L14.529 442.51Z" fill="white"/>
</g>
<g opacity="0.23">
<path opacity="0.23" d="M15.0104 443.214L16.2765 441.984L16.4212 441.964L15.3332 443.217L15.0104 443.214Z" fill="white"/>
</g>
<path d="M9.03875 447.037L9.13893 447.708H8.96084L8.95249 447.588H8.89127L8.88014 447.708H8.69927L8.78831 447.037H9.03875ZM8.94414 447.468C8.93579 447.393 8.92745 447.299 8.91631 447.187C8.89962 447.315 8.88849 447.41 8.88292 447.468H8.94414Z" fill="white"/>
<path d="M9.7066 447.037V447.707H9.55355V447.254L9.49233 447.707H9.38381L9.31981 447.265V447.707H9.16676V447.037H9.39216C9.39772 447.079 9.40607 447.126 9.41163 447.179L9.43668 447.349L9.47563 447.034H9.7066V447.037Z" fill="white"/>
<path d="M9.77612 447.037H9.95143C10.0071 447.037 10.0488 447.042 10.0767 447.051C10.1045 447.059 10.1267 447.076 10.1462 447.104C10.1629 447.129 10.1713 447.17 10.1713 447.229C10.1713 447.268 10.1657 447.296 10.1518 447.31C10.1407 447.326 10.1156 447.337 10.0794 447.346C10.1212 447.354 10.1462 447.371 10.1629 447.39C10.1768 447.413 10.1852 447.443 10.1852 447.488V447.549C10.1852 447.593 10.1796 447.627 10.1685 447.649C10.1573 447.671 10.1407 447.685 10.1184 447.694C10.0961 447.702 10.0488 447.705 9.97926 447.705H9.77612V447.037ZM9.95143 447.151V447.301C9.95978 447.301 9.96535 447.301 9.96813 447.301C9.98482 447.301 9.99595 447.296 10.0015 447.287C10.0071 447.279 10.0099 447.254 10.0099 447.215C10.0099 447.193 10.0071 447.179 10.0043 447.17C10.0015 447.162 9.99595 447.157 9.99039 447.154C9.97926 447.151 9.96813 447.151 9.95143 447.151ZM9.95143 447.404V447.591C9.97648 447.591 9.99039 447.585 9.99874 447.58C10.0043 447.574 10.0099 447.554 10.0099 447.529V447.465C10.0099 447.438 10.0071 447.418 10.0015 447.413C9.99317 447.41 9.97648 447.404 9.95143 447.404Z" fill="white"/>
<path d="M10.6416 447.037V447.485C10.6416 447.535 10.6388 447.571 10.636 447.593C10.6332 447.613 10.6221 447.635 10.6054 447.657C10.5887 447.68 10.5664 447.696 10.5414 447.707C10.5136 447.719 10.483 447.724 10.4468 447.724C10.4078 447.724 10.3717 447.719 10.341 447.705C10.3104 447.691 10.2882 447.674 10.2715 447.652C10.2576 447.63 10.2464 447.607 10.2436 447.585C10.2409 447.563 10.2409 447.513 10.2409 447.435V447.037H10.4162V447.541C10.4162 447.571 10.419 447.588 10.4217 447.596C10.4245 447.605 10.4301 447.607 10.4412 447.607C10.4523 447.607 10.4607 447.602 10.4635 447.593C10.4663 447.585 10.469 447.563 10.469 447.529V447.034H10.6416V447.037Z" fill="white"/>
<path d="M10.8837 447.037V447.574H10.9894V447.708H10.7084V447.037H10.8837Z" fill="white"/>
<path d="M11.3539 447.037L11.4541 447.708H11.276L11.2676 447.588H11.2064L11.1953 447.708H11.0144L11.1035 447.037H11.3539ZM11.2621 447.468C11.2537 447.393 11.2454 447.298 11.2342 447.187C11.2175 447.315 11.2064 447.41 11.2009 447.468H11.2621Z" fill="white"/>
<path d="M11.8743 447.037V447.708H11.7212L11.6294 447.401V447.708H11.4847V447.037H11.6294L11.7268 447.34V447.037H11.8743Z" fill="white"/>
<path d="M12.3529 447.329H12.1776V447.212C12.1776 447.179 12.1748 447.157 12.172 447.148C12.1692 447.14 12.1609 447.134 12.147 447.134C12.1331 447.134 12.1247 447.14 12.1191 447.151C12.1164 447.162 12.1136 447.184 12.1136 447.218V447.529C12.1136 447.563 12.1164 447.582 12.1191 447.593C12.1219 447.605 12.1331 447.607 12.1442 447.607C12.1581 447.607 12.1665 447.602 12.1692 447.593C12.172 447.582 12.1748 447.56 12.1748 447.524V447.44H12.3501V447.465C12.3501 447.535 12.3445 447.585 12.3362 447.613C12.3251 447.641 12.3056 447.669 12.2722 447.688C12.2388 447.71 12.1971 447.721 12.147 447.721C12.0969 447.721 12.0524 447.713 12.0218 447.694C11.9884 447.674 11.9661 447.649 11.955 447.616C11.9438 447.582 11.9383 447.535 11.9383 447.468V447.273C11.9383 447.226 11.9411 447.19 11.9438 447.165C11.9466 447.14 11.9578 447.118 11.9744 447.095C11.9911 447.073 12.0134 447.056 12.044 447.042C12.0718 447.029 12.108 447.023 12.1442 447.023C12.1943 447.023 12.2388 447.034 12.2722 447.054C12.3056 447.073 12.3278 447.098 12.339 447.129C12.3501 447.159 12.3557 447.204 12.3557 447.268V447.329H12.3529Z" fill="white"/>
<path d="M12.4141 447.037H12.7063V447.17H12.5894V447.298H12.698V447.426H12.5894V447.574H12.7174V447.708H12.4141V447.037Z" fill="white"/>
<g opacity="0.99">
<path opacity="0.99" d="M22.4345 441.686C22.5959 441.683 22.7545 441.68 22.9159 441.675C23.2053 441.669 23.5364 441.68 23.7256 441.9C23.8648 442.064 23.8843 442.295 23.8954 442.507C23.9121 442.818 23.9316 443.13 23.9483 443.442C23.951 443.486 23.9566 443.539 23.9928 443.567C24.0373 443.603 24.1097 443.575 24.143 443.528C24.1764 443.481 24.1792 443.42 24.182 443.361C24.2015 442.849 24.1903 442.334 24.1458 441.822C24.1375 441.733 24.1291 441.639 24.0818 441.563C24.0039 441.438 23.8453 441.394 23.7006 441.369C23.2749 441.294 22.838 441.321 22.4094 441.36C22.2814 441.371 22.0115 441.341 22.0505 441.516C22.0811 441.653 22.3343 441.686 22.4345 441.686Z" fill="white"/>
</g>
<g opacity="0.23">
<path opacity="0.23" d="M9.43111 443.592L11.4541 441.811H11.9383L9.04989 444.697L9.43111 443.592Z" fill="white"/>
</g>
<g opacity="0.23">
<path opacity="0.23" d="M9.55356 445.342C9.58417 445.342 13.1822 442.042 13.1822 442.042V442.248L9.98209 445.37L9.55356 445.342Z" fill="white"/>
</g>
<g opacity="0.23">
<path opacity="0.23" d="M5.66063 445.37L9.04991 442.599L8.84399 443.133L6.48987 445.37H5.66063Z" fill="white"/>
</g>
<g opacity="0.25">
<path opacity="0.25" d="M3.40667 446.455C2.99206 446.617 2.57187 446.784 2.22961 447.07C2.15169 447.137 2.07378 447.215 2.06265 447.318C2.04595 447.491 2.24352 447.621 2.41605 447.605C2.58857 447.588 2.73605 447.479 2.87518 447.376C3.47346 446.945 4.14408 446.611 4.85087 446.397C5.24323 446.277 5.68289 446.172 5.91663 445.832C5.93889 445.799 5.35175 445.704 5.29888 445.71C5.0874 445.721 4.96496 445.79 4.79243 445.891C4.36947 446.135 3.86024 446.277 3.40667 446.455Z" fill="white"/>
</g>
<path d="M12.3669 440.016C12.3418 439.966 11.8855 439.972 11.8215 440.016C11.7575 440.061 11.6935 440.626 11.6935 440.626H12.4615C12.4615 440.623 12.3919 440.066 12.3669 440.016Z" fill="#3F48EF"/>
<path d="M12.4976 440.623H11.6183V440.898H12.4976V440.623Z" fill="#892121"/>
<path d="M11.8047 440.375C11.7992 440.4 11.7936 440.431 11.8103 440.45C11.8214 440.464 11.8353 440.47 11.852 440.475C11.8882 440.489 11.9299 440.5 11.9578 440.475C11.9717 440.461 11.9772 440.442 11.98 440.423C11.9967 440.339 12.0635 440.125 11.955 440.083C11.8298 440.036 11.8214 440.303 11.8047 440.375Z" fill="#3792ED"/>
<path d="M13.0903 440.923L14.1004 440.381C14.195 440.331 14.3008 440.303 14.4093 440.303H21.9753C22.2703 440.303 22.5263 440.501 22.6042 440.784L22.6738 441.043L13.0903 440.923Z" fill="#CE332F"/>
<g opacity="0.23">
<path opacity="0.23" d="M17.601 440.576C19.0341 440.592 20.4699 440.606 21.903 440.623C21.9642 440.623 22.0449 440.603 22.0421 440.542C22.0393 440.492 21.9809 440.47 21.9336 440.462C21.6331 440.406 21.327 440.428 21.0237 440.442C19.9551 440.487 18.8894 440.381 17.8208 440.386C17.7401 440.386 17.537 440.35 17.4702 440.409C17.3617 440.503 17.512 440.576 17.601 440.576Z" fill="white"/>
</g>
<path d="M70.2138 146.444L70.1031 146.183L71.1844 145.725L71.4599 146.318L70.2138 146.444Z" fill="#892121"/>
<path d="M71.0767 145.77C71.0767 145.77 70.9261 145.45 70.5276 145.601C70.0818 145.768 70.1902 146.146 70.1902 146.146L71.0767 145.77Z" fill="#DBE4EB"/>
<path d="M70.6969 145.623C70.6381 145.627 70.5843 145.649 70.5316 145.675C70.5122 145.686 70.4917 145.695 70.4781 145.712C70.4645 145.73 70.4567 145.755 70.4643 145.773C70.4773 145.803 70.5167 145.811 70.5478 145.813C70.5726 145.814 70.5975 145.816 70.6238 145.814C70.6538 145.813 70.6848 145.815 70.7148 145.815C70.7422 145.815 70.7696 145.816 70.7974 145.81C70.8519 145.796 70.9059 145.731 70.867 145.675C70.8336 145.631 70.7496 145.619 70.6969 145.623Z" fill="white"/>
<path d="M68.7996 146.901L78.2009 169.098L86.4131 165.62C86.8538 165.433 87.0628 164.928 86.8827 164.481L82.1384 152.88C81.7797 152.004 81.0529 151.33 80.1523 151.038C78.7275 150.577 76.3687 150.195 75.689 149.111C75.2368 148.393 73.3156 146.254 72.4757 146.148C71.016 145.962 68.7996 146.901 68.7996 146.901Z" fill="#DBE4EB"/>
<path d="M71.3439 146.18C70.0858 146.356 68.7995 146.901 68.7995 146.901L78.2008 169.098L80.6171 168.075L71.3439 146.18Z" fill="#CE332F"/>
<path d="M74.9142 155.779L74.7688 155.436L73.2622 156.074L73.4076 156.417L74.9142 155.779Z" fill="white"/>
<path d="M74.3788 155.082L74.0087 155.036L73.794 156.773L74.1641 156.819L74.3788 155.082Z" fill="white"/>
<path d="M73.5011 155.251L73.2765 155.549L74.6735 156.603L74.8981 156.305L73.5011 155.251Z" fill="white"/>
<g opacity="0.24">
<path opacity="0.24" d="M70.8839 147.719C70.8167 147.718 70.7439 147.724 70.6857 147.758C70.6286 147.794 70.5866 147.866 70.6049 147.931C70.6226 147.987 70.6787 148.027 70.7353 148.039C70.793 148.054 70.8544 148.049 70.9117 148.049C71.2545 148.052 71.5825 148.249 71.7793 148.528C71.8 148.555 71.8182 148.584 71.8469 148.602C71.8757 148.62 71.9181 148.62 71.9398 148.593C71.9574 148.57 71.9547 148.535 71.9489 148.507C71.8469 148.088 71.3033 147.732 70.8839 147.719Z" fill="white"/>
</g>
<g opacity="0.24">
<path opacity="0.24" d="M77.2466 162.742C77.1794 162.741 77.1066 162.747 77.0484 162.781C76.9912 162.817 76.9493 162.889 76.9676 162.954C76.9853 163.01 77.0414 163.05 77.098 163.062C77.1556 163.077 77.217 163.072 77.2744 163.072C77.6171 163.075 77.9451 163.271 78.142 163.551C78.1627 163.578 78.1808 163.607 78.2096 163.625C78.2384 163.643 78.2808 163.643 78.3025 163.616C78.3201 163.593 78.3173 163.558 78.3116 163.53C78.2107 163.114 77.6671 162.758 77.2466 162.742Z" fill="white"/>
</g>
<path d="M75.6874 149.115L76.6565 151.403C76.6913 151.485 76.7703 151.536 76.8587 151.538L80.2553 151.559C80.4135 151.562 80.5223 151.398 80.4605 151.252L80.4116 151.136C80.3267 151.1 80.2413 151.069 80.1533 151.04C78.7748 150.596 76.7398 149.866 75.6874 149.115Z" fill="#394458"/>
<path d="M72.2521 149.573C71.7898 148.481 70.5277 147.97 69.4362 148.432L71.1118 152.389C72.2033 151.926 72.7144 150.664 72.2521 149.573Z" fill="#797D7F"/>
<path d="M68.3083 151.228C68.7296 152.223 69.8776 152.688 70.8725 152.266C71.8673 151.845 72.3322 150.697 71.9109 149.702C71.4895 148.707 70.3415 148.242 69.3467 148.664C68.3518 149.085 67.8869 150.233 68.3083 151.228Z" fill="#383F4C"/>
<path d="M72.0122 150.925C71.8412 151.442 71.4578 151.885 70.9172 152.114C69.923 152.535 68.774 152.07 68.3529 151.076C68.1826 150.674 68.157 150.249 68.2529 149.855C68.1108 150.29 68.1174 150.777 68.3095 151.23C68.7306 152.224 69.8796 152.69 70.8738 152.269C71.4646 152.015 71.8709 151.505 72.0122 150.925Z" fill="black"/>
<path d="M68.7031 151.061C69.0321 151.838 69.9287 152.201 70.7056 151.872C71.4825 151.542 71.8455 150.646 71.5165 149.869C71.1874 149.092 70.2909 148.729 69.514 149.058C68.7371 149.387 68.374 150.284 68.7031 151.061Z" fill="#4D5768"/>
<path d="M69.0111 150.882C69.2736 151.502 69.9889 151.791 70.6087 151.529C71.2285 151.266 71.5182 150.551 71.2557 149.931C70.9932 149.311 70.2779 149.022 69.6581 149.284C69.0382 149.547 68.7486 150.262 69.0111 150.882Z" fill="#383F4C"/>
<path d="M69.0284 150.923C69.2813 151.52 69.9705 151.799 70.5677 151.546C71.1649 151.293 71.4439 150.604 71.191 150.007C70.9381 149.41 70.2489 149.131 69.6517 149.384C69.0546 149.636 68.7755 150.326 69.0284 150.923Z" fill="#677589"/>
<path d="M69.1104 150.888C69.3442 151.44 69.9811 151.698 70.533 151.464C71.0849 151.23 71.3428 150.593 71.109 150.042C70.8753 149.49 70.2384 149.232 69.6865 149.466C69.1346 149.699 68.8767 150.336 69.1104 150.888Z" fill="#7A8BA0"/>
<g opacity="0.22">
<path opacity="0.22" d="M70.3428 149.638C70.1333 149.578 69.9131 149.629 69.7154 149.719C69.6038 149.77 69.4989 149.85 69.4506 149.964C69.4022 150.078 69.429 150.227 69.5306 150.296C69.6228 150.357 69.746 150.341 69.8492 150.306C69.9535 150.274 70.0589 150.223 70.1696 150.228C70.3051 150.234 70.4257 150.319 70.5192 150.418C70.5683 150.47 70.6159 150.525 70.6772 150.563C70.9527 150.721 71.0542 150.497 70.9055 150.146C70.8006 149.891 70.665 149.728 70.3428 149.638Z" fill="white"/>
</g>
<path d="M78.5968 164.582C78.1345 163.49 76.8724 162.979 75.7809 163.442L77.4565 167.398C78.5506 166.934 79.0591 165.673 78.5968 164.582Z" fill="#797D7F"/>
<path d="M74.6567 166.239C75.0781 167.233 76.2261 167.698 77.221 167.277C78.2158 166.856 78.6807 165.708 78.2594 164.713C77.838 163.718 76.69 163.253 75.6951 163.674C74.7003 164.096 74.2354 165.244 74.6567 166.239Z" fill="#383F4C"/>
<path d="M78.357 165.935C78.186 166.451 77.8026 166.895 77.262 167.124C76.2678 167.545 75.1188 167.079 74.6978 166.085C74.5274 165.683 74.5018 165.259 74.5977 164.864C74.4556 165.299 74.4623 165.786 74.6543 166.24C75.0754 167.234 76.2244 167.699 77.2186 167.278C77.8119 167.024 78.2157 166.514 78.357 165.935Z" fill="black"/>
<path d="M75.0514 166.071C75.3805 166.848 76.277 167.211 77.0539 166.882C77.8308 166.553 78.1939 165.657 77.8648 164.88C77.5358 164.103 76.6393 163.74 75.8623 164.069C75.0854 164.398 74.7224 165.294 75.0514 166.071Z" fill="#4D5768"/>
<path d="M75.3595 165.893C75.622 166.512 76.3373 166.802 76.9571 166.54C77.577 166.277 77.8666 165.562 77.6041 164.942C77.3416 164.322 76.6263 164.032 76.0065 164.295C75.3867 164.557 75.097 165.273 75.3595 165.893Z" fill="#383F4C"/>
<path d="M75.3769 165.934C75.6298 166.531 76.319 166.81 76.9162 166.557C77.5133 166.304 77.7924 165.615 77.5395 165.018C77.2866 164.42 76.5974 164.141 76.0002 164.394C75.403 164.647 75.124 165.336 75.3769 165.934Z" fill="#677589"/>
<path d="M75.4589 165.899C75.6927 166.451 76.3295 166.709 76.8814 166.475C77.4333 166.241 77.6913 165.604 77.4575 165.052C77.2238 164.5 76.5869 164.242 76.035 164.476C75.4831 164.71 75.2252 165.347 75.4589 165.899Z" fill="#7A8BA0"/>
<g opacity="0.22">
<path opacity="0.22" d="M76.6876 164.647C76.4781 164.588 76.2579 164.639 76.0602 164.728C75.9485 164.779 75.8437 164.859 75.7954 164.974C75.747 165.088 75.7738 165.237 75.8754 165.305C75.9676 165.366 76.0908 165.35 76.194 165.315C76.2983 165.283 76.4037 165.233 76.5144 165.237C76.6499 165.243 76.7705 165.328 76.864 165.428C76.9131 165.479 76.9607 165.535 77.0219 165.572C77.2975 165.731 77.3989 165.506 77.2503 165.155C77.148 164.899 77.0098 164.737 76.6876 164.647Z" fill="white"/>
</g>
<path d="M80.5968 152.173L77.5889 152.356C77.3499 152.37 77.1972 152.615 77.2906 152.836L78.672 156.098C78.7469 156.274 78.9501 156.355 79.1243 156.281L81.743 155.172C81.9198 155.097 82 154.894 81.9262 154.719L80.9365 152.383C80.88 152.249 80.7445 152.165 80.5968 152.173Z" fill="#394458"/>
<path d="M77.5314 152.812L80.5393 152.629C80.687 152.621 80.8225 152.706 80.879 152.839L81.8448 155.12C81.9494 155.024 81.9891 154.868 81.9305 154.73L80.9408 152.393C80.8833 152.257 80.7477 152.172 80.6012 152.183L77.5933 152.366C77.3543 152.38 77.2016 152.626 77.2949 152.846L77.3188 152.902C77.3756 152.851 77.4488 152.817 77.5314 152.812Z" fill="black"/>
<path d="M75.5318 161.719L74.6549 159.648C74.5496 159.4 74.6674 159.114 74.9134 159.01L75.5412 158.744C75.7897 158.639 76.0753 158.757 76.1795 159.003L77.0563 161.073C77.1616 161.322 77.0438 161.607 76.7979 161.711L76.1701 161.977C75.9241 162.081 75.637 161.967 75.5318 161.719ZM76.1436 159.018C76.0481 158.792 75.7855 158.686 75.56 158.782L74.9322 159.047C74.7068 159.143 74.6004 159.406 74.6959 159.631L75.5728 161.701C75.6683 161.927 75.9309 162.033 76.1564 161.938L76.7841 161.672C77.0096 161.576 77.116 161.314 77.0205 161.088L76.1436 159.018Z" fill="#394458"/>
<path d="M69.1023 147.616L68.7431 146.768C68.7171 146.706 68.7466 146.633 68.8081 146.607L69.8869 146.15C69.9483 146.124 70.0213 146.154 70.0473 146.215L70.4066 147.063C70.4782 147.232 70.3984 147.429 70.2293 147.501L69.5426 147.792C69.3684 147.866 69.174 147.785 69.1023 147.616Z" fill="#797D7F"/>
<path d="M80.9477 167.935L81.8599 167.548L72.8612 146.302C72.733 146.22 72.6053 146.168 72.4742 146.151C72.2379 146.122 71.9811 146.122 71.7168 146.14L80.9477 167.935Z" fill="#CE332F"/>
<path d="M74.0291 158.442L72.2059 154.137C72.1918 154.104 72.2343 154.083 72.5699 153.941C72.9569 153.777 73.604 153.5 74.2301 153.123C75.2034 152.538 75.3162 151.956 75.3177 151.952C75.3196 151.942 75.3262 151.936 75.335 151.936L80.8599 151.681C80.8687 151.68 80.8771 151.686 80.8803 151.693L82.2803 154.999C82.3736 155.219 82.2691 155.472 82.0513 155.564L74.6565 158.696C74.412 158.796 74.1322 158.685 74.0291 158.442ZM72.245 154.13L74.065 158.427C74.1594 158.65 74.4173 158.752 74.6376 158.659L82.035 155.526C82.2349 155.441 82.328 155.211 82.2433 155.011L80.8488 151.719L75.3527 151.97C75.3278 152.069 75.1655 152.606 74.2519 153.153C73.6233 153.531 72.9724 153.806 72.5866 153.973C72.4211 154.046 72.2751 154.108 72.245 154.13Z" fill="#394458"/>
<path d="M77.411 160.769L76.6449 158.96C76.5092 158.639 76.6584 158.271 76.9787 158.135L82.0213 156C82.3416 155.864 82.71 156.013 82.8457 156.334L83.6118 158.143C83.7475 158.463 83.5983 158.831 83.278 158.967L78.2354 161.103C77.9151 161.238 77.5467 161.089 77.411 160.769ZM82.8072 156.35C82.6813 156.053 82.3348 155.912 82.0376 156.038L76.995 158.174C76.6977 158.3 76.5574 158.646 76.6833 158.944L77.4495 160.753C77.5753 161.05 77.9219 161.19 78.2191 161.064L83.2617 158.928C83.559 158.803 83.6993 158.456 83.5734 158.159L82.8072 156.35Z" fill="#394458"/>
<path d="M77.5176 156.553C77.5943 156.735 77.8033 156.819 77.9844 156.742C78.1656 156.666 78.2502 156.457 78.1735 156.276C78.0968 156.094 77.8878 156.01 77.7066 156.087C77.5255 156.163 77.4408 156.372 77.5176 156.553Z" fill="#CBD3D8"/>
<path d="M78.0493 156.803C78.0134 156.818 77.9733 156.802 77.9581 156.766L77.6586 156.059C77.6434 156.023 77.6596 155.983 77.6955 155.967C77.7314 155.952 77.7715 155.968 77.7867 156.004L78.0862 156.711C78.1014 156.747 78.0851 156.787 78.0493 156.803Z" fill="#2B2A25"/>
<path d="M85.0086 162.583L84.6711 161.786L81.1761 163.266L81.5136 164.063L85.0086 162.583Z" fill="#CE332F"/>
<path d="M83.7712 160.965L82.9123 160.859L82.415 164.882L83.2738 164.989L83.7712 160.965Z" fill="#CE332F"/>
<path d="M81.7352 161.356L81.2139 162.047L84.4498 164.489L84.9712 163.799L81.7352 161.356Z" fill="#CE332F"/>
<path d="M82.0969 158.727L81.3719 157.015C81.3263 156.908 81.3766 156.784 81.4842 156.738L82.2324 156.421C82.34 156.375 82.464 156.426 82.5096 156.533L83.2345 158.245C83.2801 158.353 83.2299 158.477 83.1223 158.522L82.3741 158.839C82.2664 158.885 82.1424 158.834 82.0969 158.727Z" fill="#394458"/>
<path d="M81.3717 156.979L82.1224 156.661C82.23 156.616 82.3515 156.667 82.3971 156.774L83.122 158.486C83.1263 158.496 83.1307 158.507 83.1325 158.518C83.2328 158.469 83.2764 158.351 83.233 158.249L82.5081 156.537C82.4625 156.429 82.3385 156.379 82.2309 156.425L81.4827 156.742C81.3853 156.783 81.3362 156.888 81.3625 156.986C81.364 156.982 81.3691 156.98 81.3717 156.979Z" fill="black"/>
<g opacity="0.23">
<path opacity="0.23" d="M81.9407 156.545L82.6312 156.826C82.6312 156.826 82.8577 157.247 82.8005 157.226C82.7443 157.208 81.5523 156.712 81.5523 156.712L81.9407 156.545Z" fill="white"/>
</g>
<g opacity="0.23">
<path opacity="0.23" d="M81.4801 157.263L83.1064 157.949L83.1808 158.074L81.6034 157.561L81.4801 157.263Z" fill="white"/>
</g>
<path d="M75.6305 153.255L75.0521 153.609L74.9826 153.445L75.0895 153.39L75.0657 153.334L74.9511 153.37L74.8806 153.204L75.5328 153.024L75.6305 153.255ZM75.1965 153.336C75.2624 153.299 75.3463 153.254 75.4444 153.201C75.32 153.235 75.2286 153.262 75.1726 153.28L75.1965 153.336Z" fill="white"/>
<path d="M75.8912 153.87L75.2737 154.131L75.214 153.99L75.6317 153.813L75.1902 153.934L75.1478 153.834L75.5303 153.603L75.1229 153.775L75.0632 153.634L75.6807 153.373L75.7686 153.58C75.7323 153.602 75.692 153.628 75.6455 153.653L75.499 153.743L75.8037 153.656L75.8938 153.869L75.8912 153.87Z" fill="white"/>
<path d="M75.9184 153.934L75.9867 154.095C76.0084 154.146 76.0196 154.187 76.0228 154.216C76.0259 154.245 76.0192 154.272 76.0012 154.301C75.9847 154.326 75.9495 154.35 75.8957 154.373C75.8598 154.388 75.832 154.393 75.8138 154.386C75.794 154.382 75.774 154.364 75.7522 154.334C75.7608 154.375 75.7552 154.405 75.7438 154.428C75.7287 154.449 75.7038 154.469 75.6628 154.486L75.6064 154.51C75.5654 154.527 75.5325 154.535 75.5077 154.534C75.4828 154.532 75.4635 154.522 75.4471 154.505C75.4308 154.488 75.4098 154.445 75.3826 154.381L75.3034 154.194L75.9184 153.934ZM75.8817 154.14L75.7433 154.198C75.7466 154.206 75.7487 154.211 75.7498 154.214C75.7563 154.229 75.7658 154.237 75.7757 154.239C75.7855 154.241 75.8097 154.234 75.8455 154.218C75.866 154.21 75.8778 154.202 75.8844 154.196C75.891 154.19 75.8939 154.183 75.8943 154.177C75.8925 154.165 75.8882 154.155 75.8817 154.14ZM75.6485 154.238L75.4768 154.311C75.4866 154.334 75.4971 154.345 75.5055 154.35C75.5128 154.353 75.5329 154.351 75.556 154.341L75.6149 154.316C75.6405 154.305 75.6574 154.295 75.6604 154.288C75.6597 154.279 75.6583 154.262 75.6485 154.238Z" fill="white"/>
<path d="M76.2559 154.731L75.8433 154.905C75.7972 154.925 75.7628 154.936 75.7412 154.943C75.7222 154.948 75.6974 154.946 75.6704 154.939C75.6434 154.933 75.6193 154.919 75.5993 154.9C75.5782 154.879 75.5611 154.853 75.547 154.819C75.5318 154.783 75.5228 154.748 75.5237 154.714C75.5246 154.681 75.5313 154.654 75.5453 154.63C75.5603 154.608 75.5765 154.589 75.5959 154.578C75.6153 154.567 75.6614 154.547 75.7332 154.517L76.0996 154.362L76.168 154.523L75.7042 154.72C75.676 154.731 75.6617 154.741 75.6551 154.746C75.6485 154.752 75.6481 154.758 75.6525 154.769C75.6568 154.779 75.6652 154.784 75.674 154.784C75.6827 154.783 75.7043 154.777 75.7351 154.764L76.1912 154.571L76.2584 154.73L76.2559 154.731Z" fill="white"/>
<path d="M76.3503 154.954L75.8558 155.163L75.897 155.26L75.774 155.312L75.6644 155.054L76.2819 154.792L76.3503 154.954Z" fill="white"/>
<path d="M76.5337 155.387L75.9553 155.74L75.8858 155.576L75.9927 155.522L75.9689 155.466L75.8543 155.502L75.7838 155.336L76.436 155.156L76.5337 155.387ZM76.1007 155.47C76.1667 155.433 76.2505 155.389 76.3487 155.335C76.2243 155.37 76.1328 155.396 76.0769 155.414L76.1007 155.47Z" fill="white"/>
<path d="M76.7366 155.866L76.1191 156.127L76.0594 155.986L76.3055 155.782L76.0236 155.902L75.9672 155.769L76.5847 155.507L76.6411 155.64L76.3998 155.848L76.6791 155.73L76.7366 155.866Z" fill="white"/>
<path d="M76.6543 156.42L76.5859 156.259L76.6935 156.213C76.7243 156.2 76.7437 156.189 76.7503 156.183C76.7569 156.178 76.7588 156.168 76.7533 156.155C76.7479 156.142 76.7395 156.137 76.7271 156.136C76.7158 156.138 76.6942 156.144 76.6634 156.157L76.3765 156.278C76.3457 156.291 76.3289 156.301 76.3197 156.308C76.3105 156.315 76.3123 156.327 76.3167 156.337C76.3221 156.35 76.3305 156.355 76.3392 156.354C76.3506 156.353 76.3721 156.347 76.4055 156.332L76.4823 156.3L76.5507 156.461L76.5276 156.471C76.4636 156.498 76.4153 156.513 76.3864 156.516C76.3564 156.516 76.3232 156.509 76.2923 156.486C76.2587 156.464 76.2322 156.43 76.2127 156.384C76.1931 156.338 76.1835 156.293 76.1895 156.258C76.1944 156.219 76.2088 156.189 76.2352 156.166C76.2616 156.143 76.303 156.119 76.3645 156.093L76.5438 156.017C76.5874 155.998 76.6218 155.987 76.6459 155.98C76.6701 155.973 76.6949 155.974 76.7219 155.981C76.7489 155.987 76.773 156.001 76.7977 156.024C76.8214 156.044 76.8406 156.076 76.8547 156.109C76.8743 156.155 76.8814 156.2 76.8765 156.239C76.8716 156.277 76.8572 156.307 76.8333 156.329C76.8095 156.352 76.7707 156.374 76.7117 156.399L76.6554 156.423L76.6543 156.42Z" fill="white"/>
<path d="M76.9472 156.363L77.0611 156.632L76.9381 156.684L76.8926 156.576L76.7747 156.626L76.817 156.726L76.6991 156.776L76.6568 156.676L76.521 156.734L76.5709 156.852L76.4479 156.904L76.3297 156.624L76.9472 156.363Z" fill="white"/>
<g opacity="0.99">
<path opacity="0.99" d="M85.7822 163.503C85.8477 163.65 85.9122 163.795 85.9802 163.942C86.0982 164.206 86.2171 164.515 86.0885 164.775C85.9916 164.968 85.7865 165.076 85.5961 165.168C85.3156 165.305 85.0362 165.445 84.7558 165.582C84.7159 165.602 84.6694 165.627 84.6578 165.671C84.6419 165.727 84.6957 165.782 84.7523 165.795C84.8089 165.807 84.8663 165.786 84.9212 165.765C85.4003 165.584 85.87 165.373 86.3241 165.132C86.4028 165.089 86.4867 165.045 86.5374 164.972C86.6224 164.851 86.6015 164.688 86.5681 164.545C86.4713 164.124 86.2753 163.732 86.0723 163.353C86.0121 163.239 85.935 162.979 85.7888 163.083C85.6752 163.164 85.7432 163.411 85.7822 163.503Z" fill="white"/>
</g>
<g opacity="0.23">
<path opacity="0.23" d="M78.9559 152.273L81.3847 153.441L81.5735 153.887L77.7899 152.352L78.9559 152.273Z" fill="white"/>
</g>
<g opacity="0.23">
<path opacity="0.23" d="M77.3919 153.068C77.4038 153.096 81.8459 155.122 81.8459 155.122L81.6563 155.202L77.5334 153.473L77.3919 153.068Z" fill="white"/>
</g>
<g opacity="0.23">
<path opacity="0.23" d="M75.8481 149.494L79.7219 151.534L79.1497 151.553L76.1715 150.258L75.8481 149.494Z" fill="white"/>
</g>
<g opacity="0.25">
<path opacity="0.25" d="M73.9698 147.842C73.6595 147.523 73.3418 147.201 72.9444 146.998C72.8526 146.952 72.7504 146.911 72.6513 146.941C72.4859 146.993 72.4425 147.226 72.5252 147.378C72.6078 147.53 72.7653 147.624 72.9144 147.712C73.5448 148.094 74.1139 148.582 74.5868 149.149C74.85 149.464 75.1188 149.827 75.5226 149.91C75.562 149.917 75.4202 149.34 75.3944 149.293C75.3017 149.103 75.1899 149.017 75.0304 148.898C74.6399 148.604 74.3106 148.19 73.9698 147.842Z" fill="white"/>
</g>
<path d="M83.3934 153.581C83.4297 153.539 83.2466 153.121 83.1807 153.079C83.1147 153.038 82.5696 153.199 82.5696 153.199L82.8691 153.906C82.8717 153.905 83.357 153.624 83.3934 153.581Z" fill="#3F48EF"/>
<path d="M82.8858 153.938L82.5429 153.129L82.2892 153.236L82.6322 154.046L82.8858 153.938Z" fill="#892121"/>
<path d="M82.8437 153.204C82.8185 153.208 82.7881 153.215 82.7767 153.238C82.7682 153.254 82.7685 153.269 82.7699 153.286C82.7712 153.325 82.7772 153.368 82.8111 153.384C82.8294 153.391 82.8495 153.389 82.8685 153.384C82.9519 153.366 83.1752 153.344 83.1713 153.228C83.1661 153.094 82.9168 153.191 82.8437 153.204Z" fill="#3792ED"/>
<path d="M82.8402 154.601L83.7338 155.32C83.8168 155.387 83.8837 155.474 83.926 155.574L86.8767 162.541C86.9918 162.812 86.9097 163.125 86.6787 163.308L86.4675 163.473L82.8402 154.601Z" fill="#CE332F"/>
<g opacity="0.23">
<path opacity="0.23" d="M84.9196 158.619C85.4632 159.945 86.0103 161.273 86.5538 162.599C86.5777 162.655 86.6271 162.722 86.6824 162.696C86.7274 162.674 86.7251 162.611 86.7144 162.564C86.6484 162.266 86.5086 161.993 86.3775 161.719C85.9197 160.752 85.6015 159.73 85.1796 158.748C85.1481 158.673 85.1022 158.472 85.0224 158.434C84.8929 158.371 84.8849 158.537 84.9196 158.619Z" fill="white"/>
</g>
<path d="M56.6566 24.5997L56.7986 24.8455L57.8155 24.2583L57.5078 23.6809L56.6566 24.5997Z" fill="#892121"/>
<path d="M57.7143 24.3168C57.7143 24.3168 57.879 24.6298 57.5186 24.8572C57.1162 25.1119 56.8805 24.7982 56.8805 24.7982L57.7143 24.3168Z" fill="#DBE4EB"/>
<path d="M57.6031 24.7087C57.5647 24.7534 57.5141 24.7826 57.4621 24.8094C57.4414 24.8182 57.4221 24.8293 57.3997 24.8294C57.3772 24.8295 57.353 24.821 57.3433 24.8041C57.3266 24.7752 57.3444 24.7392 57.3615 24.7132C57.3752 24.6925 57.389 24.6717 57.4065 24.6519C57.425 24.6284 57.4421 24.6024 57.4607 24.5789C57.4768 24.5567 57.4929 24.5346 57.5142 24.5158C57.5583 24.4808 57.6428 24.4769 57.6642 24.5417C57.6785 24.5945 57.6381 24.6692 57.6031 24.7087Z" fill="white"/>
<path d="M55.44 25.4531L43.3869 4.57659L51.1104 0.11738C51.5249 -0.121929 52.0543 0.0158431 52.3023 0.428573L58.7038 11.2046C59.1864 12.0184 59.2868 13.0048 58.9777 13.8997C58.4867 15.3143 57.3705 17.4271 57.8263 18.6227C58.127 19.4162 58.6766 22.2382 58.2557 22.9728C57.5245 24.2496 55.44 25.4531 55.44 25.4531Z" fill="#DBE4EB"/>
<path d="M57.5482 23.8568C56.6497 24.7547 55.4399 25.4532 55.4399 25.4532L43.3868 4.57663L45.6593 3.26461L57.5482 23.8568Z" fill="#CE332F"/>
<path d="M52.0373 15.2238L52.2238 15.5467L50.8068 16.3648L50.6204 16.0419L52.0373 15.2238Z" fill="white"/>
<path d="M52.2712 16.0713L52.0848 16.3942L50.569 15.5191L50.7554 15.1962L52.2712 16.0713Z" fill="white"/>
<path d="M51.6076 16.67L51.2348 16.67L51.2348 14.9197L51.6077 14.9197L51.6076 16.67Z" fill="white"/>
<g opacity="0.24">
<path opacity="0.24" d="M56.0423 23.2964C56.0032 23.3511 55.9541 23.4051 55.8921 23.4313C55.8287 23.4551 55.7458 23.4451 55.7052 23.3914C55.6711 23.3436 55.6733 23.2749 55.6975 23.2223C55.7204 23.1673 55.7613 23.1212 55.7959 23.0755C56.0001 22.8002 56.0408 22.42 55.9365 22.0947C55.9271 22.0616 55.9152 22.0299 55.9181 21.9961C55.9211 21.9622 55.9465 21.9283 55.9813 21.9274C56.01 21.927 56.0363 21.9503 56.0551 21.9716C56.3282 22.3056 56.2848 22.9539 56.0423 23.2964Z" fill="white"/>
</g>
<g opacity="0.24">
<path opacity="0.24" d="M47.8849 9.1674C47.8458 9.22211 47.7967 9.27617 47.7347 9.30233C47.6713 9.32609 47.5884 9.3161 47.5478 9.26244C47.5138 9.21461 47.5159 9.14592 47.5401 9.09335C47.563 9.03837 47.6039 8.99228 47.6385 8.94657C47.8427 8.67126 47.8834 8.29107 47.7791 7.96572C47.7697 7.93262 47.7578 7.90092 47.7608 7.86709C47.7637 7.83325 47.7891 7.79931 47.824 7.79846C47.8526 7.79799 47.8789 7.82134 47.8977 7.84266C48.1694 8.17417 48.126 8.82256 47.8849 9.1674Z" fill="white"/>
</g>
<path d="M57.8224 18.6217L56.58 16.4697C56.5354 16.3926 56.5423 16.2987 56.5941 16.227L58.6235 13.5034C58.7168 13.3756 58.9133 13.3875 58.9926 13.5249L59.0552 13.6333C59.0331 13.7231 59.0059 13.8096 58.9763 13.8974C58.4999 15.2649 57.8571 17.3293 57.8224 18.6217Z" fill="#394458"/>
<path d="M55.3874 21.0879C55.9801 22.1145 55.6277 23.4297 54.6011 24.0225L52.4529 20.3016C53.4795 19.7089 54.7947 20.0613 55.3874 21.0879Z" fill="#797D7F"/>
<path d="M51.6903 23.2385C51.1501 22.3029 51.4707 21.1065 52.4064 20.5663C53.342 20.0261 54.5384 20.3467 55.0786 21.2823C55.6188 22.218 55.2982 23.4144 54.3626 23.9546C53.4269 24.4948 52.2305 24.1742 51.6903 23.2385Z" fill="#383F4C"/>
<path d="M54.1633 20.4645C53.6479 20.2897 53.063 20.3286 52.5545 20.6222C51.6195 21.162 51.2987 22.3594 51.8385 23.2944C52.0569 23.6727 52.3802 23.9488 52.7526 24.1097C52.3198 23.9611 51.9354 23.6626 51.6891 23.236C51.1493 22.301 51.4701 21.1036 52.4052 20.5638C52.9632 20.2448 53.6155 20.2281 54.1633 20.4645Z" fill="black"/>
<path d="M52.0617 23.0242C51.6398 22.2935 51.8902 21.3592 52.6208 20.9373C53.3515 20.5155 54.2858 20.7658 54.7077 21.4965C55.1296 22.2272 54.8792 23.1615 54.1485 23.5833C53.4178 24.0052 52.4835 23.7548 52.0617 23.0242Z" fill="#4D5768"/>
<path d="M52.39 22.886C52.0534 22.3031 52.2531 21.5577 52.8361 21.2211C53.419 20.8845 54.1644 21.0843 54.501 21.6672C54.8376 22.2502 54.6378 22.9956 54.0549 23.3321C53.4719 23.6687 52.7265 23.469 52.39 22.886Z" fill="#383F4C"/>
<path d="M52.3676 22.8475C52.0434 22.2859 52.2358 21.5677 52.7975 21.2434C53.3591 20.9192 54.0773 21.1116 54.4016 21.6733C54.7258 22.2349 54.5334 22.9531 53.9717 23.2774C53.4101 23.6016 52.6919 23.4092 52.3676 22.8475Z" fill="#677589"/>
<path d="M52.4448 22.803C52.1451 22.2839 52.3229 21.6202 52.842 21.3205C53.361 21.0208 54.0248 21.1987 54.3244 21.7177C54.6241 22.2368 54.4463 22.9005 53.9272 23.2002C53.4082 23.4999 52.7444 23.322 52.4448 22.803Z" fill="#7A8BA0"/>
<g opacity="0.22">
<path opacity="0.22" d="M54.1851 22.5726C54.1063 22.7756 53.933 22.9206 53.7422 23.0243C53.6348 23.0831 53.5072 23.1182 53.387 23.088C53.2667 23.0578 53.1641 22.9468 53.1704 22.8243C53.1775 22.7141 53.2645 22.6254 53.3543 22.5639C53.4427 22.5 53.5467 22.4464 53.6098 22.3553C53.6866 22.2435 53.6915 22.0961 53.6684 21.9616C53.6567 21.8912 53.6412 21.8199 53.6482 21.7484C53.6878 21.4331 53.928 21.4872 54.1186 21.8174C54.2587 22.0546 54.3073 22.2611 54.1851 22.5726Z" fill="white"/>
</g>
<path d="M47.23 6.98147C47.8227 8.00807 47.4703 9.32327 46.4437 9.91598L44.2955 6.19517C45.3245 5.60107 46.6373 5.95487 47.23 6.98147Z" fill="#797D7F"/>
<path d="M43.5341 9.12816C42.9939 8.19252 43.3145 6.99613 44.2501 6.45593C45.1858 5.91574 46.3822 6.23632 46.9224 7.17196C47.4626 8.1076 47.142 9.30399 46.2063 9.84418C45.2707 10.3844 44.0743 10.0638 43.5341 9.12816Z" fill="#383F4C"/>
<path d="M46.006 6.35791C45.4906 6.18314 44.9057 6.22199 44.3973 6.51556C43.4622 7.05539 43.1414 8.25276 43.6812 9.18779C43.8997 9.56613 44.2229 9.84219 44.5954 10.0031C44.1626 9.85454 43.7781 9.55597 43.5319 9.12943C42.992 8.19441 43.3129 6.99704 44.2479 6.4572C44.8084 6.13682 45.4582 6.1215 46.006 6.35791Z" fill="black"/>
<path d="M43.9053 8.91384C43.4835 8.18316 43.7338 7.24885 44.4645 6.82699C45.1952 6.40514 46.1295 6.65548 46.5513 7.38616C46.9732 8.11684 46.7229 9.05115 45.9922 9.47301C45.2615 9.89487 44.3272 9.64452 43.9053 8.91384Z" fill="#4D5768"/>
<path d="M44.2336 8.7757C43.8971 8.19275 44.0968 7.44734 44.6797 7.11078C45.2627 6.77422 46.0081 6.97395 46.3447 7.55689C46.6812 8.13984 46.4815 8.88525 45.8985 9.22181C45.3156 9.55837 44.5702 9.35864 44.2336 8.7757Z" fill="#383F4C"/>
<path d="M44.2114 8.73715C43.8871 8.1755 44.0796 7.45732 44.6412 7.13305C45.2029 6.80878 45.9211 7.00122 46.2453 7.56287C46.5696 8.12452 46.3772 8.8427 45.8155 9.16697C45.2539 9.49124 44.5357 9.2988 44.2114 8.73715Z" fill="#677589"/>
<path d="M44.2885 8.69258C43.9889 8.17352 44.1667 7.5098 44.6858 7.21012C45.2048 6.91044 45.8685 7.08828 46.1682 7.60734C46.4679 8.1264 46.2901 8.79013 45.771 9.0898C45.2519 9.38948 44.5882 9.21164 44.2885 8.69258Z" fill="#7A8BA0"/>
<g opacity="0.22">
<path opacity="0.22" d="M46.0278 8.46602C45.949 8.66898 45.7757 8.81402 45.5849 8.91772C45.4775 8.97653 45.3499 9.01161 45.2297 8.98143C45.1095 8.95125 45.0068 8.84022 45.0132 8.71767C45.0203 8.60753 45.1072 8.51879 45.197 8.4573C45.2854 8.39339 45.3894 8.33978 45.4525 8.24872C45.5293 8.1369 45.5342 7.9895 45.5112 7.85499C45.4995 7.78463 45.484 7.71325 45.4909 7.64178C45.5306 7.32648 45.7707 7.38063 45.9613 7.71078C46.1038 7.94658 46.15 8.1545 46.0278 8.46602Z" fill="white"/>
</g>
<path d="M58.3394 12.861L56.3812 15.1515C56.2263 15.334 55.938 15.3077 55.8184 15.1005L54.0472 12.0327C53.9512 11.8665 54.0096 11.656 54.1735 11.5614L56.6364 10.1394C56.8026 10.0434 57.0131 10.1019 57.1077 10.2657L58.3766 12.4635C58.4489 12.5888 58.4348 12.748 58.3394 12.861Z" fill="#394458"/>
<path d="M55.9822 14.9223L57.9404 12.6318C58.0358 12.5189 58.05 12.3597 57.9776 12.2344L56.7393 10.0896C56.8787 10.0638 57.027 10.126 57.1021 10.2561L58.371 12.4539C58.4448 12.5816 58.4306 12.7408 58.3338 12.8513L56.3756 15.1418C56.2208 15.3244 55.9324 15.2981 55.8128 15.0908L55.7822 15.0378C55.8574 15.0233 55.9286 14.9854 55.9822 14.9223Z" fill="black"/>
<path d="M47.6687 11.1526L48.7929 13.0998C48.9279 13.3335 49.2268 13.4116 49.4581 13.278L50.0485 12.9372C50.2823 12.8022 50.3604 12.5033 50.2268 12.2719L49.1026 10.3248C48.9676 10.091 48.6687 10.013 48.4374 10.1465L47.847 10.4874C47.6156 10.621 47.5338 10.9189 47.6687 11.1526ZM50.193 12.2914C50.3155 12.5035 50.2421 12.7772 50.0301 12.8996L49.4397 13.2405C49.2276 13.3629 48.9539 13.2896 48.8315 13.0775L47.7073 11.1304C47.5848 10.9183 47.6582 10.6446 47.8702 10.5222L48.4607 10.1813C48.6727 10.0589 48.9464 10.1322 49.0689 10.3443L50.193 12.2914Z" fill="#394458"/>
<path d="M55.0517 24.7808L55.5123 25.5785C55.5457 25.6363 55.6217 25.6567 55.6795 25.6233L56.6941 25.0375C56.7519 25.0042 56.7723 24.9281 56.7389 24.8703L56.2784 24.0726C56.1865 23.9136 55.9813 23.8586 55.8222 23.9504L55.1764 24.3233C55.0125 24.4179 54.9599 24.6218 55.0517 24.7808Z" fill="#797D7F"/>
<path d="M45.9702 3.08507L46.8282 2.58976L58.3651 22.5723C58.353 22.7238 58.3173 22.8569 58.2519 22.9717C58.1334 23.1783 57.9786 23.3833 57.8049 23.5833L45.9702 3.08507Z" fill="#CE332F"/>
<path d="M49.379 14.3262L51.7164 18.3748C51.7345 18.4061 51.7768 18.3849 52.0925 18.2026C52.4564 17.9925 53.0675 17.6429 53.7455 17.3704C54.7984 16.9456 55.3315 17.2066 55.3353 17.2076C55.3443 17.2121 55.3529 17.2103 55.3587 17.2037L58.8907 12.9475C58.8965 12.9409 58.8971 12.9309 58.893 12.9237L57.0982 9.81494C56.9785 9.60769 56.7138 9.53881 56.509 9.65707L49.5541 13.6724C49.3266 13.807 49.2468 14.0973 49.379 14.3262ZM51.746 18.3481L49.4127 14.3068C49.2916 14.0971 49.3654 13.8296 49.5726 13.71L56.5298 9.69322C56.7178 9.58469 56.9573 9.64886 57.0658 9.83683L58.8537 12.9335L55.3416 17.1686C55.2483 17.1293 54.7218 16.9353 53.7347 17.3349C53.0542 17.6088 52.4421 17.9622 52.0768 18.1699C51.9188 18.2579 51.7815 18.3372 51.746 18.3481Z" fill="#394458"/>
<path d="M49.5591 10.2251L50.5414 11.9264C50.7153 12.2277 51.0992 12.3305 51.4005 12.1566L56.1431 9.41848C56.4443 9.24457 56.5472 8.86065 56.3733 8.55942L55.391 6.85806C55.2171 6.55683 54.8331 6.45396 54.5319 6.62788L49.7893 9.36601C49.4881 9.53993 49.3852 9.92385 49.5591 10.2251ZM56.3371 8.58029C56.4985 8.85983 56.4017 9.22094 56.1222 9.38234L51.3796 12.1205C51.1001 12.2819 50.739 12.1851 50.5776 11.9056L49.5953 10.2042C49.4339 9.92467 49.5306 9.56355 49.8102 9.40216L54.5528 6.66402C54.8323 6.50263 55.1934 6.59939 55.3548 6.87893L56.3371 8.58029Z" fill="#394458"/>
<path d="M52.9879 12.6797C52.8896 12.5093 52.9479 12.2915 53.1183 12.1931C53.2886 12.0947 53.5065 12.1531 53.6048 12.3235C53.7032 12.4938 53.6448 12.7117 53.4745 12.81C53.3041 12.9084 53.0863 12.85 52.9879 12.6797Z" fill="#CBD3D8"/>
<path d="M53.1093 12.1051C53.0755 12.1245 53.0643 12.1664 53.0838 12.2001L53.4678 12.8652C53.4873 12.899 53.5291 12.9102 53.5628 12.8907C53.5966 12.8712 53.6078 12.8294 53.5883 12.7957L53.2043 12.1305C53.1848 12.0968 53.143 12.0856 53.1093 12.1051Z" fill="#2B2A25"/>
<path d="M52.6887 3.06834L53.1214 3.81781L49.8344 5.71558L49.4017 4.96611L52.6887 3.06834Z" fill="#CE332F"/>
<path d="M53.2343 5.0305L52.8016 5.77995L49.2905 3.75287L49.7232 3.00342L53.2343 5.0305Z" fill="#CE332F"/>
<path d="M51.6954 6.41989L50.83 6.41988L50.83 2.36564L51.6954 2.36565L51.6954 6.41989Z" fill="#CE332F"/>
<path d="M54.012 7.71529L54.9414 9.32507C54.9999 9.42628 55.1291 9.46091 55.2303 9.40248L55.934 8.99621C56.0352 8.93778 56.0698 8.80853 56.0114 8.70732L55.082 7.09754C55.0236 6.99633 54.8943 6.9617 54.7931 7.02013L54.0894 7.4264C53.9882 7.48484 53.9536 7.61408 54.012 7.71529Z" fill="#394458"/>
<path d="M54.9701 9.34701L55.6762 8.93935C55.7774 8.88092 55.8096 8.75307 55.7512 8.65186L54.8217 7.04207C54.8162 7.03243 54.8106 7.0228 54.8026 7.01455C54.9018 6.96371 55.0224 7.00011 55.0781 7.0965L56.0075 8.70628C56.0659 8.8075 56.0313 8.93674 55.9301 8.99517L55.2264 9.40144C55.1348 9.45431 55.0212 9.42997 54.959 9.35017C54.9628 9.35119 54.9677 9.3484 54.9701 9.34701Z" fill="black"/>
<g opacity="0.23">
<path opacity="0.23" d="M55.6596 9.15458L55.8508 8.43375C55.8508 8.43375 55.6514 7.9994 55.6337 8.05781C55.6146 8.11381 55.292 9.36366 55.292 9.36366L55.6596 9.15458Z" fill="white"/>
</g>
<g opacity="0.23">
<path opacity="0.23" d="M54.8091 9.08974L55.2412 7.37829L55.1858 7.24324L54.6453 8.81159L54.8091 9.08974Z" fill="white"/>
</g>
<path d="M54.4838 16.173L53.8529 16.4215L53.942 16.5758L54.0498 16.5232L54.0804 16.5762L53.9823 16.6456L54.0728 16.8023L54.609 16.3899L54.4838 16.173ZM54.1576 16.4706C54.2268 16.4402 54.3129 16.4002 54.4149 16.3541C54.3124 16.4326 54.236 16.4895 54.1882 16.5236L54.1576 16.4706Z" fill="white"/>
<path d="M54.1502 15.5945L53.5694 15.9298L53.6459 16.0623L54.0387 15.8356L53.6765 16.1154L53.7308 16.2093L54.1459 16.0435L53.7628 16.2648L53.8393 16.3973L54.4201 16.062L54.3074 15.8668C54.2685 15.8829 54.2233 15.8993 54.1747 15.9209L54.0152 15.9841L54.2681 15.7931L54.1526 15.5931L54.1502 15.5945Z" fill="white"/>
<path d="M54.1153 15.5343L54.0277 15.3824C53.9999 15.3342 53.9742 15.3009 53.953 15.2809C53.9319 15.261 53.9063 15.2501 53.8724 15.2471C53.8424 15.2452 53.8021 15.2588 53.7515 15.2881C53.7177 15.3075 53.6964 15.3263 53.6913 15.3453C53.6824 15.3633 53.6853 15.3905 53.6962 15.426C53.6681 15.394 53.6411 15.3807 53.6159 15.376C53.5896 15.3751 53.559 15.3831 53.5204 15.4054L53.4674 15.436C53.4288 15.4583 53.4027 15.4798 53.389 15.5006C53.3753 15.5213 53.3716 15.5427 53.3755 15.5662C53.3794 15.5896 53.4006 15.632 53.4354 15.6923L53.537 15.8682L54.1153 15.5343ZM53.9289 15.4395L53.7987 15.5146C53.7946 15.5074 53.7918 15.5026 53.7904 15.5002C53.782 15.4857 53.7813 15.4733 53.7857 15.4643C53.7902 15.4553 53.8105 15.4403 53.8442 15.4209C53.8635 15.4097 53.8769 15.4052 53.8856 15.4034C53.8942 15.4017 53.9018 15.4037 53.907 15.4071C53.915 15.4154 53.9205 15.425 53.9289 15.4395ZM53.7096 15.5661L53.5481 15.6593C53.5356 15.6376 53.5335 15.6228 53.5341 15.6128C53.5361 15.6052 53.5502 15.5906 53.5719 15.5781L53.6273 15.5461C53.6514 15.5322 53.6697 15.5248 53.6773 15.5269C53.6839 15.5327 53.6971 15.5444 53.7096 15.5661Z" fill="white"/>
<path d="M53.6827 14.7848L53.2947 15.0088C53.2513 15.0338 53.2214 15.0543 53.2035 15.0679C53.188 15.08 53.1743 15.1008 53.1634 15.1264C53.1524 15.152 53.1491 15.1796 53.152 15.2068C53.1563 15.2365 53.1667 15.2658 53.1848 15.2971C53.2043 15.3309 53.2272 15.3594 53.2546 15.379C53.2819 15.3985 53.3075 15.4094 53.3351 15.4128C53.3614 15.4137 53.3862 15.4122 53.4069 15.4035C53.4276 15.3947 53.4709 15.3697 53.5384 15.3307L53.883 15.1318L53.7954 14.98L53.3592 15.2318C53.3327 15.2471 53.3168 15.253 53.3082 15.2548C53.2996 15.2566 53.2944 15.2531 53.2888 15.2435C53.2833 15.2339 53.2839 15.2238 53.2897 15.2173C53.2956 15.2107 53.3135 15.1971 53.3424 15.1804L53.7713 14.9328L53.6851 14.7834L53.6827 14.7848Z" fill="white"/>
<path d="M53.5616 14.5751L53.0965 14.8436L53.0436 14.752L52.9279 14.8188L53.0685 15.0622L53.6492 14.7269L53.5616 14.5751Z" fill="white"/>
<path d="M53.3264 14.1679L52.6956 14.4164L52.7846 14.5706L52.8924 14.518L52.923 14.5711L52.825 14.6405L52.9154 14.7972L53.4517 14.3847L53.3264 14.1679ZM52.9988 14.463C53.0681 14.4327 53.1542 14.3926 53.2561 14.3466C53.1536 14.4251 53.0773 14.482 53.0294 14.5161L52.9988 14.463Z" fill="white"/>
<path d="M53.0663 13.7172L52.4855 14.0525L52.5621 14.1851L52.8731 14.1115L52.608 14.2646L52.6803 14.3899L53.2611 14.0546L53.1887 13.9293L52.8774 13.9966L53.14 13.8449L53.0663 13.7172Z" fill="white"/>
<path d="M52.574 13.4488L52.6616 13.6006L52.7628 13.5422C52.7918 13.5255 52.8124 13.5168 52.821 13.515C52.8297 13.5132 52.8387 13.5177 52.8456 13.5297C52.8526 13.5418 52.8519 13.5518 52.8451 13.5622C52.8368 13.5701 52.8189 13.5837 52.79 13.6004L52.5201 13.7562C52.4912 13.7729 52.4729 13.7802 52.4619 13.7834C52.4509 13.7866 52.4429 13.7783 52.4373 13.7687C52.4304 13.7566 52.431 13.7466 52.4369 13.74C52.4451 13.732 52.463 13.7185 52.4943 13.7004L52.5666 13.6587L52.479 13.5069L52.4573 13.5194C52.397 13.5542 52.3564 13.584 52.3365 13.6052C52.318 13.6287 52.3036 13.6595 52.3034 13.6982C52.3009 13.7382 52.3121 13.7799 52.3371 13.8233C52.3622 13.8667 52.3917 13.9011 52.4238 13.9178C52.4574 13.937 52.4902 13.9438 52.5247 13.9367C52.5592 13.9297 52.6029 13.9108 52.6608 13.8774L52.8295 13.78C52.8704 13.7564 52.9004 13.7359 52.9207 13.721C52.941 13.706 52.9547 13.6852 52.9656 13.6597C52.9765 13.6341 52.9799 13.6064 52.9766 13.573C52.9748 13.5419 52.9615 13.5078 52.9434 13.4765C52.9184 13.4331 52.8865 13.4001 52.8529 13.3809C52.8193 13.3618 52.7865 13.355 52.7544 13.3607C52.7224 13.3663 52.681 13.3838 52.6256 13.4158L52.5726 13.4464L52.574 13.4488Z" fill="white"/>
<path d="M52.7964 13.2497L52.6503 12.9966L52.5346 13.0634L52.593 13.1646L52.4822 13.2286L52.4279 13.1347L52.3171 13.1987L52.3713 13.2926L52.2436 13.3664L52.1796 13.2555L52.0639 13.3223L52.2156 13.585L52.7964 13.2497Z" fill="white"/>
<g opacity="0.99">
<path opacity="0.99" d="M52.4202 1.89637C52.3419 1.75521 52.265 1.61645 52.1892 1.4739C52.0493 1.22049 51.8741 0.939286 51.5891 0.885331C51.3773 0.846926 51.1676 0.945537 50.9789 1.04164C50.7006 1.18301 50.421 1.32197 50.1427 1.46334C50.1028 1.48319 50.0542 1.5048 50.012 1.48739C49.9584 1.46692 49.9464 1.39035 49.9706 1.33778C49.9949 1.28521 50.0465 1.25219 50.0957 1.22056C50.5294 0.947689 50.9808 0.699932 51.4465 0.482485C51.5278 0.445192 51.6139 0.405116 51.7026 0.408518C51.85 0.413384 51.9679 0.528484 52.0619 0.641275C52.3398 0.972416 52.5342 1.36468 52.7147 1.75527C52.7691 1.87169 52.9305 2.09014 52.7592 2.14406C52.6258 2.18572 52.4703 1.98312 52.4202 1.89637Z" fill="white"/>
</g>
<g opacity="0.23">
<path opacity="0.23" d="M57.2711 14.1107L57.802 11.4682L57.5599 11.0489L56.505 14.9932L57.2711 14.1107Z" fill="white"/>
</g>
<g opacity="0.23">
<path opacity="0.23" d="M55.6941 14.8798C55.6788 14.8533 56.7379 10.0872 56.7379 10.0872L56.5596 10.1902L55.4558 14.5226L55.6941 14.8798Z" fill="white"/>
</g>
<g opacity="0.23">
<path opacity="0.23" d="M57.6165 18.265L58.3221 13.9441L57.9624 14.3895L57.2019 17.5469L57.6165 18.265Z" fill="white"/>
</g>
<g opacity="0.25">
<path opacity="0.25" d="M57.8037 20.7597C57.8712 21.1994 57.9367 21.6468 57.8596 22.0865C57.8407 22.1874 57.8122 22.2938 57.7286 22.3549C57.5876 22.4557 57.3755 22.35 57.3037 22.1922C57.2319 22.0344 57.2522 21.8525 57.2718 21.6805C57.3461 20.9467 57.3 20.199 57.1322 19.4797C57.0396 19.0801 56.9114 18.6465 57.0885 18.2743C57.1063 18.2384 57.4818 18.6995 57.5034 18.7481C57.5995 18.9368 57.6005 19.0776 57.6 19.2771C57.5994 19.7659 57.7311 20.2778 57.8037 20.7597Z" fill="white"/>
</g>
<path d="M58.9 9.78039C58.9559 9.77703 59.1793 10.175 59.1727 10.2527C59.1661 10.3304 58.7089 10.6683 58.7089 10.6683L58.3249 10.0032C58.3274 10.0018 58.8441 9.78375 58.9 9.78039Z" fill="#3F48EF"/>
<path d="M58.3093 9.97044L58.7489 10.732L58.5104 10.8697L58.0707 10.1082L58.3093 9.97044Z" fill="#892121"/>
<path d="M58.8702 10.4466C58.8513 10.4639 58.8276 10.4841 58.8023 10.4793C58.7847 10.4767 58.773 10.4674 58.7598 10.4557C58.7297 10.4313 58.6991 10.4008 58.7069 10.3641C58.712 10.3451 58.7261 10.3306 58.7416 10.3184C58.8055 10.2622 58.9577 10.0973 59.0481 10.1704C59.1517 10.2552 58.9245 10.396 58.8702 10.4466Z" fill="#3792ED"/>
<path d="M57.7527 9.60741L57.7175 8.46132C57.7136 8.35434 57.6848 8.24886 57.6306 8.15487L53.8475 1.60248C53.7001 1.34704 53.401 1.22412 53.1162 1.29856L52.8573 1.3677L57.7527 9.60741Z" fill="#CE332F"/>
<g opacity="0.23">
<path opacity="0.23" d="M55.7985 5.52712C55.0675 4.2944 54.3376 3.05787 53.6066 1.82514C53.576 1.77213 53.5525 1.6925 53.6069 1.6643C53.6517 1.64167 53.7002 1.68114 53.731 1.71794C53.9295 1.95038 54.0633 2.22659 54.2029 2.49622C54.6986 3.44387 55.323 4.31397 55.8525 5.24213C55.8928 5.31202 56.0257 5.46985 56.0085 5.55691C55.9809 5.6982 55.8431 5.60424 55.7985 5.52712Z" fill="white"/>
</g>
<path d="M169.889 122.612L169.634 122.487L170.15 121.432L170.747 121.7L169.889 122.612Z" fill="#892121"/>
<path d="M170.098 121.537C170.098 121.537 169.775 121.395 169.573 121.77C169.346 122.189 169.675 122.402 169.675 122.402L170.098 121.537Z" fill="#DBE4EB"/>
<path d="M169.715 121.675C169.673 121.717 169.647 121.769 169.624 121.823C169.617 121.844 169.607 121.864 169.608 121.886C169.61 121.909 169.62 121.932 169.638 121.941C169.668 121.956 169.702 121.935 169.727 121.917C169.747 121.901 169.767 121.886 169.785 121.867C169.807 121.847 169.832 121.828 169.854 121.808C169.875 121.791 169.896 121.773 169.913 121.751C169.945 121.704 169.943 121.62 169.877 121.603C169.824 121.592 169.752 121.638 169.715 121.675Z" fill="white"/>
<path d="M169.121 123.884L190.776 134.474L194.694 126.462C194.905 126.032 194.731 125.514 194.302 125.295L183.111 119.649C182.266 119.223 181.275 119.191 180.404 119.561C179.026 120.148 176.995 121.407 175.771 121.034C174.959 120.789 172.106 120.434 171.402 120.905C170.178 121.722 169.121 123.884 169.121 123.884Z" fill="#DBE4EB"/>
<path d="M170.569 121.671C169.735 122.63 169.121 123.884 169.121 123.884L190.776 134.474L191.929 132.117L170.569 121.671Z" fill="#CE332F"/>
<path d="M179.56 126.576L179.225 126.412L178.506 127.882L178.841 128.046L179.56 126.576Z" fill="white"/>
<path d="M178.698 126.401L178.389 126.609L179.366 128.061L179.675 127.853L178.698 126.401Z" fill="white"/>
<path d="M178.147 127.104L178.172 127.476L179.918 127.356L179.893 126.984L178.147 127.104Z" fill="white"/>
<g opacity="0.24">
<path opacity="0.24" d="M171.231 123.135C171.179 123.178 171.129 123.231 171.107 123.294C171.088 123.359 171.103 123.441 171.159 123.478C171.21 123.509 171.278 123.502 171.329 123.474C171.382 123.448 171.425 123.404 171.468 123.366C171.729 123.143 172.105 123.076 172.437 123.158C172.471 123.165 172.503 123.175 172.537 123.17C172.57 123.164 172.603 123.137 172.601 123.102C172.6 123.073 172.574 123.049 172.552 123.031C172.2 122.782 171.556 122.87 171.231 123.135Z" fill="white"/>
</g>
<g opacity="0.24">
<path opacity="0.24" d="M185.887 130.302C185.835 130.345 185.785 130.398 185.763 130.461C185.744 130.526 185.759 130.608 185.816 130.645C185.866 130.676 185.934 130.669 185.985 130.641C186.038 130.614 186.081 130.571 186.125 130.533C186.385 130.31 186.762 130.243 187.093 130.325C187.127 130.332 187.16 130.342 187.193 130.337C187.227 130.331 187.259 130.304 187.257 130.269C187.256 130.24 187.231 130.216 187.208 130.198C186.859 129.95 186.215 130.038 185.887 130.302Z" fill="white"/>
</g>
<path d="M175.772 121.038L178.005 122.13C178.085 122.169 178.178 122.155 178.246 122.099L180.824 119.887C180.945 119.785 180.919 119.59 180.777 119.52L180.664 119.465C180.576 119.493 180.492 119.527 180.406 119.562C179.075 120.131 177.059 120.915 175.772 121.038Z" fill="#394458"/>
<path d="M173.479 123.637C172.414 123.116 171.127 123.558 170.606 124.623L174.466 126.51C174.986 125.445 174.544 124.158 173.479 123.637Z" fill="#797D7F"/>
<path d="M171.588 127.473C172.559 127.948 173.73 127.545 174.205 126.575C174.679 125.604 174.277 124.433 173.307 123.958C172.336 123.484 171.165 123.886 170.69 124.856C170.215 125.827 170.617 126.998 171.588 127.473Z" fill="#383F4C"/>
<path d="M174.186 124.815C174.395 125.317 174.397 125.904 174.139 126.431C173.665 127.401 172.492 127.803 171.522 127.329C171.13 127.137 170.832 126.834 170.646 126.473C170.824 126.895 171.148 127.258 171.591 127.474C172.561 127.948 173.733 127.546 174.207 126.576C174.487 125.997 174.459 125.345 174.186 124.815Z" fill="black"/>
<path d="M171.776 127.088C172.534 127.458 173.449 127.144 173.82 126.386C174.19 125.629 173.877 124.714 173.119 124.343C172.361 123.972 171.446 124.286 171.075 125.044C170.704 125.802 171.018 126.717 171.776 127.088Z" fill="#4D5768"/>
<path d="M171.892 126.751C172.496 127.046 173.226 126.796 173.522 126.191C173.818 125.587 173.567 124.857 172.962 124.561C172.358 124.265 171.628 124.516 171.332 125.12C171.036 125.725 171.287 126.455 171.892 126.751Z" fill="#383F4C"/>
<path d="M171.932 126.77C172.514 127.055 173.217 126.814 173.502 126.231C173.787 125.649 173.546 124.945 172.963 124.661C172.381 124.376 171.677 124.617 171.393 125.2C171.108 125.782 171.349 126.485 171.932 126.77Z" fill="#677589"/>
<path d="M171.971 126.69C172.509 126.954 173.159 126.731 173.422 126.192C173.686 125.654 173.463 125.004 172.924 124.741C172.386 124.477 171.736 124.7 171.473 125.239C171.209 125.777 171.432 126.427 171.971 126.69Z" fill="#7A8BA0"/>
<g opacity="0.22">
<path opacity="0.22" d="M172.081 124.938C171.884 125.031 171.751 125.214 171.661 125.411C171.609 125.522 171.583 125.652 171.622 125.77C171.66 125.888 171.778 125.983 171.9 125.968C172.009 125.953 172.092 125.86 172.147 125.767C172.204 125.674 172.251 125.567 172.337 125.497C172.444 125.413 172.59 125.398 172.726 125.412C172.797 125.419 172.869 125.429 172.94 125.417C173.252 125.356 173.181 125.12 172.839 124.953C172.593 124.829 172.383 124.795 172.081 124.938Z" fill="white"/>
</g>
<path d="M188.113 130.805C187.048 130.285 185.76 130.727 185.24 131.791L189.099 133.679C189.621 132.611 189.178 131.326 188.113 130.805Z" fill="#797D7F"/>
<path d="M186.226 134.64C187.196 135.115 188.368 134.713 188.842 133.742C189.317 132.772 188.915 131.6 187.944 131.125C186.974 130.651 185.802 131.053 185.328 132.023C184.853 132.994 185.255 134.165 186.226 134.64Z" fill="#383F4C"/>
<path d="M188.819 131.984C189.029 132.486 189.031 133.072 188.773 133.599C188.298 134.569 187.126 134.972 186.156 134.497C185.764 134.305 185.466 134.002 185.28 133.641C185.458 134.063 185.782 134.426 186.224 134.642C187.194 135.117 188.367 134.714 188.841 133.744C189.122 133.163 189.093 132.514 188.819 131.984Z" fill="black"/>
<path d="M186.414 134.255C187.172 134.626 188.087 134.312 188.457 133.554C188.828 132.796 188.514 131.881 187.756 131.51C186.998 131.14 186.083 131.454 185.713 132.212C185.342 132.969 185.656 133.884 186.414 134.255Z" fill="#4D5768"/>
<path d="M186.529 133.918C187.134 134.214 187.864 133.963 188.159 133.358C188.455 132.754 188.205 132.024 187.6 131.728C186.995 131.432 186.265 131.683 185.97 132.288C185.674 132.892 185.924 133.622 186.529 133.918Z" fill="#383F4C"/>
<path d="M186.569 133.938C187.152 134.222 187.855 133.981 188.14 133.398C188.425 132.816 188.183 132.113 187.601 131.828C187.018 131.543 186.315 131.784 186.03 132.367C185.745 132.949 185.987 133.653 186.569 133.938Z" fill="#677589"/>
<path d="M186.608 133.857C187.147 134.121 187.797 133.898 188.06 133.359C188.323 132.821 188.1 132.171 187.562 131.908C187.023 131.644 186.373 131.867 186.11 132.406C185.847 132.944 186.07 133.594 186.608 133.857Z" fill="#7A8BA0"/>
<g opacity="0.22">
<path opacity="0.22" d="M186.715 132.107C186.518 132.199 186.385 132.382 186.295 132.58C186.243 132.691 186.217 132.821 186.255 132.938C186.294 133.056 186.412 133.151 186.533 133.136C186.643 133.122 186.725 133.029 186.781 132.935C186.838 132.842 186.885 132.735 186.971 132.666C187.077 132.581 187.224 132.566 187.36 132.58C187.431 132.587 187.503 132.598 187.574 132.586C187.886 132.525 187.815 132.289 187.473 132.121C187.228 131.995 187.017 131.964 186.715 132.107Z" fill="white"/>
</g>
<path d="M181.484 120.126L179.334 122.237C179.162 122.404 179.208 122.69 179.423 122.795L182.605 124.352C182.778 124.436 182.984 124.363 183.067 124.193L184.316 121.638C184.4 121.466 184.328 121.26 184.158 121.177L181.878 120.062C181.748 119.998 181.59 120.023 181.484 120.126Z" fill="#394458"/>
<path d="M179.59 122.62L181.74 120.509C181.846 120.406 182.004 120.381 182.134 120.444L184.359 121.532C184.375 121.391 184.303 121.248 184.168 121.182L181.888 120.067C181.755 120.002 181.598 120.027 181.494 120.131L179.344 122.242C179.172 122.409 179.218 122.695 179.433 122.8L179.488 122.827C179.497 122.751 179.53 122.677 179.59 122.62Z" fill="black"/>
<path d="M183.922 130.654L181.902 129.667C181.659 129.548 181.561 129.255 181.678 129.015L181.978 128.403C182.096 128.16 182.389 128.062 182.629 128.179L184.649 129.167C184.891 129.286 184.99 129.578 184.873 129.818L184.573 130.431C184.456 130.671 184.164 130.773 183.922 130.654ZM182.612 128.214C182.392 128.107 182.124 128.199 182.017 128.419L181.717 129.031C181.609 129.251 181.701 129.519 181.921 129.627L183.941 130.614C184.161 130.722 184.429 130.63 184.537 130.41L184.836 129.798C184.944 129.578 184.852 129.31 184.632 129.202L182.612 128.214Z" fill="#394458"/>
<path d="M169.818 124.226L168.991 123.821C168.931 123.792 168.905 123.717 168.935 123.657L169.449 122.605C169.479 122.545 169.553 122.519 169.613 122.549L170.441 122.953C170.606 123.034 170.674 123.235 170.594 123.4L170.266 124.07C170.183 124.24 169.983 124.306 169.818 124.226Z" fill="#797D7F"/>
<path d="M192.087 131.794L192.522 130.904L171.794 120.768C171.644 120.791 171.513 120.835 171.403 120.909C171.205 121.041 171.011 121.209 170.824 121.397L192.087 131.794Z" fill="#CE332F"/>
<path d="M180.638 129.166L176.438 127.113C176.406 127.097 176.424 127.053 176.584 126.726C176.769 126.348 177.076 125.714 177.301 125.019C177.652 123.94 177.355 123.426 177.354 123.422C177.349 123.413 177.35 123.405 177.356 123.398L181.36 119.582C181.366 119.576 181.376 119.575 181.383 119.578L184.608 121.155C184.823 121.26 184.91 121.52 184.806 121.732L181.278 128.947C181.16 129.183 180.876 129.282 180.638 129.166ZM176.463 127.081L180.655 129.131C180.873 129.238 181.134 129.146 181.24 128.931L184.769 121.714C184.864 121.519 184.783 121.284 184.589 121.189L181.376 119.618L177.393 123.413C177.438 123.503 177.668 124.015 177.337 125.028C177.111 125.725 176.8 126.36 176.618 126.739C176.541 126.903 176.471 127.045 176.463 127.081Z" fill="#394458"/>
<path d="M184.717 128.705L182.952 127.842C182.64 127.689 182.511 127.313 182.664 127L185.069 122.081C185.222 121.768 185.598 121.639 185.911 121.792L187.675 122.655C187.988 122.808 188.117 123.184 187.964 123.496L185.558 128.416C185.406 128.728 185.03 128.857 184.717 128.705ZM185.892 121.83C185.602 121.688 185.249 121.809 185.107 122.099L182.701 127.019C182.559 127.309 182.681 127.662 182.971 127.804L184.735 128.667C185.025 128.809 185.379 128.688 185.521 128.398L187.927 123.478C188.068 123.188 187.947 122.834 187.657 122.693L185.892 121.83Z" fill="#394458"/>
<path d="M182.033 125.453C182.209 125.539 182.423 125.466 182.509 125.289C182.596 125.113 182.522 124.899 182.346 124.813C182.169 124.726 181.956 124.8 181.869 124.976C181.783 125.153 181.856 125.366 182.033 125.453Z" fill="#CBD3D8"/>
<path d="M182.598 125.292C182.58 125.327 182.539 125.341 182.504 125.324L181.815 124.987C181.78 124.97 181.765 124.929 181.783 124.894C181.8 124.859 181.841 124.845 181.876 124.862L182.566 125.199C182.601 125.216 182.615 125.257 182.598 125.292Z" fill="#2B2A25"/>
<path d="M191.642 125.091L190.864 124.71L189.197 128.12L189.974 128.5L191.642 125.091Z" fill="#CE332F"/>
<path d="M189.647 124.681L188.929 125.164L191.192 128.528L191.91 128.045L189.647 124.681Z" fill="#CE332F"/>
<path d="M188.367 126.312L188.426 127.175L192.471 126.896L192.411 126.033L188.367 126.312Z" fill="#CE332F"/>
<path d="M186.915 124.09L185.245 123.273C185.14 123.222 185.097 123.095 185.148 122.99L185.505 122.26C185.556 122.155 185.683 122.112 185.788 122.163L187.458 122.98C187.563 123.031 187.606 123.158 187.555 123.263L187.198 123.993C187.146 124.098 187.02 124.141 186.915 124.09Z" fill="#394458"/>
<path d="M185.221 123.246L185.579 122.514C185.631 122.409 185.756 122.368 185.861 122.419L187.531 123.236C187.541 123.241 187.551 123.245 187.56 123.253C187.604 123.15 187.559 123.033 187.459 122.984L185.789 122.167C185.684 122.116 185.558 122.159 185.506 122.264L185.149 122.994C185.103 123.089 185.135 123.201 185.219 123.257C185.218 123.254 185.22 123.249 185.221 123.246Z" fill="black"/>
<g opacity="0.23">
<path opacity="0.23" d="M185.366 122.545L186.072 122.305C186.072 122.305 186.519 122.474 186.462 122.495C186.407 122.518 185.183 122.926 185.183 122.926L185.366 122.545Z" fill="white"/>
</g>
<g opacity="0.23">
<path opacity="0.23" d="M185.489 123.389L187.167 122.84L187.305 122.886L185.778 123.533L185.489 123.389Z" fill="white"/>
</g>
<path d="M178.445 124.2L178.24 124.847L178.08 124.769L178.125 124.657L178.07 124.631L178.008 124.733L177.845 124.654L178.22 124.09L178.445 124.2ZM178.17 124.546C178.196 124.475 178.23 124.387 178.269 124.282C178.198 124.389 178.146 124.469 178.115 124.519L178.17 124.546Z" fill="white"/>
<path d="M179.045 124.494L178.75 125.096L178.613 125.029L178.812 124.621L178.558 125.002L178.46 124.954L178.597 124.529L178.403 124.926L178.265 124.859L178.56 124.256L178.762 124.355C178.749 124.395 178.736 124.442 178.718 124.491L178.666 124.655L178.839 124.39L179.046 124.491L179.045 124.494Z" fill="white"/>
<path d="M179.107 124.524L179.265 124.601C179.315 124.626 179.35 124.649 179.371 124.669C179.393 124.688 179.405 124.713 179.411 124.747C179.415 124.777 179.404 124.818 179.378 124.87C179.361 124.905 179.344 124.928 179.325 124.934C179.308 124.944 179.28 124.943 179.244 124.935C179.278 124.961 179.293 124.987 179.3 125.012C179.302 125.038 179.296 125.069 179.277 125.109L179.25 125.164C179.23 125.204 179.211 125.231 179.191 125.246C179.171 125.262 179.15 125.267 179.126 125.264C179.103 125.262 179.059 125.244 178.997 125.213L178.814 125.124L179.107 124.524ZM179.215 124.704L179.149 124.839C179.156 124.842 179.161 124.845 179.164 124.846C179.179 124.853 179.191 124.853 179.2 124.848C179.209 124.843 179.222 124.822 179.239 124.787C179.249 124.767 179.253 124.753 179.254 124.744C179.255 124.736 179.252 124.728 179.249 124.723C179.24 124.716 179.23 124.711 179.215 124.704ZM179.104 124.931L179.022 125.099C179.044 125.11 179.059 125.111 179.069 125.109C179.076 125.107 179.09 125.092 179.101 125.069L179.129 125.012C179.141 124.987 179.147 124.968 179.145 124.961C179.139 124.954 179.126 124.942 179.104 124.931Z" fill="white"/>
<path d="M179.885 124.904L179.688 125.307C179.666 125.352 179.648 125.383 179.635 125.402C179.624 125.418 179.604 125.433 179.58 125.446C179.555 125.459 179.528 125.464 179.5 125.463C179.47 125.46 179.44 125.452 179.408 125.436C179.373 125.419 179.343 125.398 179.321 125.372C179.3 125.346 179.287 125.321 179.282 125.294C179.279 125.268 179.279 125.243 179.287 125.222C179.294 125.201 179.316 125.156 179.35 125.086L179.525 124.728L179.682 124.805L179.461 125.258C179.448 125.285 179.443 125.301 179.442 125.31C179.44 125.319 179.444 125.324 179.454 125.329C179.464 125.334 179.474 125.332 179.48 125.326C179.487 125.32 179.499 125.301 179.513 125.271L179.731 124.826L179.886 124.902L179.885 124.904Z" fill="white"/>
<path d="M180.102 125.011L179.866 125.493L179.961 125.54L179.903 125.66L179.65 125.536L179.945 124.934L180.102 125.011Z" fill="white"/>
<path d="M180.525 125.217L180.32 125.864L180.16 125.785L180.205 125.674L180.15 125.647L180.088 125.75L179.925 125.671L180.3 125.107L180.525 125.217ZM180.253 125.564C180.278 125.493 180.312 125.405 180.351 125.3C180.28 125.407 180.228 125.487 180.198 125.537L180.253 125.564Z" fill="white"/>
<path d="M180.992 125.446L180.698 126.048L180.56 125.981L180.612 125.666L180.478 125.941L180.348 125.877L180.642 125.275L180.772 125.338L180.726 125.653L180.86 125.381L180.992 125.446Z" fill="white"/>
<path d="M181.294 125.919L181.136 125.842L181.188 125.737C181.202 125.707 181.21 125.685 181.211 125.677C181.212 125.668 181.207 125.659 181.194 125.653C181.182 125.647 181.172 125.648 181.162 125.656C181.155 125.665 181.142 125.683 181.128 125.713L180.991 125.993C180.976 126.023 180.97 126.042 180.968 126.053C180.965 126.065 180.974 126.072 180.984 126.077C180.997 126.083 181.007 126.082 181.013 126.075C181.02 126.067 181.032 126.048 181.048 126.015L181.085 125.94L181.242 126.017L181.231 126.04C181.201 126.102 181.174 126.145 181.154 126.166C181.132 126.186 181.102 126.203 181.064 126.206C181.024 126.211 180.982 126.203 180.937 126.181C180.892 126.159 180.855 126.131 180.836 126.101C180.815 126.068 180.806 126.036 180.81 126.001C180.815 125.966 180.831 125.921 180.86 125.861L180.946 125.686C180.967 125.644 180.985 125.613 180.999 125.591C181.012 125.57 181.032 125.555 181.057 125.542C181.081 125.53 181.109 125.524 181.142 125.525C181.173 125.525 181.208 125.536 181.241 125.552C181.286 125.574 181.321 125.603 181.342 125.636C181.364 125.668 181.373 125.7 181.369 125.732C181.366 125.765 181.351 125.807 181.323 125.865L181.296 125.92L181.294 125.919Z" fill="white"/>
<path d="M181.477 125.683L181.74 125.811L181.681 125.931L181.576 125.88L181.52 125.995L181.617 126.043L181.561 126.158L181.464 126.11L181.399 126.242L181.514 126.299L181.455 126.419L181.183 126.285L181.477 125.683Z" fill="white"/>
<g opacity="0.99">
<path opacity="0.99" d="M192.83 125.278C192.976 125.346 193.119 125.413 193.267 125.479C193.529 125.602 193.822 125.757 193.895 126.038C193.948 126.246 193.864 126.462 193.781 126.657C193.659 126.944 193.54 127.233 193.418 127.52C193.401 127.561 193.383 127.611 193.403 127.652C193.427 127.704 193.504 127.711 193.555 127.683C193.606 127.655 193.635 127.602 193.664 127.55C193.906 127.099 194.122 126.632 194.307 126.152C194.339 126.069 194.373 125.98 194.363 125.892C194.348 125.745 194.225 125.635 194.106 125.549C193.757 125.295 193.352 125.128 192.95 124.974C192.83 124.928 192.601 124.782 192.559 124.957C192.527 125.093 192.74 125.234 192.83 125.278Z" fill="white"/>
</g>
<g opacity="0.23">
<path opacity="0.23" d="M180.311 121.278L182.91 120.567L183.345 120.779L179.483 122.103L180.311 121.278Z" fill="white"/>
</g>
<g opacity="0.23">
<path opacity="0.23" d="M179.652 122.904C179.679 122.918 184.361 121.533 184.361 121.533L184.271 121.718L180.024 123.117L179.652 122.904Z" fill="white"/>
</g>
<g opacity="0.23">
<path opacity="0.23" d="M176.142 121.219L180.405 120.218L179.985 120.608L176.887 121.583L176.142 121.219Z" fill="white"/>
</g>
<g opacity="0.25">
<path opacity="0.25" d="M173.641 121.204C173.197 121.167 172.747 121.132 172.313 121.239C172.214 121.265 172.11 121.301 172.055 121.388C171.964 121.536 172.084 121.74 172.246 121.801C172.408 121.862 172.589 121.829 172.759 121.798C173.486 121.673 174.235 121.668 174.964 121.786C175.369 121.85 175.81 121.949 176.169 121.746C176.204 121.726 175.718 121.383 175.668 121.365C175.473 121.282 175.333 121.291 175.134 121.305C174.646 121.339 174.127 121.243 173.641 121.204Z" fill="white"/>
</g>
<path d="M184.519 119.355C184.518 119.299 184.106 119.104 184.029 119.116C183.952 119.128 183.646 119.607 183.646 119.607L184.336 119.944C184.337 119.942 184.519 119.411 184.519 119.355Z" fill="#3F48EF"/>
<path d="M184.37 119.958L183.58 119.571L183.459 119.819L184.249 120.205L184.37 119.958Z" fill="#892121"/>
<path d="M183.856 119.431C183.84 119.451 183.822 119.476 183.828 119.501C183.832 119.518 183.842 119.529 183.855 119.542C183.881 119.57 183.914 119.598 183.95 119.588C183.968 119.582 183.982 119.567 183.993 119.55C184.045 119.483 184.199 119.32 184.12 119.234C184.028 119.137 183.903 119.373 183.856 119.431Z" fill="#3792ED"/>
<path d="M184.77 120.488L185.916 120.444C186.023 120.441 186.13 120.462 186.228 120.51L193.025 123.834C193.29 123.963 193.433 124.253 193.378 124.543L193.327 124.806L184.77 120.488Z" fill="#CE332F"/>
<g opacity="0.23">
<path opacity="0.23" d="M188.975 122.157C190.255 122.802 191.539 123.445 192.819 124.089C192.874 124.116 192.955 124.134 192.979 124.078C192.999 124.032 192.956 123.986 192.917 123.958C192.672 123.776 192.387 123.661 192.109 123.541C191.129 123.111 190.218 122.548 189.256 122.084C189.183 122.048 189.017 121.927 188.931 121.95C188.792 121.987 188.895 122.118 188.975 122.157Z" fill="white"/>
</g>
<defs>
<filter id="filter0_d_7_1235" x="141.67" y="262.575" width="56.0833" height="56.0833" filterUnits="userSpaceOnUse" color-interpolation-filters="sRGB">
<feFlood flood-opacity="0" result="BackgroundImageFix"/>
<feColorMatrix in="SourceAlpha" type="matrix" values="0 0 0 0 0 0 0 0 0 0 0 0 0 0 0 0 0 0 127 0" result="hardAlpha"/>
<feOffset dy="1"/>
<feGaussianBlur stdDeviation="2"/>
<feColorMatrix type="matrix" values="0 0 0 0 0 0 0 0 0 0 0 0 0 0 0 0 0 0 0.05 0"/>
<feBlend mode="normal" in2="BackgroundImageFix" result="effect1_dropShadow_7_1235"/>
<feBlend mode="normal" in="SourceGraphic" in2="effect1_dropShadow_7_1235" result="shape"/>
</filter>
<linearGradient id="paint0_linear_7_1235" x1="169.928" y1="265.975" x2="169.928" y2="314.046" gradientUnits="userSpaceOnUse">
<stop stop-color="white"/>
<stop offset="1" stop-color="white" stop-opacity="0.44"/>
</linearGradient>
</defs>
</svg>
