<svg width="8" height="10" viewBox="0 0 8 10" fill="none" xmlns="http://www.w3.org/2000/svg">
<g opacity="0.5">
<path d="M7.55102 4.16512C7.55102 7.0872 3.97959 9.59184 3.97959 9.59184C3.97959 9.59184 0.408158 7.0872 0.408158 4.16512C0.408158 3.16871 0.784432 2.21311 1.45421 1.50855C2.12398 0.803979 3.03239 0.408158 3.97959 0.408158C4.92679 0.408158 5.8352 0.803979 6.50497 1.50855C7.17475 2.21311 7.55102 3.16871 7.55102 4.16512Z" stroke="#001133" stroke-width="0.8" stroke-linecap="round" stroke-linejoin="round"/>
<path d="M3.97959 5.41699C4.71926 5.41699 5.31888 4.8563 5.31888 4.16467C5.31888 3.47303 4.71926 2.91235 3.97959 2.91235C3.23992 2.91235 2.6403 3.47303 2.6403 4.16467C2.6403 4.8563 3.23992 5.41699 3.97959 5.41699Z" stroke="#001133" stroke-width="0.8" stroke-linecap="round" stroke-linejoin="round"/>
</g>
</svg>
