<svg width="16" height="17" viewBox="0 0 16 17" fill="none" xmlns="http://www.w3.org/2000/svg">
<path d="M12.2829 4.12719C12.2829 1.85166 10.3618 0 7.9999 0C5.63804 0 3.71668 1.85166 3.71668 4.12719C3.71707 6.40253 5.63824 8.81802 7.9999 8.81802C10.3618 8.81802 12.2829 6.40253 12.2829 4.12719Z" fill="#518CFF"/>
<path d="M0 14.2813C0 15.7826 3.5816 16.9999 7.99989 16.9999C12.418 16.9999 15.9998 15.7826 15.9998 14.2813C15.9998 11.6947 14.1435 9.52774 11.6448 8.94483C12.3102 9.36114 12.7685 10.0572 12.8397 10.8596C13.4084 10.9824 13.8351 11.4721 13.8351 12.0568C13.8351 12.7337 13.2635 13.2845 12.5609 13.2845C11.8583 13.2845 11.2866 12.7337 11.2866 12.0568C11.2866 11.4829 11.6981 11.0011 12.2511 10.8671C12.1694 10.1248 11.6589 9.50545 10.9638 9.24063L8.08457 11.8403L5.16715 9.20606C4.37633 9.46333 3.80155 10.1726 3.77372 11.0139C3.88722 11.0774 3.97897 11.1756 4.03523 11.2946C4.45416 11.485 4.82389 11.8858 5.10716 12.4564C5.1546 12.5526 5.16068 12.661 5.12598 12.76C5.29575 13.181 5.39279 13.6411 5.39279 14.0276C5.39279 14.5691 5.39279 15.0812 4.78017 15.2127C4.71371 15.266 4.63079 15.295 4.54355 15.295H4.13403C3.92878 15.295 3.76176 15.1339 3.76176 14.9363L3.76215 14.9224C3.76999 14.7318 3.93564 14.5776 4.13403 14.5776H4.54336C4.58531 14.5776 4.62628 14.5844 4.66568 14.5979C4.69058 14.5911 4.69823 14.5856 4.69842 14.5854C4.7439 14.5076 4.7439 14.1834 4.7439 14.0278C4.7439 13.7139 4.66235 13.3348 4.51944 12.9825C4.44514 12.9419 4.38535 12.8805 4.3485 12.8063C4.10012 12.3055 3.76274 11.9821 3.48848 11.9821C3.20795 11.9821 2.85371 12.3318 2.60671 12.8518C2.56632 12.9364 2.49555 13.0055 2.40832 13.0467C2.27913 13.3839 2.20816 13.7309 2.20816 14.0276C2.20816 14.1583 2.20816 14.5053 2.26011 14.5867C2.2607 14.5867 2.27227 14.5935 2.30481 14.6013C2.34715 14.5856 2.39263 14.5775 2.43811 14.5775H2.84822C3.03956 14.5775 3.19893 14.7178 3.21834 14.8999L3.2205 14.9222C3.2205 15.1339 3.05348 15.295 2.84842 15.295H2.43831C2.35695 15.295 2.27834 15.269 2.21365 15.2212C1.97939 15.1787 1.81432 15.0791 1.70984 14.9171C1.5832 14.7212 1.56006 14.4639 1.56006 14.0276C1.56006 13.6447 1.65181 13.2041 1.81844 12.783C1.79394 12.6929 1.80217 12.5989 1.84275 12.5141C2.01644 12.1484 2.23718 11.8352 2.48105 11.6087C2.61514 11.4842 2.75922 11.3841 2.90998 11.311C2.96683 11.1833 3.06524 11.0787 3.1858 11.0124C3.20874 10.1378 3.69079 9.37304 4.40946 8.93237C1.88313 9.49657 0 11.676 0 14.2813ZM8.98007 14.1902C8.98007 14.1249 9.04163 14.0722 9.1171 14.0722H9.86224V13.3544C9.86224 13.2813 9.91693 13.2222 9.98476 13.2222H10.7199C10.7873 13.2222 10.8424 13.2813 10.8424 13.3544V14.0722H11.5876C11.6634 14.0722 11.7246 14.1249 11.7246 14.1902V14.8986C11.7246 14.9639 11.6632 15.0166 11.5876 15.0166H10.8424V15.7344C10.8424 15.8075 10.7873 15.8666 10.7199 15.8666H9.98476C9.91693 15.8666 9.86224 15.8075 9.86224 15.7344V15.0166H9.1171C9.04163 15.0166 8.98007 14.9639 8.98007 14.8986V14.1902Z" fill="#518CFF"/>
<path d="M12.5609 12.6233C12.8857 12.6233 13.149 12.3696 13.149 12.0566C13.149 11.7437 12.8857 11.4899 12.5609 11.4899C12.2361 11.4899 11.9728 11.7437 11.9728 12.0566C11.9728 12.3696 12.2361 12.6233 12.5609 12.6233Z" fill="#518CFF"/>
</svg>
