<svg width="45" height="42" viewBox="0 0 45 42" fill="none" xmlns="http://www.w3.org/2000/svg">
<path fill-rule="evenodd" clip-rule="evenodd" d="M2.66284 23.1081C5.94362 29.0427 11.63 35.197 22.5589 41.3513C33.3578 35.197 39.0332 29.0427 42.313 23.1081H37.0946H36.2178L35.67 22.4234L32.2297 18.123L28.7894 22.4234L28.2417 23.1081H27.3649H19.4595H18.4076L17.8806 22.1978L12.8463 13.5022L8.30357 22.1334L7.79059 23.1081H6.68919H2.66284ZM0.978566 19.4594C-2.21033 10.2263 2.49662 -0.636516 13.6085 0.029152C16.3978 0.216303 18.7004 2.36314 20.3966 3.94471C21.2923 4.77979 22.0189 5.45728 22.5589 5.6055C23.0279 5.4639 23.6981 4.83931 24.539 4.05573C26.2453 2.46558 28.6542 0.22072 31.5094 0.029152C42.6212 -0.636516 47.205 10.2263 43.9992 19.4594H37.9714L33.6543 14.063L32.2297 12.2824L30.8052 14.063L26.488 19.4594H20.5113L14.3491 8.81567L12.6942 5.95725L11.1559 8.88005L5.58779 19.4594H0.978566Z" fill="white"/>
</svg>
