<svg width="40" height="40" viewBox="0 0 40 40" fill="none" xmlns="http://www.w3.org/2000/svg">
<path d="M28.8966 24.1206C27.897 25.1342 28.7421 26.8779 30.1392 26.6615C30.1499 26.6604 30.1595 26.6583 30.1701 26.6561C32.6808 26.2429 37.3314 25.887 38.25 28.6832C38.8329 30.4572 35.7734 29.7184 31.11 30.9018C28.9585 31.448 26.2218 32.5665 23.3349 33.3172C22.3311 33.5789 21.3134 33.7087 20.302 33.7163C17.7551 33.7336 15.3083 34.7277 13.5073 36.5558L10.1143 39.9999C5.78444 37.2708 2.26348 33.3442 0 28.6767L3.82362 25.2943C5.86117 23.4911 7.21244 21.0324 7.72183 18.3368C8.10654 16.3043 8.97399 14.3476 10.3253 12.6569C10.6034 12.3086 10.9018 11.9722 11.2215 11.6477L22.135 0.571133C22.509 0.190378 22.9992 0 23.4905 0C23.9807 0 24.4709 0.189296 24.845 0.570051C25.5941 1.33048 25.5941 2.56144 24.845 3.32187L19.0136 9.24089C18.6279 9.63246 18.6428 10.2793 19.0605 10.6514C19.441 10.9911 20.025 10.9478 20.383 10.5833L29.1908 1.64309C29.9303 0.892396 31.125 0.883741 31.8741 1.61713C32.6489 2.37323 32.6244 3.65828 31.8645 4.42953L23.0696 13.3578C22.8841 13.546 22.7904 13.7937 22.7904 14.0404C22.7904 14.287 22.8841 14.5358 23.0696 14.724C23.4404 15.1015 24.0447 15.1015 24.4155 14.724L35.1415 3.83676C35.5155 3.45708 36.0057 3.26779 36.4959 3.26779C36.9872 3.26779 37.4774 3.45708 37.8515 3.83676C38.5996 4.59611 38.5996 5.82815 37.8515 6.5875L27.1255 17.4747C26.7536 17.8511 26.7536 18.4634 27.1255 18.8409L27.2278 18.9447C27.5997 19.3233 28.2029 19.3223 28.5748 18.9447L36.7282 10.6687C37.1023 10.289 37.5925 10.0987 38.0827 10.0987C38.574 10.0987 39.0631 10.288 39.4382 10.6687C39.7462 10.9813 39.9274 11.374 39.9817 11.7807C40.0606 12.3616 39.8794 12.9727 39.4382 13.4195L28.8966 24.1206Z" fill="#FFC0A4"/>
<path d="M28.8967 24.1208C27.8971 25.1343 28.7421 26.878 30.1392 26.6617C30.1499 26.6606 30.1595 26.6584 30.1701 26.6563C32.6809 26.2431 37.3314 25.8872 38.25 28.6834C38.833 30.4573 35.7734 29.7185 31.1101 30.9019C28.9585 31.4482 26.2218 32.5666 23.335 33.3173C22.3311 33.5791 21.3134 33.7089 20.3021 33.7165C17.7551 33.7338 15.3083 34.7278 13.5074 36.5559L10.1143 40C7.69628 38.4759 5.53191 36.5797 3.69683 34.3882L23.0696 14.7241C23.4405 15.1016 24.0447 15.1016 24.4155 14.7241L35.1415 3.8369C35.5155 3.45723 36.0057 3.26793 36.496 3.26793C36.9872 3.26793 37.4774 3.45723 37.8515 3.8369C38.5996 4.59625 38.5996 5.8283 37.8515 6.58765L27.1255 17.4749C26.7536 17.8513 26.7536 18.4635 27.1255 18.841L27.2278 18.9449C27.5998 19.3235 28.2029 19.3224 28.5748 18.9449L36.7283 10.6689C37.1023 10.2892 37.5925 10.0988 38.0827 10.0988C38.574 10.0988 39.0631 10.2881 39.4383 10.6689C39.7462 10.9815 39.9274 11.3741 39.9817 11.7808C40.0606 12.3617 39.8794 12.9729 39.4383 13.4196L28.8967 24.1208Z" fill="#FFA87A"/>
<path d="M18.9362 25.8692C19.6562 25.8692 20.2398 25.2768 20.2398 24.546C20.2398 23.8152 19.6562 23.2227 18.9362 23.2227C18.2162 23.2227 17.6326 23.8152 17.6326 24.546C17.6326 25.2768 18.2162 25.8692 18.9362 25.8692Z" fill="#FE3244"/>
<path d="M15.2762 16.4482C15.9962 16.4482 16.5798 15.8557 16.5798 15.1249C16.5798 14.3941 15.9962 13.8017 15.2762 13.8017C14.5562 13.8017 13.9726 14.3941 13.9726 15.1249C13.9726 15.8557 14.5562 16.4482 15.2762 16.4482Z" fill="#FE3244"/>
<path d="M25.6947 24.622C26.4146 24.622 26.9983 24.0296 26.9983 23.2988C26.9983 22.568 26.4146 21.9755 25.6947 21.9755C24.9747 21.9755 24.391 22.568 24.391 23.2988C24.391 24.0296 24.9747 24.622 25.6947 24.622Z" fill="#FE3244"/>
<path d="M10.0704 22.7366C10.7904 22.7366 11.3741 22.1442 11.3741 21.4134C11.3741 20.6825 10.7904 20.0901 10.0704 20.0901C9.35047 20.0901 8.76682 20.6825 8.76682 21.4134C8.76682 22.1442 9.35047 22.7366 10.0704 22.7366Z" fill="#FE3244"/>
<path d="M9.66725 37.1485C10.3872 37.1485 10.9709 36.556 10.9709 35.8252C10.9709 35.0944 10.3872 34.502 9.66725 34.502C8.94728 34.502 8.36362 35.0944 8.36362 35.8252C8.36362 36.556 8.94728 37.1485 9.66725 37.1485Z" fill="#FE3244"/>
<path d="M12.0403 30.42C12.7603 30.42 13.3439 29.8276 13.3439 29.0968C13.3439 28.366 12.7603 27.7736 12.0403 27.7736C11.3203 27.7736 10.7367 28.366 10.7367 29.0968C10.7367 29.8276 11.3203 30.42 12.0403 30.42Z" fill="#FE3244"/>
<path d="M22.6555 31.5159C23.3755 31.5159 23.9591 30.9234 23.9591 30.1926C23.9591 29.4618 23.3755 28.8694 22.6555 28.8694C21.9355 28.8694 21.3519 29.4618 21.3519 30.1926C21.3519 30.9234 21.9355 31.5159 22.6555 31.5159Z" fill="#FE3244"/>
<path d="M23.8155 18.9713C24.5355 18.9713 25.1192 18.3788 25.1192 17.648C25.1192 16.9172 24.5355 16.3248 23.8155 16.3248C23.0955 16.3248 22.5119 16.9172 22.5119 17.648C22.5119 18.3788 23.0955 18.9713 23.8155 18.9713Z" fill="#FE3244"/>
<path d="M3.29172 31.4887C4.0117 31.4887 4.59535 30.8962 4.59535 30.1654C4.59535 29.4346 4.0117 28.8422 3.29172 28.8422C2.57175 28.8422 1.98809 29.4346 1.98809 30.1654C1.98809 30.8962 2.57175 31.4887 3.29172 31.4887Z" fill="#FE3244"/>
</svg>
