<svg width="16" height="17" viewBox="0 0 16 17" fill="none" xmlns="http://www.w3.org/2000/svg">
<path d="M12.473 1.08423C11.0587 -0.34885 8.75002 -0.363817 7.31694 1.0543C7.30572 1.06552 7.29823 1.07301 7.28701 1.08423L4.25621 4.11504C4.19634 4.14871 4.1477 4.19736 4.11403 4.25722L1.06452 7.303C-0.357333 8.7286 -0.353591 11.0372 1.06826 12.4591C2.50134 13.8772 4.80624 13.8772 6.24307 12.4591L6.24681 12.4554L9.29257 9.39837C9.31502 9.3834 9.33373 9.36843 9.35244 9.34972C9.37115 9.33101 9.38611 9.31231 9.40108 9.28986L12.4431 6.24034C13.8762 4.82597 13.8874 2.51732 12.473 1.08423ZM5.71548 11.9278C4.57426 13.054 2.73707 13.0578 1.59585 11.9278C0.469588 10.794 0.469588 8.96432 1.59585 7.83058L4.45452 4.97189L8.55545 9.08032L5.71548 11.9278ZM11.9155 5.70528L9.08303 8.54525L4.98211 4.44431L7.81833 1.60808C8.94833 0.478073 10.7855 0.478073 11.9155 1.60808C13.0455 2.73808 13.0455 4.57527 11.9155 5.70528Z" fill="#518CFF"/>
<path d="M9.01186 2.76105C8.86968 2.61138 8.63395 2.60764 8.48428 2.75731L7.18964 4.0295C7.03997 4.17543 7.03997 4.41116 7.18216 4.55708C7.32434 4.70301 7.56381 4.70675 7.70974 4.56457L7.71348 4.56083L9.00438 3.28864C9.15405 3.14271 9.15405 2.90698 9.01186 2.76105Z" fill="#518CFF"/>
<path d="M14.9397 9.80677C14.9397 9.80677 14.9397 9.80677 14.9359 9.80302C13.5403 8.38491 11.2578 8.36994 9.83972 9.76935C9.82849 9.78057 9.81727 9.7918 9.80604 9.80302C8.38793 11.2211 8.38793 13.5186 9.8023 14.9367C11.2167 16.3548 13.5178 16.3548 14.9359 14.9404C16.3541 13.5223 16.3541 11.2249 14.9397 9.80677ZM9.49174 12.3699C9.49174 10.7796 10.7826 9.48872 12.3729 9.48872C13.0052 9.48872 13.6226 9.69826 14.124 10.0837L10.0867 14.1247C9.70127 13.6196 9.49174 13.0022 9.49174 12.3699ZM14.4084 14.4054C13.3869 15.4269 11.763 15.5316 10.618 14.6523L14.6553 10.615C15.5384 11.76 15.4336 13.3839 14.4084 14.4054Z" fill="#518CFF"/>
</svg>
