<svg width="8" height="10" viewBox="0 0 8 10" fill="none" xmlns="http://www.w3.org/2000/svg">
<path d="M7.19608 4.16512C7.19608 7.08719 3.80214 9.59181 3.80214 9.59181C3.80214 9.59181 0.408186 7.08719 0.408186 4.16512C0.408186 3.16872 0.765762 2.21313 1.40225 1.50857C2.03874 0.804005 2.902 0.408186 3.80214 0.408186C4.70227 0.408186 5.56553 0.804005 6.20202 1.50857C6.83851 2.21313 7.19608 3.16872 7.19608 4.16512Z" fill="#518CFF" stroke="#518CFF" stroke-width="0.8" stroke-linecap="round" stroke-linejoin="round"/>
<path d="M3.80213 5.41705C4.50504 5.41705 5.07486 4.85637 5.07486 4.16473C5.07486 3.4731 4.50504 2.91242 3.80213 2.91242C3.09922 2.91242 2.5294 3.4731 2.5294 4.16473C2.5294 4.85637 3.09922 5.41705 3.80213 5.41705Z" fill="white"/>
</svg>
