<svg width="14" height="16" viewBox="0 0 14 16" fill="none" xmlns="http://www.w3.org/2000/svg">
<path d="M11.7188 14.3594C11.5895 14.3594 11.4844 14.4645 11.4844 14.5938C11.4844 14.723 11.5895 14.8281 11.7188 14.8281C11.848 14.8281 11.9531 14.723 11.9531 14.5938C11.9531 14.4645 11.848 14.3594 11.7188 14.3594ZM12.4219 13.3767V12.0238C12.4219 11.5535 12.2858 11.0975 12.0283 10.7049C11.9574 10.5967 11.8121 10.5665 11.7038 10.6375C11.5956 10.7085 11.5654 10.8538 11.6364 10.962C11.8436 11.278 11.9531 11.6451 11.9531 12.0238V13.2074C11.8768 13.1946 11.7986 13.1875 11.7188 13.1875C11.6389 13.1875 11.5607 13.1946 11.4844 13.2074V12.0238C11.4844 11.2117 10.8238 10.5509 10.0119 10.5509C9.19978 10.5509 8.53906 11.2117 8.53906 12.0238V13.3763C8.53906 14.4467 7.66809 15.3175 6.5975 15.3175C5.52709 15.3175 4.65625 14.4467 4.65625 13.3763V12.679C4.72897 12.7051 4.81094 12.7194 4.89122 12.7194C4.97219 12.7194 5.05078 12.7051 5.125 12.6788V13.3763C5.125 14.1882 5.78556 14.8488 6.5975 14.8488C7.40959 14.8488 8.07031 14.1882 8.07031 13.3763V12.0238C8.07031 10.9532 8.94128 10.0822 10.0119 10.0822C10.3296 10.0822 10.6448 10.161 10.9236 10.31C11.0378 10.371 11.1798 10.328 11.2408 10.2138C11.3018 10.0997 11.2587 9.95769 11.1446 9.89666C10.7981 9.71141 10.4064 9.61347 10.0119 9.61347C8.68284 9.61347 7.60156 10.6947 7.60156 12.0238V13.3763C7.60156 13.9297 7.15116 14.38 6.5975 14.38C6.04403 14.38 5.59375 13.9297 5.59375 13.3763V10.1752C7.98978 9.8295 9.78125 7.77037 9.78125 5.33503C9.78125 5.04037 9.58841 4.76816 9.3125 4.67159V2.42188C9.3125 1.61456 8.77669 0.920563 8.01494 0.707281C7.93647 0.304781 7.58138 0 7.15625 0H6.6875C6.20503 0 5.8125 0.392531 5.8125 0.875C5.8125 1.35747 6.20503 1.75 6.6875 1.75H7.15625C7.52934 1.75 7.84847 1.51519 7.97406 1.18569C8.48903 1.36888 8.84375 1.85787 8.84375 2.42188V4.67272C8.57063 4.77109 8.376 5.03697 8.37497 5.34709C8.36847 7.26172 6.80538 8.81941 4.89062 8.81941C4.08631 8.81941 3.30106 8.53759 2.6795 8.02594C2.57959 7.94369 2.43187 7.95797 2.34959 8.05791C2.26731 8.15784 2.28163 8.30556 2.38156 8.38781C3.08678 8.96841 3.97784 9.28816 4.89059 9.28816C7.06297 9.28816 8.83631 7.52091 8.84369 5.34869C8.84412 5.21891 8.94309 5.10781 9.06428 5.10103C9.19691 5.09363 9.31247 5.20191 9.31247 5.33503C9.31247 7.57456 7.637 9.46222 5.41516 9.72591C5.24972 9.74553 5.12497 9.88559 5.12497 10.0517V12.0162C5.12569 12.1478 5.01034 12.2565 4.87894 12.2503C4.75613 12.2445 4.65622 12.1336 4.65622 12.003V10.0517C4.65622 9.88559 4.53147 9.74553 4.36603 9.72591C2.14422 9.46222 0.46875 7.57456 0.46875 5.33503C0.46875 5.20206 0.584188 5.09363 0.716906 5.10103C0.838125 5.10778 0.937094 5.21887 0.937531 5.34869C0.940187 6.13353 1.17338 6.89172 1.61184 7.54134C1.68425 7.64862 1.82987 7.67687 1.93725 7.6045C2.04453 7.53209 2.07281 7.38641 2.00041 7.27909C1.61409 6.70678 1.40863 6.03872 1.40628 5.34713C1.40525 5.037 1.21066 4.77112 0.9375 4.67275V2.42188C0.9375 1.85787 1.29222 1.36888 1.80719 1.18569C1.93278 1.51519 2.25191 1.75 2.625 1.75H3.09375C3.57622 1.75 3.96875 1.35747 3.96875 0.875C3.96875 0.392531 3.57622 0 3.09375 0H2.625C2.19987 0 1.84478 0.304781 1.76631 0.707281C1.00456 0.920563 0.46875 1.61456 0.46875 2.42188V4.67166C0.1925 4.76844 0 5.04116 0 5.33503C0 7.77037 1.79147 9.8295 4.1875 10.1752V13.3763C4.1875 14.7051 5.26862 15.7863 6.5975 15.7863C7.92653 15.7863 9.00781 14.7051 9.00781 13.3763V12.0238C9.00781 11.4701 9.45822 11.0197 10.0119 11.0197C10.5653 11.0197 11.0156 11.4701 11.0156 12.0238V13.3767C10.5957 13.6202 10.3125 14.0744 10.3125 14.5938C10.3125 15.3692 10.9433 16 11.7188 16C12.4942 16 13.125 15.3692 13.125 14.5938C13.125 14.0744 12.8418 13.6202 12.4219 13.3767ZM7.15625 1.28125H6.6875C6.4635 1.28125 6.28125 1.099 6.28125 0.875C6.28125 0.651 6.4635 0.46875 6.6875 0.46875H7.15625C7.38025 0.46875 7.5625 0.651 7.5625 0.875C7.5625 1.099 7.38025 1.28125 7.15625 1.28125ZM2.625 0.46875H3.09375C3.31775 0.46875 3.5 0.651 3.5 0.875C3.5 1.099 3.31775 1.28125 3.09375 1.28125H2.625C2.401 1.28125 2.21875 1.099 2.21875 0.875C2.21875 0.651 2.401 0.46875 2.625 0.46875ZM11.7188 15.5312C11.2018 15.5312 10.7812 15.1107 10.7812 14.5938C10.7812 14.0768 11.2018 13.6562 11.7188 13.6562C12.2357 13.6562 12.6562 14.0768 12.6562 14.5938C12.6562 15.1107 12.2357 15.5312 11.7188 15.5312Z" fill="#518CFF"/>
</svg>
