<svg width="19" height="14" viewBox="0 0 19 14" fill="none" xmlns="http://www.w3.org/2000/svg">
<path d="M1.27273 0C0.574975 0 0 0.574976 0 1.27273V12.7273C0 13.425 0.574975 14 1.27273 14H17.3939C18.0917 14 18.6667 13.425 18.6667 12.7273V1.27273C18.6667 0.574976 18.0917 0 17.3939 0H1.27273ZM1.27273 0.848485H17.3939C17.6363 0.848485 17.8182 1.03036 17.8182 1.27273V9.65152L14.4972 6.68182C14.4179 6.61004 14.3144 6.57085 14.2075 6.57208C14.1006 6.57331 13.9981 6.61487 13.9205 6.68845L10.8513 9.56534L6.68182 4.80587C6.6353 4.75319 6.57641 4.71289 6.51046 4.68859C6.44451 4.66429 6.37356 4.65676 6.30398 4.66667C6.21682 4.67924 6.13574 4.71863 6.07197 4.77936L0.848485 9.63163V1.27273C0.848485 1.03036 1.03036 0.848485 1.27273 0.848485ZM11.6667 2.12121C10.6173 2.12121 9.75758 2.98096 9.75758 4.0303C9.75758 5.07964 10.6173 5.93939 11.6667 5.93939C12.716 5.93939 13.5758 5.07964 13.5758 4.0303C13.5758 2.98096 12.716 2.12121 11.6667 2.12121ZM11.6667 2.9697C12.2574 2.9697 12.7273 3.43952 12.7273 4.0303C12.7273 4.62108 12.2574 5.09091 11.6667 5.09091C11.0759 5.09091 10.6061 4.62108 10.6061 4.0303C10.6061 3.43952 11.0759 2.9697 11.6667 2.9697ZM6.33049 5.69413L10.5 10.4602C10.5378 10.5029 10.5837 10.5375 10.6351 10.562C10.6866 10.5865 10.7424 10.6004 10.7993 10.6029C10.8562 10.6054 10.913 10.5964 10.9664 10.5764C11.0197 10.5565 11.0685 10.526 11.1098 10.4867L14.2188 7.57008L17.8182 10.7917V12.7273C17.8182 12.9696 17.6363 13.1515 17.3939 13.1515H1.27273C1.03036 13.1515 0.848485 12.9696 0.848485 12.7273V10.785L6.33049 5.69413Z" fill="#518CFF"/>
</svg>
