<svg width="40" height="40" viewBox="0 0 40 40" fill="none" xmlns="http://www.w3.org/2000/svg">
<path d="M13.928 8.76113C13.5425 8.82907 13.161 8.91592 12.7852 9.02132L13.928 8.76113Z" fill="#EF314C"/>
<path d="M32.2567 8.09962C24.1353 5.61111 19.0853 11.1419 17.7567 12.8565C17.0026 12.5168 16.1901 12.3045 15.3567 12.2293C15.6485 11.1378 16.0903 10.0861 16.671 9.10036C17.6922 7.33614 19.3387 5.95868 21.3282 5.20414C21.9064 4.98494 22.5038 4.81305 23.1139 4.69042C23.702 4.56979 24.2989 4.48952 24.8996 4.45025C25.1748 4.42343 25.4514 4.41007 25.7282 4.41022C26.9397 4.38311 28.1461 4.56635 29.286 4.95062C30.3424 5.29325 31.227 5.98658 31.7717 6.89873C31.8432 7.02549 31.9074 7.15225 31.9646 7.27901C32.0833 7.54553 32.1809 7.8198 32.2567 8.09962Z" fill="#BB193B"/>
<path d="M34.4996 8.97419C33.7638 8.72067 32.7853 9.47456 32.3138 10.6554C31.8424 11.8363 32.071 12.9905 32.7924 13.2507C28.8638 12.0898 26.5924 12.717 25.4638 13.3241C29.6781 12.9171 33.8067 20.1425 32.3996 28.0217C30.971 36.0276 28.8281 43.0862 15.971 37.0817C5.99956 32.4249 3.76313 21.9171 7.26313 16.1929C8.21231 14.5442 9.79057 13.2891 11.6846 12.6769C12.8605 12.286 14.1121 12.1337 15.356 12.2299C16.1893 12.3051 17.0019 12.5174 17.756 12.8571C19.0846 11.1425 24.1346 5.61169 32.256 8.10021C33.027 8.33679 33.7771 8.629 34.4996 8.97419Z" fill="#EF314C"/>
<path d="M25.4633 13.3236C26.1612 12.9621 26.9297 12.7352 27.7233 12.6564C27.1457 12.5972 26.5637 12.5853 25.984 12.6211C25.6744 12.6386 25.4123 12.8407 25.3353 13.1212C25.2582 13.4018 25.3838 13.6968 25.6461 13.8513C28.8883 15.6466 31.399 21.6171 30.2561 28.0185C29.2654 33.5706 27.9275 38.6624 22.9154 39.2628C29.7204 39.9827 31.2797 34.2925 32.399 28.0212C33.8061 20.142 29.6775 12.9166 25.4633 13.3236Z" fill="#BB193B"/>
<path d="M32.2558 8.10024C30.6142 7.57802 28.8746 7.37903 27.1465 7.51581C28.1557 7.60579 29.1508 7.80184 30.113 8.10024C30.8837 8.33686 31.6336 8.62906 32.3558 8.97422C31.6201 8.7207 30.6415 9.47459 30.1701 10.6555C29.8817 11.2994 29.8523 12.019 30.0872 12.6816C31.0053 12.7941 31.9105 12.9846 32.7915 13.2507C32.0701 12.9905 31.8487 11.8297 32.313 10.6555C32.7772 9.48126 33.763 8.7207 34.4987 8.97422C33.7764 8.62906 33.0265 8.33686 32.2558 8.10024Z" fill="#BB193B"/>
<path d="M25.4637 13.3236C25.1132 13.4967 24.8006 13.7298 24.5423 14.0108L25.4637 13.3236Z" fill="#EF314C"/>
<path d="M35.0002 11.5752C34.5359 12.7427 33.5788 13.4833 32.8431 13.2631C32.8307 13.2641 32.8183 13.2618 32.8073 13.2564C32.8002 13.2564 32.8002 13.2498 32.7931 13.2498C32.0716 12.9896 31.8502 11.8287 32.3145 10.6545C32.7788 9.48029 33.7645 8.71973 34.5002 8.97325C35.2359 9.22677 35.4638 10.3943 35.0002 11.5752Z" fill="#BB193B"/>
<path d="M18.6057 6.7992C17.825 7.45804 17.1704 8.23644 16.67 9.10091C16.0893 10.0866 15.6475 11.1383 15.3557 12.2299C14.1118 12.1336 12.8602 12.286 11.6843 12.6769C9.79028 13.2891 8.21201 14.5441 7.26284 16.1928C6.94855 11.4226 10.5343 9.65465 12.7843 9.02085C12.3628 8.4671 11.6843 7.00602 11.6843 3.33663C11.6843 4.07051 13.1271 4.67095 14.8986 4.67095C16.67 4.67095 18.1128 4.07051 18.1128 3.33663C18.0907 4.50735 18.2568 5.67454 18.6057 6.7992Z" fill="#EF314C"/>
<path d="M14.8992 4.67132C16.6744 4.67132 18.1134 4.07393 18.1134 3.337C18.1134 2.60007 16.6744 2.00268 14.8992 2.00268C13.124 2.00268 11.6849 2.60007 11.6849 3.337C11.6849 4.07393 13.124 4.67132 14.8992 4.67132Z" fill="#BB193B"/>
<path d="M24.8989 2.33698V4.45188C24.2982 4.49115 23.7014 4.57143 23.1132 4.69206C22.5032 4.81469 21.9057 4.98657 21.3275 5.20577V2.33698C21.3275 1.41582 22.127 0.669075 23.1132 0.669075C24.0994 0.669075 24.8989 1.41582 24.8989 2.33698Z" fill="#EF314C"/>
<path d="M30.1642 2.86297L29.3071 4.9245L29.2928 4.93784L29.2864 4.95118C28.1467 4.567 26.9405 4.38377 25.7292 4.41078L26.7792 1.80885C26.9624 1.2223 27.4742 0.776241 28.1134 0.646186C28.7526 0.516131 29.4167 0.722903 29.8445 1.18514C30.2722 1.64738 30.3952 2.29108 30.1649 2.86297H30.1642Z" fill="#EF314C"/>
<path d="M25.7269 4.41132L25.7201 4.43193L25.7269 4.41132Z" fill="#EF314C"/>
<path d="M33.3923 6.39261L31.9637 7.27993C31.9065 7.15317 31.8423 7.02641 31.7708 6.89965C31.2263 5.98762 30.3419 5.29431 29.2858 4.95154L29.293 4.9382L29.3073 4.92485L31.4073 3.61722C32.2278 3.10505 33.3375 3.31115 33.8858 4.07756C34.4342 4.84396 34.2135 5.88044 33.393 6.39261H33.3923Z" fill="#EF314C"/>
<path d="M20 34.6928C19.7017 34.6919 19.4354 34.5179 19.3321 34.2565L14.975 23.2096L12.8086 28.2687C12.6998 28.5229 12.4359 28.6893 12.1429 28.6883H0.714286C0.319797 28.6883 0 28.3896 0 28.0212C0 27.6527 0.319797 27.354 0.714286 27.354H11.6593L14.3364 21.1021C14.4461 20.8455 14.7137 20.6787 15.0094 20.6823C15.305 20.686 15.5677 20.8596 15.67 21.1187L20.0057 32.1109L23.6164 23.1162C23.7191 22.8611 23.9776 22.6899 24.2693 22.6839C24.5587 22.6847 24.8213 22.8425 24.9421 23.0882L26.8993 27.354H39.2857C39.6802 27.354 40 27.6527 40 28.0212C40 28.3896 39.6802 28.6883 39.2857 28.6883H26.4286C26.1429 28.6883 25.8847 28.5293 25.7721 28.284L24.33 25.141L20.6693 34.2605C20.5645 34.5208 20.2978 34.6931 20 34.6928Z" fill="#54C1FB"/>
<path d="M32.0171 30.0369C31.6311 29.9617 31.2529 30.1929 31.1721 30.5533C30.5671 33.242 29.5663 36.5077 27.1721 37.8974C25.6842 38.7648 23.7478 38.8929 21.2485 38.2977C20.4348 38.1015 19.6357 37.8557 18.8563 37.5619C18.0471 37.2656 17.1835 36.904 16.2849 36.4857C13.2905 35.1083 10.7653 32.9799 8.99206 30.3385C8.85758 30.1359 8.61759 30.0157 8.3625 30.0232C8.1074 30.0307 7.87596 30.1647 7.75535 30.3748C7.63474 30.5849 7.64329 30.8391 7.77778 31.0417C9.6915 33.8938 12.4176 36.1919 15.6506 37.6786C16.5842 38.1149 17.4885 38.4932 18.3363 38.8035C19.1716 39.1174 20.028 39.3799 20.8999 39.5894C21.929 39.8481 22.9886 39.9855 24.0542 39.9983C25.4178 40.0266 26.7617 39.6905 27.9278 39.0296C30.7778 37.3731 31.9049 33.7757 32.5706 30.8235C32.6493 30.4637 32.4019 30.1121 32.0171 30.0369Z" fill="#001133"/>
<path d="M34.8428 8.39071C34.8371 8.39071 34.8335 8.38203 34.8271 8.37936C34.182 8.07538 33.5163 7.81107 32.8342 7.58811L32.8214 7.54941L33.7885 6.94897C34.3414 6.60532 34.7252 6.07033 34.8552 5.46203C34.9852 4.85373 34.8507 4.22212 34.4814 3.70656C34.1131 3.19153 33.5407 2.83428 32.8904 2.71341C32.24 2.59254 31.5649 2.71797 31.0135 3.06209L30.7928 3.19952L30.8442 3.07543C31.1652 2.17854 30.8754 1.18937 30.1101 0.570181C29.3449 -0.0490136 28.2553 -0.17596 27.3507 0.248665C26.7656 0.518433 26.32 0.995132 26.1128 1.57298L25.6128 2.80389V2.33555C25.6128 1.04593 24.4935 0.000481057 23.1128 0.000481057C21.7321 0.000481057 20.6128 1.04593 20.6128 2.33555V4.78136C20.0621 5.01935 19.5359 5.30386 19.0407 5.63132C18.8956 4.87393 18.8253 4.10569 18.8307 3.33629C18.8307 0.70834 10.9735 0.70834 10.9735 3.33629C10.9735 6.07766 11.3457 7.69285 11.7678 8.64423C9.41924 9.49086 6.3521 11.4757 6.54853 16.0237C4.97194 18.9512 4.56006 22.3066 5.38639 25.4914C5.45652 25.7995 5.74776 26.0197 6.08496 26.0198C6.13509 26.0197 6.18509 26.015 6.23424 26.0058C6.41966 25.969 6.5818 25.8648 6.68496 25.7163C6.78812 25.5677 6.82383 25.387 6.78424 25.2139C6.03036 22.3452 6.38842 19.3198 7.79496 16.6742C7.86221 16.6041 7.91284 16.5216 7.94353 16.432C8.81504 14.9745 10.2266 13.8646 11.9128 13.311C12.994 12.9525 14.144 12.8109 15.2878 12.8954C16.0373 12.9638 16.7682 13.1546 17.4471 13.4591C20.4707 14.8221 21.935 18.2007 22.31 19.1967C22.3885 19.4095 22.4285 19.5336 22.4307 19.5403C22.5503 19.8864 22.9446 20.0793 23.3172 19.974C23.6899 19.8687 23.9037 19.504 23.7978 19.154C23.7978 19.154 23.7521 19.0113 23.6592 18.7591C23.1592 17.4294 21.7307 14.3358 18.83 12.6519C20.6057 10.6244 25.1535 6.6254 32.0378 8.73229C32.2407 8.79434 32.4442 8.8724 32.6478 8.94445C31.7382 9.81095 31.2773 11.0042 31.385 12.2135C28.2692 11.5891 26.2864 12.1195 25.1271 12.7386L25.115 12.7453C24.6789 12.9631 24.2921 13.2576 23.9757 13.6126C23.818 13.8147 23.7945 14.0822 23.9149 14.3056C24.0353 14.5289 24.2794 14.6707 24.5471 14.6727C24.7676 14.6728 24.9762 14.579 25.1135 14.4178C25.2823 14.25 25.4745 14.1041 25.685 13.9842C26.6785 14.0023 27.6239 14.3873 28.3142 15.055C30.6107 17.0431 32.075 21.1742 31.9571 25.3359C31.9471 25.7042 32.2585 26.0103 32.6528 26.0198H32.6721C33.0594 26.0199 33.3763 25.7316 33.3864 25.37C33.5164 20.7779 31.9071 16.3459 29.2857 14.0776C28.9421 13.7795 28.5658 13.5163 28.1628 13.2923C29.6498 13.2265 31.1367 13.4253 32.5442 13.8781H32.5535L32.5628 13.8828C32.5907 13.8921 32.62 13.8961 32.6478 13.9041C32.6551 13.9057 32.6622 13.9077 32.6692 13.9101C32.8111 13.9497 32.9583 13.9706 33.1064 13.9722C33.6048 13.9566 34.0818 13.7794 34.4557 13.4711C35.0073 13.0249 35.4248 12.4521 35.6671 11.8092C36.0363 10.9832 36.0532 10.0566 35.7142 9.21932C35.5431 8.85221 35.2327 8.55712 34.8428 8.39071ZM31.8071 4.17091C32.1685 3.9434 32.6414 3.94301 33.0032 4.16992C33.365 4.39682 33.5436 4.80581 33.455 5.20434C33.3999 5.46349 33.2357 5.69112 32.9992 5.83614L32.2278 6.31583C31.836 5.73285 31.3096 5.2391 30.6871 4.87076L31.8071 4.17091ZM27.4592 2.01598C27.5475 1.76571 27.739 1.55869 27.9914 1.44088C28.2476 1.32109 28.5444 1.30211 28.8157 1.38818C29.3629 1.55898 29.6659 2.10494 29.5 2.62109L28.8792 4.11287C28.1863 3.92633 27.4738 3.8098 26.7542 3.76527L27.4592 2.01598ZM22.045 2.33555C22.045 1.78285 22.5246 1.3348 23.1164 1.3348C23.7081 1.3348 24.1878 1.78285 24.1878 2.33555V3.83733C23.7721 3.88803 23.3628 3.95408 22.9671 4.03748C22.6492 4.10086 22.3485 4.19159 22.045 4.27699V2.33555ZM14.9021 2.66913C16.4342 2.66913 17.2978 3.13948 17.3978 3.33629C17.2978 3.5331 16.4342 4.00345 14.9021 4.00345C13.3407 4.00345 12.4735 3.51509 12.4021 3.35297V3.34696C12.475 3.15749 13.3407 2.66913 14.9021 2.66913ZM11.46 12.0441C10.2114 12.4376 9.08063 13.1023 8.16067 13.9835C8.82424 11.4036 11.0378 10.2081 12.9942 9.65898C13.3444 9.56002 13.6999 9.47851 14.0592 9.4148C14.4394 9.33995 14.6857 8.9951 14.6139 8.63853C14.542 8.28196 14.1782 8.04442 13.795 8.10383C13.5807 8.14185 13.3607 8.20257 13.1428 8.25327C12.7052 7.19262 12.4718 6.06804 12.4535 4.93147C13.2351 5.20938 14.0658 5.34722 14.9021 5.33777C15.7882 5.35004 16.6677 5.19293 17.4864 4.8761C17.5467 5.45729 17.6542 6.03337 17.8078 6.59938C17.1096 7.24331 16.5158 7.97893 16.045 8.783C15.5334 9.65948 15.1237 10.5845 14.8228 11.5424C13.6791 11.5253 12.541 11.695 11.46 12.0441ZM17.5257 12.0394C17.1156 11.8895 16.6926 11.7724 16.2614 11.6892C16.5291 10.9038 16.8769 10.1442 17.3 9.4208C17.7626 8.62142 18.3682 7.90185 19.0907 7.29322C20.2733 6.30417 21.7187 5.62998 23.2757 5.34111C26.1778 4.72332 29.8535 5.14096 31.0721 7.10508C23.8935 5.5993 19.2335 10.0119 17.5257 12.0394ZM34.3271 11.3469C34.1725 11.7671 33.9061 12.1436 33.5528 12.441C33.3292 12.6132 33.145 12.6645 33.0585 12.6312C32.9721 12.5978 32.865 12.4531 32.8142 12.1869C32.7121 11.2934 33.0627 10.4067 33.7621 9.78974C33.8818 9.68123 34.0354 9.61113 34.2007 9.5896C34.2199 9.58937 34.239 9.5923 34.2571 9.59827C34.3301 9.63842 34.3861 9.70086 34.4157 9.77507C34.5939 10.2914 34.5624 10.8509 34.3271 11.3469Z" fill="#001133"/>
</svg>
