<svg width="17" height="16" viewBox="0 0 17 16" fill="none" xmlns="http://www.w3.org/2000/svg">
<path d="M1.13804 8.09566L1.13741 8.09436C0.311777 6.36643 0.30802 4.37987 1.01153 2.87906C1.70243 1.40517 3.07517 0.386158 5.10845 0.510225C5.73579 0.553995 6.32469 0.949821 6.88261 1.44373C7.05582 1.59707 7.20255 1.7374 7.34591 1.87451C7.44075 1.96523 7.53413 2.05453 7.63273 2.14526C7.74621 2.24969 7.8631 2.35202 7.9775 2.43606C8.08604 2.5158 8.22668 2.60521 8.38695 2.65027L8.52901 2.6902L8.66998 2.64661C8.82388 2.59902 8.95896 2.50708 9.05945 2.4302C9.16755 2.34748 9.28041 2.24652 9.39128 2.1433C9.46919 2.07077 9.54688 1.9966 9.62625 1.92081C9.78542 1.76883 9.95138 1.61036 10.1396 1.44565C10.7034 0.952357 11.3065 0.554149 11.9361 0.510224C13.9684 0.386215 15.3268 1.40405 16.0048 2.87602C16.6958 4.37628 16.6802 6.36414 15.8534 8.09436L15.8528 8.09566C14.7441 10.4333 12.7329 12.9122 8.52076 15.4205C4.2574 12.9118 2.24654 10.4329 1.13804 8.09566Z" fill="#FF5656" stroke="#FF5656"/>
</svg>
