<svg width="15" height="14" viewBox="0 0 15 14" fill="none" xmlns="http://www.w3.org/2000/svg">
<path d="M15 8.81481L13.1951 5.1851L11.3901 8.81481H12.6058C11.8406 11.2169 9.6024 12.9629 6.96177 12.9629C3.69179 12.9629 1.03109 10.2878 1.03109 6.99995C1.03109 3.71217 3.69179 1.03698 6.96177 1.03698C9.48137 1.03698 11.6339 2.62771 12.4911 4.86112L13.0838 3.66904C11.9045 1.48561 9.60295 2.0452e-09 6.96223 2.0452e-09C3.12337 -9.25361e-05 0 3.1401 0 6.99995C0 10.8595 3.12337 14 6.96214 14C10.1764 14 12.883 11.7968 13.6806 8.8149H15V8.81481Z" fill="#4690FD"/>
<path d="M3.2644 8.39621H3.91639L4.11427 7.67913H4.90993L5.12456 8.39621H5.80057L4.93892 5.60229H4.11427L3.2644 8.39621ZM4.36958 6.61374C4.41496 6.45189 4.45619 6.24044 4.49752 6.07489H4.50561C4.54694 6.24044 4.59655 6.44837 4.64616 6.61374L4.81937 7.20718H4.20502L4.36958 6.61374Z" fill="#4690FD"/>
<path d="M7.52093 6.09676C7.82567 6.09676 8.01526 6.15071 8.16786 6.2165L8.30003 5.71069C8.1639 5.64452 7.88752 5.57373 7.52903 5.57373C6.61777 5.57373 5.946 6.10407 5.94112 7.03296C5.93725 7.44328 6.07733 7.80769 6.3332 8.04885C6.58887 8.29759 6.95564 8.42603 7.46313 8.42603C7.82944 8.42603 8.19713 8.33488 8.39041 8.26863V6.79699H7.35582V7.29031H7.78517V7.87451C7.73529 7.89986 7.61969 7.91606 7.47547 7.91606C6.95969 7.91606 6.60139 7.57579 6.60139 6.99956C6.60139 6.39491 6.99678 6.09676 7.52093 6.09676Z" fill="#4690FD"/>
<path d="M10.6006 6.12032V5.60229H8.88538V8.39574H10.6585V7.87818H9.51629V7.21486H10.5391V6.70035H9.51629V6.12032H10.6006Z" fill="#4690FD"/>
</svg>
