<svg width="28" height="28" viewBox="0 0 28 28" fill="none" xmlns="http://www.w3.org/2000/svg">
<path d="M13.9999 27.958C21.7319 27.958 27.9999 21.6994 27.9999 13.979C27.9999 6.2586 21.7319 0 13.9999 0C6.26799 0 0 6.2586 0 13.979C0 21.6994 6.26799 27.958 13.9999 27.958Z" fill="#FFD93B"/>
<path d="M25.1475 1.12292C24.472 1.12292 23.835 1.35008 23.3333 1.74149C22.8316 1.35008 22.1946 1.12292 21.5192 1.12292C19.9465 1.12292 18.6667 2.34375 18.6667 3.84416C18.6667 6.18215 22.1375 8.71933 22.8316 9.20394C22.9833 9.30878 23.1583 9.3612 23.3333 9.3612C23.5083 9.3612 23.6833 9.30878 23.835 9.20394C24.5291 8.71817 28 6.18215 28 3.84416C28 2.34375 26.7201 1.12292 25.1475 1.12292Z" fill="#E53935"/>
<path d="M6.48081 19.7616C5.80531 19.7616 5.16831 19.9888 4.66665 20.3802C4.16498 19.9888 3.52798 19.7616 2.85249 19.7616C1.27983 19.7616 0 20.9825 0 22.4829C0 24.8209 3.47082 27.358 4.16498 27.8426C4.31665 27.9475 4.49165 27.9999 4.66665 27.9999C4.84165 27.9999 5.01665 27.9475 5.16831 27.8426C5.86247 27.3569 9.33329 24.8209 9.33329 22.4829C9.33329 20.9825 8.05347 19.7616 6.48081 19.7616Z" fill="#E53935"/>
<path d="M10.792 13.1051C10.309 13.1051 9.91703 12.7137 9.91703 12.2315C9.91703 11.5896 9.39437 11.0665 8.75037 11.0665C8.10637 11.0665 7.58371 11.5896 7.58371 12.2315C7.58371 12.7137 7.19171 13.1051 6.70871 13.1051C6.22571 13.1051 5.83371 12.7137 5.83371 12.2315C5.83371 10.6262 7.14154 9.31917 8.75037 9.31917C10.3592 9.31917 11.667 10.6262 11.667 12.2315C11.667 12.7137 11.275 13.1051 10.792 13.1051Z" fill="#001133"/>
<path d="M21.2926 13.1051C20.8096 13.1051 20.4176 12.7137 20.4176 12.2315C20.4176 11.5896 19.8949 11.0665 19.2509 11.0665C18.6069 11.0665 18.0843 11.5896 18.0843 12.2315C18.0843 12.7137 17.6923 13.1051 17.2093 13.1051C16.7263 13.1051 16.3343 12.7137 16.3343 12.2315C16.3343 10.6262 17.6421 9.31917 19.2509 9.31917C20.8598 9.31917 22.1676 10.6262 22.1676 12.2315C22.1676 12.7137 21.7756 13.1051 21.2926 13.1051Z" fill="#001133"/>
<path d="M13.9996 20.9684C11.4517 20.9684 9.05767 19.9782 7.25634 18.1784C6.91451 17.8371 6.91451 17.2838 7.25634 16.9424C7.59818 16.6011 8.15234 16.6011 8.49417 16.9424C9.96417 18.4126 11.9195 19.221 13.9996 19.221C16.0798 19.221 18.0351 18.4126 19.5063 16.9436C19.8481 16.6023 20.4023 16.6023 20.7441 16.9436C21.0859 17.2849 21.0859 17.8383 20.7441 18.1796C18.9416 19.9782 16.5476 20.9684 13.9996 20.9684Z" fill="#001133"/>
</svg>
