<svg width="14" height="9" viewBox="0 0 14 9" fill="none" xmlns="http://www.w3.org/2000/svg">
<path d="M13.6889 5.93972H13.0667V6.2997C13.0667 7.00167 12.5844 7.55964 11.9778 7.55964C11.8067 7.55964 11.6511 7.50564 11.5111 7.43365V7.73963C11.5111 8.4416 11.0289 8.99957 10.4222 8.99957C9.81556 8.99957 9.33333 8.4416 9.33333 7.73963V5.93972H4.66667V7.73963C4.66667 8.4416 4.18444 8.99957 3.57778 8.99957C2.97111 8.99957 2.48889 8.4416 2.48889 7.73963V7.43365C2.34889 7.50564 2.19333 7.55964 2.02222 7.55964C1.41556 7.55964 0.933333 7.00167 0.933333 6.2997V5.93972H0.311111C0.14 5.93972 0 5.77773 0 5.57974V3.41984C0 3.22185 0.14 3.05986 0.311111 3.05986H0.933333V2.69988C0.933333 1.99791 1.41556 1.43994 2.02222 1.43994C2.19333 1.43994 2.34889 1.49393 2.48889 1.56593V1.25995C2.48889 0.557981 2.97111 7.62939e-06 3.57778 7.62939e-06C4.18444 7.62939e-06 4.66667 0.557981 4.66667 1.25995V3.05986H9.33333V1.25995C9.33333 0.557981 9.81556 7.62939e-06 10.4222 7.62939e-06C11.0289 7.62939e-06 11.5111 0.557981 11.5111 1.25995V1.56593C11.6511 1.49393 11.8067 1.43994 11.9778 1.43994C12.5844 1.43994 13.0667 1.99791 13.0667 2.69988V3.05986H13.6889C13.86 3.05986 14 3.22185 14 3.41984V5.57974C14 5.77773 13.86 5.93972 13.6889 5.93972ZM0.622222 3.77982V5.21976H0.933333V3.77982H0.622222ZM2.02222 2.1599C1.75778 2.1599 1.55556 2.39389 1.55556 2.69988V6.2997C1.55556 6.60569 1.75778 6.83968 2.02222 6.83968C2.28667 6.83968 2.48889 6.60569 2.48889 6.2997V2.69988C2.48889 2.39389 2.28667 2.1599 2.02222 2.1599ZM4.04444 1.25995C4.04444 0.953961 3.84222 0.719973 3.57778 0.719973C3.31333 0.719973 3.11111 0.953961 3.11111 1.25995V7.73963C3.11111 8.04562 3.31333 8.27961 3.57778 8.27961C3.84222 8.27961 4.04444 8.04562 4.04444 7.73963V1.25995ZM4.66667 3.77982V5.21976H9.33333V3.77982H4.66667ZM10.8889 1.25995C10.8889 0.953961 10.6867 0.719973 10.4222 0.719973C10.1578 0.719973 9.95556 0.953961 9.95556 1.25995V7.73963C9.95556 8.04562 10.1578 8.27961 10.4222 8.27961C10.6867 8.27961 10.8889 8.04562 10.8889 7.73963V1.25995ZM12.4444 2.69988C12.4444 2.39389 12.2422 2.1599 11.9778 2.1599C11.7133 2.1599 11.5111 2.39389 11.5111 2.69988V6.2997C11.5111 6.60569 11.7133 6.83968 11.9778 6.83968C12.2422 6.83968 12.4444 6.60569 12.4444 6.2997V2.69988ZM13.3778 3.77982H13.0667V5.21976H13.3778V3.77982Z" fill="#F59826"/>
</svg>
