<svg width="15" height="15" viewBox="0 0 15 15" fill="none" xmlns="http://www.w3.org/2000/svg">
<g opacity="0.5">
<path d="M6.22726 0.500002C5.09452 0.500002 3.98721 0.835899 3.04537 1.46522C2.10352 2.09454 1.36945 2.98901 0.935965 4.03553C0.502483 5.08205 0.389064 6.23361 0.610052 7.34459C0.831039 8.45557 1.37651 9.47607 2.17748 10.277C2.97845 11.078 3.99895 11.6235 5.10993 11.8445C6.22091 12.0655 7.37247 11.952 8.41899 11.5186C9.4655 11.0851 10.36 10.351 10.9893 9.40915C11.6186 8.46731 11.9545 7.36 11.9545 6.22726C11.9544 4.70832 11.351 3.25163 10.2769 2.17758C9.20289 1.10353 7.74619 0.500098 6.22726 0.500002V0.500002Z" stroke="#001133" stroke-miterlimit="10"/>
<path d="M10.5001 10.5001L14.5 14.5" stroke="#001133" stroke-miterlimit="10" stroke-linecap="round"/>
</g>
</svg>
