<svg width="17" height="10" viewBox="0 0 17 10" fill="none" xmlns="http://www.w3.org/2000/svg">
<path d="M16.3743 3.42717H15.9604V1.75498C15.9604 1.36243 15.641 1.04305 15.2484 1.04305H14.1888C14.1138 1.04305 14.0415 1.05487 13.9736 1.0765V0.976827C13.9736 0.438215 13.5354 0 12.9968 0H11.6723C11.1336 0 10.6954 0.438215 10.6954 0.976827V3.90039H6.25832V0.976827C6.25832 0.438215 5.8201 0 5.28149 0H3.95698C3.41837 0 2.98015 0.438215 2.98015 0.976827V1.0765C2.9122 1.05487 2.83992 1.04305 2.76492 1.04305H1.70531C1.31276 1.04305 0.993384 1.36243 0.993384 1.75498V2.07574C0.993384 2.21289 1.10458 2.32409 1.24173 2.32409C1.37888 2.32409 1.49008 2.21289 1.49008 2.07574V1.75498C1.49008 1.6363 1.58663 1.53974 1.70531 1.53974H2.76492C2.88359 1.53974 2.98015 1.6363 2.98015 1.75498V8.24509C2.98015 8.36376 2.88359 8.46032 2.76492 8.46032H1.70531C1.58663 8.46032 1.49008 8.36376 1.49008 8.24509V3.1384C1.49008 3.00124 1.37888 2.89005 1.24173 2.89005C1.10458 2.89005 0.993384 3.00124 0.993384 3.1384V3.42717H0.579474C0.259969 3.42717 0 3.68714 0 4.00665V5.99342C0 6.31292 0.259969 6.57289 0.579474 6.57289H0.993384V8.24509C0.993384 8.63764 1.31276 8.95701 1.70531 8.95701H2.76492C2.83992 8.95701 2.9122 8.94519 2.98015 8.92357V9.02324C2.98015 9.56185 3.41837 10.0001 3.95698 10.0001H5.28149C5.8201 10.0001 6.25832 9.56185 6.25832 9.02324V6.09968H6.61978C6.75693 6.09968 6.86812 5.98848 6.86812 5.85133C6.86812 5.71418 6.75693 5.60298 6.61978 5.60298H6.25832V4.39708H10.6954V5.60298H7.69634C7.55919 5.60298 7.44799 5.71418 7.44799 5.85133C7.44799 5.98848 7.55919 6.09968 7.69634 6.09968H10.6954V9.02324C10.6954 9.56185 11.1336 10.0001 11.6723 10.0001H12.9968C13.5354 10.0001 13.9736 9.56185 13.9736 9.02324V8.92357C14.0415 8.94519 14.1138 8.95701 14.1888 8.95701H15.2484C15.641 8.95701 15.9604 8.63764 15.9604 8.24509V7.90972C15.9604 7.77257 15.8492 7.66137 15.712 7.66137C15.5749 7.66137 15.4637 7.77257 15.4637 7.90972V8.24509C15.4637 8.36376 15.3671 8.46032 15.2484 8.46032H14.1888C14.0702 8.46032 13.9736 8.36376 13.9736 8.24509V1.75498C13.9736 1.6363 14.0702 1.53974 14.1888 1.53974H15.2484C15.3671 1.53974 15.4637 1.6363 15.4637 1.75498V6.83779C15.4637 6.97495 15.5749 7.08614 15.712 7.08614C15.8492 7.08614 15.9604 6.97495 15.9604 6.83779V6.57289H16.3743C16.6938 6.57289 16.9537 6.31292 16.9537 5.99342V4.00665C16.9537 3.68714 16.6938 3.42717 16.3743 3.42717ZM0.579474 6.0762C0.533844 6.0762 0.496692 6.03905 0.496692 5.99342V4.00665C0.496692 3.96102 0.533844 3.92387 0.579474 3.92387H0.993384V6.0762H0.579474ZM5.76163 9.02324C5.76163 9.28797 5.54623 9.50337 5.28149 9.50337H3.95698C3.69224 9.50337 3.47684 9.28797 3.47684 9.02324V0.976827C3.47684 0.712091 3.69224 0.496692 3.95698 0.496692H5.28149C5.54623 0.496692 5.76163 0.712091 5.76163 0.976827V9.02324ZM13.4769 9.02324C13.4769 9.28797 13.2615 9.50337 12.9968 9.50337H11.6723C11.4075 9.50337 11.1921 9.28797 11.1921 9.02324V0.976827C11.1921 0.712091 11.4075 0.496692 11.6723 0.496692H12.9968C13.2615 0.496692 13.4769 0.712091 13.4769 0.976827V9.02324ZM16.4571 5.99342C16.4571 6.03905 16.4199 6.0762 16.3743 6.0762H15.9604V3.92387H16.3743C16.4199 3.92387 16.4571 3.96102 16.4571 4.00665V5.99342Z" fill="#518CFF"/>
</svg>
