<svg width="25" height="24" viewBox="0 0 25 24" fill="none" xmlns="http://www.w3.org/2000/svg">
<path d="M17.9937 6.96072L23.3967 7.74045C24.9288 7.96147 25.5426 9.84599 24.4357 10.9291L20.5311 14.7491C20.0913 15.1793 19.8914 15.7985 19.9958 16.405L20.925 21.7914C21.1884 23.3189 19.5887 24.4858 18.2175 23.7662L13.3828 21.2285C12.8383 20.9428 12.1883 20.9434 11.6446 21.2305L6.81588 23.78C5.44666 24.5029 3.84381 23.3397 4.10356 21.8117L5.01983 16.423C5.12289 15.8162 4.92155 15.1973 4.48068 14.7682L0.567632 10.9575C-0.542118 9.87692 0.0672339 7.99099 1.59904 7.76632L7.00008 6.97393C7.60831 6.8848 8.1337 6.50154 8.40496 5.94928L10.8151 1.04451C11.4986 -0.346247 13.478 -0.348778 14.1646 1.04057L16.5863 5.93944C16.8589 6.49085 17.3852 6.87299 17.9937 6.96072Z" fill="white"/>
</svg>
