<svg width="17" height="15" viewBox="0 0 17 15" fill="none" xmlns="http://www.w3.org/2000/svg">
<path d="M14.2691 2.25395H10.2417C9.26309 2.25395 8.46467 1.45906 8.46467 0.476933C8.46467 0.21197 8.2527 0 7.98774 0H2.73088C1.22589 0 0 1.22589 0 2.73088V11.8633C0 13.3682 1.22589 14.5941 2.73088 14.5941H14.2691C15.7741 14.5941 17 13.3682 17 11.8633V4.9813C17 3.47631 15.7741 2.25395 14.2691 2.25395ZM16.0461 11.8597C16.0461 12.8383 15.2512 13.6367 14.2691 13.6367H2.73088C1.75229 13.6367 0.953865 12.8419 0.953865 11.8597V2.73088C0.953865 1.75229 1.74875 0.953865 2.73088 0.953865H7.5532C7.7793 2.23275 8.89921 3.20781 10.2417 3.20781H14.2691C15.2477 3.20781 16.0461 4.0027 16.0461 4.98483V11.8597Z" fill="#54C1FB"/>
</svg>
