<svg width="20" height="16" viewBox="0 0 20 16" fill="none" xmlns="http://www.w3.org/2000/svg">
<path d="M19.6578 7.66753H17.9658C18.6692 5.92208 18.5932 4.50909 18.327 3.55325C17.8707 1.84935 16.3308 0 14.0494 0C13.4411 0 12.8327 0.124675 12.2053 0.374026C11.1217 0.810389 10.3992 1.28831 10.076 1.53766C9.75285 1.28831 9.04943 0.810389 7.94677 0.374026C7.31939 0.124675 6.69202 0 6.10266 0C3.82129 0 2.28137 1.84935 1.8251 3.55325C1.55894 4.57143 1.46388 6.10909 2.35741 8.04156H0.304183C0.13308 8.04156 0 8.18701 0 8.37403C0 8.56104 0.13308 8.70649 0.304183 8.70649H2.71863C2.81369 8.89351 2.92776 9.08052 3.06084 9.26753C5.03802 12.3844 9.3346 15.7714 10.1141 15.9792V16C10.1141 16 10.1331 16 10.1521 15.9792C10.1711 15.9792 10.1901 15.9792 10.2091 15.9792V15.9584C10.8745 15.6052 15 12.6961 17.1673 9.24675C17.3764 8.93507 17.5475 8.62338 17.6996 8.31169H19.6958C19.8669 8.31169 20 8.16623 20 7.97922C20 7.79221 19.8289 7.66753 19.6578 7.66753ZM16.616 8.89351C14.6008 12.1143 10.8935 14.7117 10.0951 15.2727C9.27757 14.7117 5.58935 12.0935 3.55513 8.89351C3.51711 8.83117 3.47909 8.76883 3.44106 8.70649H6.23574C6.34981 8.70649 6.46388 8.64416 6.52091 8.51948L7.79468 5.77662L9.79088 11.3662C9.8289 11.4909 9.96198 11.574 10.076 11.574C10.076 11.574 10.076 11.574 10.0951 11.574C10.2281 11.574 10.3422 11.4701 10.3802 11.3247L12.1293 4.77922L13.0608 8.08312C13.0989 8.20779 13.1939 8.29091 13.308 8.31169C13.4221 8.33247 13.5361 8.27013 13.6122 8.16623L14.3536 6.98182L14.981 8.14545C15.038 8.24935 15.1331 8.31169 15.2471 8.31169H16.9582C16.8441 8.51948 16.73 8.70649 16.616 8.89351ZM17.3004 7.66753H15.4373L14.6578 6.21299C14.6008 6.10909 14.5057 6.04675 14.3916 6.04675C14.2776 6.04675 14.1825 6.08831 14.1255 6.19221L13.4791 7.23117L12.4335 3.51169C12.3954 3.36623 12.2624 3.28312 12.1293 3.26234C11.9962 3.26234 11.8631 3.36623 11.8251 3.51169L10.057 10.1818L8.13688 4.82078C8.09886 4.6961 7.98479 4.61299 7.87072 4.61299C7.73764 4.61299 7.64259 4.67532 7.58555 4.8L6.08365 8.02078H3.06084C2.30038 6.5039 2.09125 5.04935 2.43346 3.74026C2.8327 2.26493 4.14449 0.685714 6.12167 0.685714C6.65399 0.685714 7.20532 0.81039 7.75665 1.01818C9.14449 1.57922 9.88593 2.22338 9.90494 2.22338C10.019 2.32727 10.1711 2.32727 10.2852 2.22338C10.2852 2.22338 11.0266 1.57922 12.4335 1.01818C12.9848 0.78961 13.5361 0.685714 14.0684 0.685714C16.0266 0.685714 17.3574 2.26493 17.7567 3.74026C18.0798 4.94545 17.9087 6.27532 17.3004 7.66753Z" fill="#518CFF"/>
</svg>
