<svg width="17" height="13" viewBox="0 0 17 13" fill="none" xmlns="http://www.w3.org/2000/svg">
<path d="M8.59442 2.22215V1.74709C8.59442 1.27771 8.97522 0.897095 9.44442 0.897095C9.91362 0.897095 10.2944 1.27771 10.2944 1.74709V2.22215H8.59442Z" fill="#00A911"/>
<path d="M3.77775 12.8916C4.56015 12.8916 5.19442 12.2573 5.19442 11.4749C5.19442 10.6925 4.56015 10.0582 3.77775 10.0582C2.99535 10.0582 2.36108 10.6925 2.36108 11.4749C2.36108 12.2573 2.99535 12.8916 3.77775 12.8916Z" fill="#00A911"/>
<path d="M13.2222 12.8916C14.0046 12.8916 14.6389 12.2573 14.6389 11.4749C14.6389 10.6925 14.0046 10.0582 13.2222 10.0582C12.4398 10.0582 11.8055 10.6925 11.8055 11.4749C11.8055 12.2573 12.4398 12.8916 13.2222 12.8916Z" fill="#00A911"/>
<path d="M16.8111 8.64157C16.9156 8.64157 17 8.55714 17 8.45269V7.31935C17 7.00769 16.8196 6.5723 16.5994 6.35205L13.1506 2.90332C12.9304 2.68289 12.495 2.50269 12.1833 2.50269H0.944444C0.422733 2.50269 0 2.92542 0 3.44713V10.5305C0 11.0522 0.422733 11.4749 0.944444 11.4749H1.88889C1.88889 10.4317 2.73454 9.58602 3.77778 9.58602C4.82082 9.58602 5.66667 10.4317 5.66667 11.4749H11.3331C11.3331 10.4317 12.179 9.58602 13.222 9.58602C14.2651 9.58602 15.1111 10.4317 15.1111 11.4749H16.4333C16.7463 11.4749 17 11.221 17 10.9082V9.77491C17 9.67045 16.9156 9.58602 16.8111 9.58602H16.0556C15.7947 9.58602 15.5833 9.37465 15.5833 9.1138C15.5833 8.85294 15.7947 8.64157 16.0556 8.64157H16.8111ZM7.55556 6.72095C7.55556 6.82541 7.47112 6.90984 7.36667 6.90984H6.29642V7.98046C6.29642 8.08492 6.2118 8.16935 6.10753 8.16935H5.22618C5.12172 8.16935 5.03729 8.08492 5.03729 7.98046V6.90984H3.96667C3.86221 6.90984 3.77778 6.82541 3.77778 6.72095V5.8396C3.77778 5.73533 3.86221 5.65071 3.96667 5.65071H5.03729V4.58046C5.03729 4.47601 5.12172 4.39157 5.22618 4.39157H6.10753C6.2118 4.39157 6.29642 4.47601 6.29642 4.58046V5.65071H7.36667C7.47112 5.65071 7.55556 5.73533 7.55556 5.8396V6.72095ZM14.8278 7.50824H11.5222C11.3658 7.50824 11.2389 7.38131 11.2389 7.22491V4.20269C11.2389 4.0461 11.3658 3.91935 11.5222 3.91935H12.5044C12.6395 3.91935 12.8273 3.99831 12.9215 4.09502L14.8841 6.1048C14.9783 6.20151 15.0612 6.39096 15.068 6.52583L15.1032 7.2251C15.1073 7.38131 14.9842 7.50824 14.8278 7.50824Z" fill="#00A911"/>
<path d="M11.1623 0.755559C11.1103 0.665082 11.1413 0.549671 11.2314 0.497537L12.0491 0.0253151C12.1396 -0.0268182 12.255 0.0041594 12.3069 0.0944483C12.3593 0.184926 12.3283 0.300337 12.238 0.35247L11.4203 0.824693C11.3296 0.877015 11.2144 0.846037 11.1623 0.755559Z" fill="#00A911"/>
<path d="M7.46861 0.824818L6.65091 0.352596C6.56043 0.300462 6.52945 0.184862 6.58178 0.0945735C6.63391 0.00409568 6.74951 -0.026882 6.8398 0.0254403L7.6575 0.497663C7.74798 0.549796 7.77895 0.665396 7.72663 0.755685C7.6745 0.846162 7.55909 0.87714 7.46861 0.824818Z" fill="#00A911"/>
</svg>
