<svg width="19" height="19" viewBox="0 0 19 19" fill="none" xmlns="http://www.w3.org/2000/svg">
<path d="M18.8374 0.158763C18.6794 0.000780095 18.4363 -0.0437793 18.2338 0.0453395L0.329037 7.89184C0.138647 7.97691 0.0130707 8.15919 0.000918134 8.36579C-0.0112344 8.57238 0.0981386 8.76682 0.276376 8.86809L6.51874 12.4085L10.2253 18.7157C10.3225 18.8818 10.5048 18.9871 10.6952 18.9871C10.7073 18.9871 10.7154 18.9871 10.7276 18.9871C10.9342 18.975 11.1124 18.8494 11.1975 18.659L18.9549 0.76234C19.044 0.555747 18.9994 0.316747 18.8374 0.158763ZM15.9896 2.22065L6.8266 11.3229L1.76709 8.45491L15.9896 2.22065ZM10.6222 17.2331L7.60437 12.0926L16.8201 2.93765L10.6222 17.2331Z" fill="white"/>
</svg>
