<svg width="9" height="9" viewBox="0 0 9 9" fill="none" xmlns="http://www.w3.org/2000/svg">
<path d="M6.47773 2.50246L8.42281 2.78278C8.97436 2.86224 9.19534 3.53975 8.79684 3.92915L7.39118 5.30246C7.23287 5.45713 7.16089 5.67973 7.1985 5.89779L7.53301 7.83428C7.62783 8.3834 7.05192 8.80293 6.55829 8.54424L4.81782 7.63189C4.6218 7.52919 4.38778 7.52939 4.19207 7.6326L2.45371 8.54919C1.9608 8.80909 1.38377 8.39088 1.47728 7.84155L1.80714 5.90426C1.84424 5.6861 1.77176 5.4636 1.61304 5.30934L0.204348 3.93936C-0.195162 3.55087 0.0242042 2.87285 0.575653 2.79208L2.52003 2.50721C2.73899 2.47516 2.92813 2.33738 3.02579 2.13884L3.89345 0.375514C4.1395 -0.12448 4.85209 -0.12539 5.09925 0.374099L5.97106 2.1353C6.06922 2.33354 6.25866 2.47092 6.47773 2.50246Z" fill="#FFA41B"/>
</svg>
